<svg width="1920" height="1080" viewBox="0 0 1920 1080" fill="none" xmlns="http://www.w3.org/2000/svg">
<rect width="1920" height="1080" fill="#E9EAF6"/>
<g filter="url(#filter0_d_963_2733)">
<path d="M1445.72 443.25H487.75C472.838 443.25 460.75 455.338 460.75 470.25V610.65C460.75 625.562 472.838 637.65 487.75 637.65H1445.72C1460.63 637.65 1472.72 625.562 1472.72 610.65V470.25C1472.72 455.338 1460.63 443.25 1445.72 443.25Z" fill="#262626"/>
<path d="M568.76 583.946C569.2 584.708 570.079 584.943 570.954 584.632C587.862 583.946 590.373 581.732 602.857 593.158C603.418 593.928 604.355 594.13 605.117 593.689C605.879 593.249 606.142 592.354 605.786 591.467C602.857 574.832 602.857 573.197 614.356 559.568C615.062 558.965 615.269 558.105 614.829 557.342C614.389 556.581 613.541 556.33 612.682 556.669C593.045 559.568 593.045 559.568 580.779 548.143C580.171 547.361 579.264 547.143 578.503 547.582C577.74 548.022 577.447 548.934 577.85 549.834C580.779 567.312 577.85 573.325 569.28 581.732C568.557 582.307 568.321 583.184 568.76 583.946Z" fill="url(#paint0_linear_963_2733)"/>
<path fill-rule="evenodd" clip-rule="evenodd" d="M628.544 492.297C636.992 502.113 637.428 517.143 632.734 528.438C631.296 531.9 627.324 533.539 623.863 532.101C620.402 530.662 618.763 526.689 620.201 523.227C623.5 515.291 622.486 506.066 618.258 501.153C616.31 498.89 613.451 497.211 609.137 496.933C604.65 496.644 598.284 497.872 589.744 502.238C575.39 509.576 563.294 521.15 554.48 533.661C545.614 546.246 540.435 559.252 539.341 569.107C538.792 574.048 539.33 577.642 540.381 579.936C541.304 581.952 542.667 583.146 544.892 583.687C547.451 584.31 551.712 584.171 558.231 581.816C564.679 579.487 572.809 575.178 582.776 568.23C585.85 566.087 590.08 566.842 592.223 569.917C594.366 572.993 593.611 577.224 590.537 579.367C579.975 586.73 570.77 591.72 562.841 594.584C554.983 597.422 547.825 598.371 541.687 596.879C535.216 595.306 530.605 591.185 528.042 585.591C525.607 580.275 525.146 573.963 525.852 567.608C527.265 554.873 533.604 539.727 543.385 525.842C553.218 511.885 566.898 498.672 583.568 490.15C593.483 485.08 602.321 482.891 610.008 483.386C617.868 483.891 624.154 487.196 628.544 492.297Z" fill="url(#paint1_linear_963_2733)"/>
<path d="M689.723 524.248H696.666V531.191H689.723V524.248ZM689.723 517.305H696.666V524.248H689.723V517.305ZM696.666 517.305H703.609V524.248H696.666V517.305ZM696.666 524.248H703.609V531.191H696.666V524.248ZM696.666 531.191H703.609V538.134H696.666V531.191ZM696.666 538.134H703.609V545.077H696.666V538.134ZM696.666 545.077H703.609V552.02H696.666V545.077ZM689.723 545.077H696.666V552.02H689.723V545.077ZM689.723 538.134H696.666V545.077H689.723V538.134ZM689.723 531.191H696.666V538.134H689.723V531.191ZM689.723 552.02H696.666V558.963H689.723V552.02ZM696.666 552.02H703.609V558.963H696.666V552.02ZM696.666 558.963H703.609V565.905H696.666V558.963ZM696.666 565.905H703.609V572.848H696.666V565.905ZM689.723 565.905H696.666V572.848H689.723V565.905ZM689.723 558.963H696.666V565.905H689.723V558.963ZM717.494 565.905H724.437V572.848H717.494V565.905ZM724.437 565.905H731.38V572.848H724.437V565.905ZM724.437 558.963H731.38V565.905H724.437V558.963ZM724.437 552.02H731.38V558.963H724.437V552.02ZM724.437 545.077H731.38V552.02H724.437V545.077ZM724.437 538.134H731.38V545.077H724.437V538.134ZM724.437 531.191H731.38V538.134H724.437V531.191ZM724.437 524.248H731.38V531.191H724.437V524.248ZM717.494 538.134H724.437V545.077H717.494V538.134ZM717.494 545.077H724.437V552.02H717.494V545.077ZM717.494 552.02H724.437V558.963H717.494V552.02ZM717.494 558.963H724.437V565.905H717.494V558.963ZM717.494 531.191H724.437V538.134H717.494V531.191ZM703.609 524.248H710.552V531.191H703.609V524.248ZM710.552 524.248H717.494V531.191H710.552V524.248ZM717.494 517.305H724.437V524.248H717.494V517.305ZM717.494 524.248H724.437V531.191H717.494V524.248ZM710.552 517.305H717.494V524.248H710.552V517.305ZM745.266 565.905H752.209V572.848H745.266V565.905ZM752.209 565.905H759.152V572.848H752.209V565.905ZM752.209 558.963H759.152V565.905H752.209V558.963ZM752.209 552.02H759.152V558.963H752.209V552.02ZM752.209 545.077H759.152V552.02H752.209V545.077ZM752.209 538.134H759.152V545.077H752.209V538.134ZM752.209 531.191H759.152V538.134H752.209V531.191ZM752.209 524.248H759.152V531.191H752.209V524.248ZM745.266 538.134H752.209V545.077H745.266V538.134ZM745.266 545.077H752.209V552.02H745.266V545.077ZM745.266 552.02H752.209V558.963H745.266V552.02ZM745.266 558.963H752.209V565.905H745.266V558.963ZM745.266 531.191H752.209V538.134H745.266V531.191ZM731.38 524.248H738.323V531.191H731.38V524.248ZM738.323 524.248H745.266V531.191H738.323V524.248ZM745.266 517.305H752.209V524.248H745.266V517.305ZM745.266 524.248H752.209V531.191H745.266V524.248ZM738.323 517.305H745.266V524.248H738.323V517.305ZM766.04 503.42H772.983V510.363H766.04V503.42ZM772.983 503.42H779.926V510.363H772.983V503.42ZM772.983 510.363H779.926V517.305H772.983V510.363ZM772.983 517.305H779.926V524.248H772.983V517.305ZM772.983 524.248H779.926V531.191H772.983V524.248ZM772.983 531.191H779.926V538.134H772.983V531.191ZM772.983 538.134H779.926V545.077H772.983V538.134ZM766.04 538.134H772.983V545.077H766.04V538.134ZM766.04 545.077H772.983V552.02H766.04V545.077ZM766.04 552.02H772.983V558.963H766.04V552.02ZM766.04 558.963H772.983V565.905H766.04V558.963ZM766.04 565.905H772.983V572.848H766.04V565.905ZM772.983 565.905H779.926V572.848H772.983V565.905ZM772.983 558.963H779.926V565.905H772.983V558.963ZM772.983 552.02H779.926V558.963H772.983V552.02ZM772.983 545.077H779.926V552.02H772.983V545.077ZM766.04 531.191H772.983V538.134H766.04V531.191ZM766.04 524.248H772.983V531.191H766.04V524.248ZM766.04 517.305H772.983V524.248H766.04V517.305ZM766.04 510.363H772.983V517.305H766.04V510.363ZM786.923 524.248H793.866V531.191H786.923V524.248ZM786.923 517.305H793.866V524.248H786.923V517.305ZM793.866 517.305H800.809V524.248H793.866V517.305ZM793.866 524.248H800.809V531.191H793.866V524.248ZM793.866 531.191H800.809V538.134H793.866V531.191ZM793.866 538.134H800.809V545.077H793.866V538.134ZM793.866 545.077H800.809V552.02H793.866V545.077ZM786.923 545.077H793.866V552.02H786.923V545.077ZM786.923 538.134H793.866V545.077H786.923V538.134ZM786.923 531.191H793.866V538.134H786.923V531.191ZM786.923 552.02H793.866V558.963H786.923V552.02ZM793.866 552.02H800.809V558.963H793.866V552.02ZM793.866 558.963H800.809V565.905H793.866V558.963ZM793.866 565.905H800.809V572.848H793.866V565.905ZM786.923 565.905H793.866V572.848H786.923V565.905ZM786.923 558.963H793.866V565.905H786.923V558.963ZM821.637 565.905H828.58V572.848H821.637V565.905ZM828.58 558.963H835.523V565.905H828.58V558.963ZM828.58 552.02H835.523V558.963H828.58V552.02ZM828.58 545.077H835.523V552.02H828.58V545.077ZM828.58 538.134H835.523V545.077H828.58V538.134ZM828.58 531.191H835.523V538.134H828.58V531.191ZM828.58 524.248H835.523V531.191H828.58V524.248ZM821.637 538.134H828.58V545.077H821.637V538.134ZM821.637 545.077H828.58V552.02H821.637V545.077ZM821.637 552.02H828.58V558.963H821.637V552.02ZM821.637 558.963H828.58V565.905H821.637V558.963ZM821.637 531.191H828.58V538.134H821.637V531.191ZM800.809 524.248H807.752V531.191H800.809V524.248ZM807.752 524.248H814.694V531.191H807.752V524.248ZM814.694 524.248H821.637V531.191H814.694V524.248ZM814.694 517.305H821.637V524.248H814.694V517.305ZM821.637 517.305H828.58V524.248H821.637V517.305ZM821.637 524.248H828.58V531.191H821.637V524.248ZM807.752 517.305H814.694V524.248H807.752V517.305ZM786.923 503.42H793.866V510.363H786.923V503.42ZM793.866 503.42H800.809V510.363H793.866V503.42ZM793.866 510.363H800.809V517.305H793.866V510.363ZM786.923 510.363H793.866V517.305H786.923V510.363ZM800.809 565.905H807.752V572.848H800.809V565.905ZM807.752 565.905H814.694V572.848H807.752V565.905ZM814.694 565.905H821.637V572.848H814.694V565.905ZM814.694 558.963H821.637V565.905H814.694V558.963ZM807.752 558.963H814.694V565.905H807.752V558.963ZM800.809 558.963H807.752V565.905H800.809V558.963ZM842.484 517.305H849.427V524.248H842.484V517.305ZM849.427 517.305H856.369V524.248H849.427V517.305ZM849.427 524.248H856.369V531.191H849.427V524.248ZM849.427 531.191H856.369V538.134H849.427V531.191ZM849.427 538.134H856.369V545.077H849.427V538.134ZM849.427 545.077H856.369V552.02H849.427V545.077ZM842.484 545.077H849.427V552.02H842.484V545.077ZM842.484 538.134H849.427V545.077H842.484V538.134ZM842.484 531.191H849.427V538.134H842.484V531.191ZM842.484 524.248H849.427V531.191H842.484V524.248ZM849.427 552.02H856.369V558.963H849.427V552.02ZM856.369 552.02H863.312V558.963H856.369V552.02ZM856.369 558.963H863.312V565.905H856.369V558.963ZM863.312 558.963H870.255V565.905H863.312V558.963ZM863.312 565.905H870.255V572.848H863.312V565.905ZM870.255 558.963H877.198V565.905H870.255V558.963ZM870.255 552.02H877.198V558.963H870.255V552.02ZM877.198 552.02H884.141V558.963H877.198V552.02ZM877.198 545.077H884.141V552.02H877.198V545.077ZM877.198 538.134H884.141V545.077H877.198V538.134ZM877.198 531.191H884.141V538.134H877.198V531.191ZM877.198 524.248H884.141V531.191H877.198V524.248ZM877.198 517.305H884.141V524.248H877.198V517.305ZM884.141 538.134H891.084V545.077H884.141V538.134ZM884.141 545.077H891.084V552.02H884.141V545.077ZM884.141 531.191H891.084V538.134H884.141V531.191ZM884.141 524.248H891.084V531.191H884.141V524.248ZM884.141 517.305H891.084V524.248H884.141V517.305ZM863.312 552.02H870.255V558.963H863.312V552.02ZM856.369 545.077H863.312V552.02H856.369V545.077ZM870.255 545.077H877.198V552.02H870.255V545.077ZM936.685 503.42H943.628V510.363H936.685V503.42ZM936.685 510.363H943.628V517.305H936.685V510.363ZM929.742 510.363H936.685V517.305H929.742V510.363ZM929.742 503.42H936.685V510.363H929.742V503.42ZM936.685 517.305H943.628V524.248H936.685V517.305ZM929.742 517.305H936.685V524.248H929.742V517.305ZM929.742 524.248H936.685V531.191H929.742V524.248ZM929.742 531.191H936.685V538.134H929.742V531.191ZM929.742 538.134H936.685V545.077H929.742V538.134ZM922.8 538.134H929.742V545.077H922.8V538.134ZM922.8 531.191H929.742V538.134H922.8V531.191ZM922.8 524.248H929.742V531.191H922.8V524.248ZM922.8 545.077H929.742V552.02H922.8V545.077ZM922.8 552.02H929.742V558.963H922.8V552.02ZM922.8 558.963H929.742V565.905H922.8V558.963ZM915.857 558.963H922.8V565.905H915.857V558.963ZM915.857 552.02H922.8V558.963H915.857V552.02ZM915.857 545.077H922.8V552.02H915.857V545.077ZM915.857 565.905H922.8V572.848H915.857V565.905ZM915.857 572.848H922.8V579.791H915.857V572.848ZM915.857 579.791H922.8V586.734H915.857V579.791ZM908.914 579.791H915.857V586.734H908.914V579.791ZM908.914 572.848H915.857V579.791H908.914V572.848ZM908.914 565.905H915.857V572.848H908.914V565.905ZM966.606 524.248H973.549V531.191H966.606V524.248ZM966.606 517.305H973.549V524.248H966.606V517.305ZM973.549 517.305H980.489V524.248H973.549V517.305ZM973.549 524.248H980.489V531.191H973.549V524.248ZM973.549 531.191H980.489V538.134H973.549V531.191ZM973.549 538.134H980.489V545.077H973.549V538.134ZM973.549 545.077H980.489V552.02H973.549V545.077ZM966.606 545.077H973.549V552.02H966.606V545.077ZM966.606 538.134H973.549V545.077H966.606V538.134ZM966.606 531.191H973.549V538.134H966.606V531.191ZM966.606 552.02H973.549V558.963H966.606V552.02ZM973.549 552.02H980.489V558.963H973.549V552.02ZM973.549 558.963H980.489V565.905H973.549V558.963ZM973.549 565.905H980.489V572.848H973.549V565.905ZM966.606 565.905H973.549V572.848H966.606V565.905ZM966.606 558.963H973.549V565.905H966.606V558.963ZM994.378 565.905H1001.32V572.848H994.378V565.905ZM1001.32 565.905H1008.26V572.848H1001.32V565.905ZM1001.32 558.963H1008.26V565.905H1001.32V558.963ZM1001.32 552.02H1008.26V558.963H1001.32V552.02ZM1001.32 545.077H1008.26V552.02H1001.32V545.077ZM1001.32 538.134H1008.26V545.077H1001.32V538.134ZM1001.32 531.191H1008.26V538.134H1001.32V531.191ZM1001.32 524.248H1008.26V531.191H1001.32V524.248ZM994.378 538.134H1001.32V545.077H994.378V538.134ZM994.378 545.077H1001.32V552.02H994.378V545.077ZM994.378 552.02H1001.32V558.963H994.378V552.02ZM994.378 558.963H1001.32V565.905H994.378V558.963ZM994.378 531.191H1001.32V538.134H994.378V531.191ZM980.489 524.248H987.434V531.191H980.489V524.248ZM987.434 524.248H994.378V531.191H987.434V524.248ZM994.378 517.305H1001.32V524.248H994.378V517.305ZM994.378 524.248H1001.32V531.191H994.378V524.248ZM987.434 517.305H994.378V524.248H987.434V517.305ZM1022.15 565.905H1029.09V572.848H1022.15V565.905ZM1029.09 565.905H1036.03V572.848H1029.09V565.905ZM1029.09 558.963H1036.03V565.905H1029.09V558.963ZM1029.09 552.02H1036.03V558.963H1029.09V552.02ZM1029.09 545.077H1036.03V552.02H1029.09V545.077ZM1029.09 538.134H1036.03V545.077H1029.09V538.134ZM1029.09 531.191H1036.03V538.134H1029.09V531.191ZM1029.09 524.248H1036.03V531.191H1029.09V524.248ZM1022.15 538.134H1029.09V545.077H1022.15V538.134ZM1022.15 545.077H1029.09V552.02H1022.15V545.077ZM1022.15 552.02H1029.09V558.963H1022.15V552.02ZM1022.15 558.963H1029.09V565.905H1022.15V558.963ZM1022.15 531.191H1029.09V538.134H1022.15V531.191ZM1008.26 524.248H1015.21V531.191H1008.26V524.248ZM1015.21 524.248H1022.15V531.191H1015.21V524.248ZM1022.15 517.305H1029.09V524.248H1022.15V517.305ZM1022.15 524.248H1029.09V531.191H1022.15V524.248ZM1015.21 517.305H1022.15V524.248H1015.21V517.305ZM1056.81 517.305H1063.75V524.248H1056.81V517.305ZM1049.87 517.305H1056.81V524.248H1049.87V517.305ZM1049.87 524.248H1056.81V531.191H1049.87V524.248ZM1056.81 524.248H1063.75V531.191H1056.81V524.248ZM1063.75 517.305H1070.7V524.248H1063.75V517.305ZM1070.7 517.305H1077.64V524.248H1070.7V517.305ZM1077.64 517.305H1084.58V524.248H1077.64V517.305ZM1077.64 524.248H1084.58V531.191H1077.64V524.248ZM1070.7 524.248H1077.64V531.191H1070.7V524.248ZM1077.64 538.134H1084.58V545.077H1077.64V538.134ZM1084.58 524.248H1091.52V531.191H1084.58V524.248ZM1084.58 531.191H1091.52V538.134H1084.58V531.191ZM1084.58 538.134H1091.52V545.077H1084.58V538.134ZM1084.58 545.077H1091.52V552.02H1084.58V545.077ZM1084.58 552.02H1091.52V558.963H1084.58V552.02ZM1084.58 558.963H1091.52V565.905H1084.58V558.963ZM1077.64 558.963H1084.58V565.905H1077.64V558.963ZM1077.64 552.02H1084.58V558.963H1077.64V552.02ZM1077.64 545.077H1084.58V552.02H1077.64V545.077ZM1077.64 531.191H1084.58V538.134H1077.64V531.191ZM1070.7 558.963H1077.64V565.905H1070.7V558.963ZM1077.64 565.905H1084.58V572.848H1077.64V565.905ZM1070.7 565.905H1077.64V572.848H1070.7V565.905ZM1063.75 565.905H1070.7V572.848H1063.75V565.905ZM1056.81 565.905H1063.75V572.848H1056.81V565.905ZM1049.87 565.905H1056.81V572.848H1049.87V565.905ZM1049.87 558.963H1056.81V565.905H1049.87V558.963ZM1056.81 558.963H1063.75V565.905H1056.81V558.963ZM1049.87 552.02H1056.81V558.963H1049.87V552.02ZM1042.92 558.963H1049.87V565.905H1042.92V558.963ZM1042.92 552.02H1049.87V558.963H1042.92V552.02ZM1042.92 545.077H1049.87V552.02H1042.92V545.077ZM1042.92 538.134H1049.87V545.077H1042.92V538.134ZM1042.92 531.191H1049.87V538.134H1042.92V531.191ZM1042.92 524.248H1049.87V531.191H1042.92V524.248ZM1049.87 531.191H1056.81V538.134H1049.87V531.191ZM1049.87 538.134H1056.81V545.077H1049.87V538.134ZM1049.87 545.077H1056.81V552.02H1049.87V545.077ZM1063.75 558.963H1070.7V565.905H1063.75V558.963ZM1063.75 524.248H1070.7V531.191H1063.75V524.248ZM1126.26 558.963H1133.2V565.905H1126.26V558.963ZM1126.26 565.905H1133.2V572.848H1126.26V565.905ZM1119.31 565.905H1126.26V572.848H1119.31V565.905ZM1119.31 558.963H1126.26V565.905H1119.31V558.963ZM1112.37 565.905H1119.31V572.848H1112.37V565.905ZM1112.37 558.963H1119.31V565.905H1112.37V558.963ZM1105.43 558.963H1112.37V565.905H1105.43V558.963ZM1105.43 552.02H1112.37V558.963H1105.43V552.02ZM1105.43 545.077H1112.37V552.02H1105.43V545.077ZM1105.43 538.134H1112.37V545.077H1105.43V538.134ZM1105.43 531.191H1112.37V538.134H1105.43V531.191ZM1105.43 524.248H1112.37V531.191H1105.43V524.248ZM1112.37 545.077H1119.31V552.02H1112.37V545.077ZM1112.37 552.02H1119.31V558.963H1112.37V552.02ZM1112.37 538.134H1119.31V545.077H1112.37V538.134ZM1112.37 531.191H1119.31V538.134H1112.37V531.191ZM1112.37 503.42H1119.31V510.363H1112.37V503.42ZM1112.37 510.363H1119.31V517.305H1112.37V510.363ZM1112.37 517.305H1119.31V524.248H1112.37V517.305ZM1112.37 524.248H1119.31V531.191H1112.37V524.248ZM1105.43 517.305H1112.37V524.248H1105.43V517.305ZM1098.48 524.248H1105.43V531.191H1098.48V524.248ZM1119.31 524.248H1126.26V531.191H1119.31V524.248ZM1126.26 524.248H1133.2V531.191H1126.26V524.248ZM1105.43 510.363H1112.37V517.305H1105.43V510.363ZM1098.48 531.191H1105.43V538.134H1098.48V531.191ZM1119.31 531.191H1126.26V538.134H1119.31V531.191ZM1126.26 531.191H1133.2V538.134H1126.26V531.191ZM1140.12 503.42H1154.01V517.305H1140.12V503.42ZM1140.12 524.248H1154.01V572.848H1140.12V524.248ZM1174.89 517.305H1181.83V524.248H1174.89V517.305ZM1167.95 517.305H1174.89V524.248H1167.95V517.305ZM1167.95 524.248H1174.89V531.191H1167.95V524.248ZM1174.89 524.248H1181.83V531.191H1174.89V524.248ZM1181.83 517.305H1188.78V524.248H1181.83V517.305ZM1188.78 517.305H1195.72V524.248H1188.78V517.305ZM1195.72 517.305H1202.66V524.248H1195.72V517.305ZM1195.72 524.248H1202.66V531.191H1195.72V524.248ZM1188.78 524.248H1195.72V531.191H1188.78V524.248ZM1195.72 538.134H1202.66V545.077H1195.72V538.134ZM1202.66 524.248H1209.61V531.191H1202.66V524.248ZM1202.66 531.191H1209.61V538.134H1202.66V531.191ZM1202.66 538.134H1209.61V545.077H1202.66V538.134ZM1202.66 545.077H1209.61V552.02H1202.66V545.077ZM1202.66 552.02H1209.61V558.963H1202.66V552.02ZM1202.66 558.963H1209.61V565.905H1202.66V558.963ZM1195.72 558.963H1202.66V565.905H1195.72V558.963ZM1195.72 552.02H1202.66V558.963H1195.72V552.02ZM1195.72 545.077H1202.66V552.02H1195.72V545.077ZM1195.72 531.191H1202.66V538.134H1195.72V531.191ZM1188.78 558.963H1195.72V565.905H1188.78V558.963ZM1195.72 565.905H1202.66V572.848H1195.72V565.905ZM1188.78 565.905H1195.72V572.848H1188.78V565.905ZM1181.83 565.905H1188.78V572.848H1181.83V565.905ZM1174.89 565.905H1181.83V572.848H1174.89V565.905ZM1167.95 565.905H1174.89V572.848H1167.95V565.905ZM1167.95 558.963H1174.89V565.905H1167.95V558.963ZM1174.89 558.963H1181.83V565.905H1174.89V558.963ZM1167.95 552.02H1174.89V558.963H1167.95V552.02ZM1161.01 558.963H1167.95V565.905H1161.01V558.963ZM1161.01 552.02H1167.95V558.963H1161.01V552.02ZM1161.01 545.077H1167.95V552.02H1161.01V545.077ZM1161.01 538.134H1167.95V545.077H1161.01V538.134ZM1161.01 531.191H1167.95V538.134H1161.01V531.191ZM1161.01 524.248H1167.95V531.191H1161.01V524.248ZM1167.95 531.191H1174.89V538.134H1167.95V531.191ZM1167.95 538.134H1174.89V545.077H1167.95V538.134ZM1167.95 545.077H1174.89V552.02H1167.95V545.077ZM1181.83 558.963H1188.78V565.905H1181.83V558.963ZM1181.83 524.248H1188.78V531.191H1181.83V524.248ZM1216.57 524.248H1223.51V531.191H1216.57V524.248ZM1216.57 517.305H1223.51V524.248H1216.57V517.305ZM1223.51 517.305H1230.46V524.248H1223.51V517.305ZM1223.51 524.248H1230.46V531.191H1223.51V524.248ZM1223.51 531.191H1230.46V538.134H1223.51V531.191ZM1223.51 538.134H1230.46V545.077H1223.51V538.134ZM1223.51 545.077H1230.46V552.02H1223.51V545.077ZM1216.57 545.077H1223.51V552.02H1216.57V545.077ZM1216.57 538.134H1223.51V545.077H1216.57V538.134ZM1216.57 531.191H1223.51V538.134H1216.57V531.191ZM1216.57 552.02H1223.51V558.963H1216.57V552.02ZM1223.51 552.02H1230.46V558.963H1223.51V552.02ZM1223.51 558.963H1230.46V565.905H1223.51V558.963ZM1223.51 565.905H1230.46V572.848H1223.51V565.905ZM1216.57 565.905H1223.51V572.848H1216.57V565.905ZM1216.57 558.963H1223.51V565.905H1216.57V558.963ZM1251.28 565.905H1258.22V572.848H1251.28V565.905ZM1258.22 565.905H1265.17V572.848H1258.22V565.905ZM1258.22 558.963H1265.17V565.905H1258.22V558.963ZM1258.22 552.02H1265.17V558.963H1258.22V552.02ZM1258.22 545.077H1265.17V552.02H1258.22V545.077ZM1258.22 538.134H1265.17V545.077H1258.22V538.134ZM1258.22 531.191H1265.17V538.134H1258.22V531.191ZM1258.22 524.248H1265.17V531.191H1258.22V524.248ZM1251.28 538.134H1258.22V545.077H1251.28V538.134ZM1251.28 545.077H1258.22V552.02H1251.28V545.077ZM1251.28 552.02H1258.22V558.963H1251.28V552.02ZM1251.28 558.963H1258.22V565.905H1251.28V558.963ZM1251.28 531.191H1258.22V538.134H1251.28V531.191ZM1230.46 524.248H1237.39V531.191H1230.46V524.248ZM1237.39 524.248H1244.34V531.191H1237.39V524.248ZM1244.34 524.248H1251.28V531.191H1244.34V524.248ZM1244.34 517.305H1251.28V524.248H1244.34V517.305ZM1251.28 517.305H1258.22V524.248H1251.28V517.305ZM1251.28 524.248H1258.22V531.191H1251.28V524.248ZM1237.39 517.305H1244.34V524.248H1237.39V517.305ZM1272.13 503.42H1279.07V510.363H1272.13V503.42ZM1279.07 503.42H1286.02V510.363H1279.07V503.42ZM1279.07 510.363H1286.02V517.305H1279.07V510.363ZM1279.07 517.305H1286.02V524.248H1279.07V517.305ZM1279.07 524.248H1286.02V531.191H1279.07V524.248ZM1279.07 531.191H1286.02V538.134H1279.07V531.191ZM1279.07 538.134H1286.02V545.077H1279.07V538.134ZM1272.13 538.134H1279.07V545.077H1272.13V538.134ZM1272.13 545.077H1279.07V552.02H1272.13V545.077ZM1272.13 552.02H1279.07V558.963H1272.13V552.02ZM1272.13 558.963H1279.07V565.905H1272.13V558.963ZM1272.13 565.905H1279.07V572.848H1272.13V565.905ZM1279.07 565.905H1286.02V572.848H1279.07V565.905ZM1279.07 558.963H1286.02V565.905H1279.07V558.963ZM1279.07 552.02H1286.02V558.963H1279.07V552.02ZM1279.07 545.077H1286.02V552.02H1279.07V545.077ZM1272.13 531.191H1279.07V538.134H1272.13V531.191ZM1272.13 524.248H1279.07V531.191H1272.13V524.248ZM1272.13 517.305H1279.07V524.248H1272.13V517.305ZM1272.13 510.363H1279.07V517.305H1272.13V510.363ZM1334.67 572.848H1327.73V565.905H1334.67V572.848ZM1334.67 565.905H1327.73V558.963H1334.67V565.905ZM1327.73 565.905H1320.78V558.963H1327.73V565.905ZM1320.78 572.848H1313.84V565.905H1320.78V572.848ZM1313.84 572.848H1306.9V565.905H1313.84V572.848ZM1306.9 572.848H1299.95V565.905H1306.9V572.848ZM1306.9 565.905H1299.95V558.963H1306.9V565.905ZM1313.84 565.905H1306.9V558.963H1313.84V565.905ZM1299.95 565.905H1293.01V558.963H1299.95V565.905ZM1299.95 558.963H1293.01V552.02H1299.95V558.963ZM1299.95 531.191H1293.01V524.248H1299.95V531.191ZM1306.9 531.191H1299.95V524.248H1306.9V531.191ZM1306.9 558.963H1299.95V552.02H1306.9V558.963ZM1313.84 531.191H1306.9V524.248H1313.84V531.191ZM1306.9 524.248H1299.95V517.305H1306.9V524.248ZM1313.84 524.248H1306.9V517.305H1313.84V524.248ZM1320.78 524.248H1313.84V517.305H1320.78V524.248ZM1327.73 524.248H1320.78V517.305H1327.73V524.248ZM1334.67 524.248H1327.73V517.305H1334.67V524.248ZM1334.67 531.191H1327.73V524.248H1334.67V531.191ZM1327.73 531.191H1320.78V524.248H1327.73V531.191ZM1334.67 538.134H1327.73V531.191H1334.67V538.134ZM1341.61 531.191H1334.67V524.248H1341.61V531.191ZM1341.61 538.134H1334.67V531.191H1341.61V538.134ZM1341.61 545.077H1334.67V538.134H1341.61V545.077ZM1341.61 552.02H1334.67V545.077H1341.61V552.02ZM1341.61 558.963H1334.67V552.02H1341.61V558.963ZM1341.61 565.905H1334.67V558.963H1341.61V565.905ZM1334.67 558.963H1327.73V552.02H1334.67V558.963ZM1334.67 552.02H1327.73V545.077H1334.67V552.02ZM1334.67 545.077H1327.73V538.134H1334.67V545.077ZM1320.78 531.191H1313.84V524.248H1320.78V531.191ZM1320.78 565.905H1313.84V558.963H1320.78V565.905ZM1334.67 565.905H1341.61V572.848H1334.67V565.905ZM1320.78 538.134H1327.73V545.077H1320.78V538.134ZM1313.84 538.134H1320.78V545.077H1313.84V538.134ZM1306.9 538.134H1313.84V545.077H1306.9V538.134ZM1299.95 538.134H1306.9V545.077H1299.95V538.134ZM1293.01 545.077H1299.95V552.02H1293.01V545.077ZM1299.95 545.077H1306.9V552.02H1299.95V545.077ZM1320.78 545.077H1327.73V552.02H1320.78V545.077ZM1313.84 545.077H1320.78V552.02H1313.84V545.077ZM1306.9 545.077H1313.84V552.02H1306.9V545.077ZM1348.57 524.248H1355.51V531.191H1348.57V524.248ZM1348.57 517.305H1355.51V524.248H1348.57V517.305ZM1355.51 517.305H1362.46V524.248H1355.51V517.305ZM1355.51 524.248H1362.46V531.191H1355.51V524.248ZM1355.51 531.191H1362.46V538.134H1355.51V531.191ZM1355.51 538.134H1362.46V545.077H1355.51V538.134ZM1355.51 545.077H1362.46V552.02H1355.51V545.077ZM1348.57 545.077H1355.51V552.02H1348.57V545.077ZM1348.57 538.134H1355.51V545.077H1348.57V538.134ZM1348.57 531.191H1355.51V538.134H1348.57V531.191ZM1348.57 552.02H1355.51V558.963H1348.57V552.02ZM1355.51 552.02H1362.46V558.963H1355.51V552.02ZM1355.51 558.963H1362.46V565.905H1355.51V558.963ZM1355.51 565.905H1362.46V572.848H1355.51V565.905ZM1348.57 565.905H1355.51V572.848H1348.57V565.905ZM1348.57 558.963H1355.51V565.905H1348.57V558.963ZM1383.29 565.905H1390.23V572.848H1383.29V565.905ZM1390.23 558.963H1397.17V565.905H1390.23V558.963ZM1390.23 552.02H1397.17V558.963H1390.23V552.02ZM1390.23 545.077H1397.17V552.02H1390.23V545.077ZM1390.23 538.134H1397.17V545.077H1390.23V538.134ZM1390.23 531.191H1397.17V538.134H1390.23V531.191ZM1390.23 524.248H1397.17V531.191H1390.23V524.248ZM1383.29 538.134H1390.23V545.077H1383.29V538.134ZM1383.29 545.077H1390.23V552.02H1383.29V545.077ZM1383.29 552.02H1390.23V558.963H1383.29V552.02ZM1383.29 558.963H1390.23V565.905H1383.29V558.963ZM1383.29 531.191H1390.23V538.134H1383.29V531.191ZM1362.46 524.248H1369.4V531.191H1362.46V524.248ZM1369.4 524.248H1376.34V531.191H1369.4V524.248ZM1376.34 524.248H1383.29V531.191H1376.34V524.248ZM1376.34 517.305H1383.29V524.248H1376.34V517.305ZM1383.29 517.305H1390.23V524.248H1383.29V517.305ZM1383.29 524.248H1390.23V531.191H1383.29V524.248ZM1369.4 517.305H1376.34V524.248H1369.4V517.305ZM1348.57 503.42H1355.51V510.363H1348.57V503.42ZM1355.51 503.42H1362.46V510.363H1355.51V503.42ZM1355.51 510.363H1362.46V517.305H1355.51V510.363ZM1348.57 510.363H1355.51V517.305H1348.57V510.363ZM1362.46 565.905H1369.4V572.848H1362.46V565.905ZM1369.4 565.905H1376.34V572.848H1369.4V565.905ZM1376.34 565.905H1383.29V572.848H1376.34V565.905ZM1376.34 558.963H1383.29V565.905H1376.34V558.963ZM1369.4 558.963H1376.34V565.905H1369.4V558.963ZM1362.46 558.963H1369.4V565.905H1362.46V558.963Z" fill="white"/>
<path d="M1446.25 475.65C1450.72 475.65 1454.35 472.023 1454.35 467.55C1454.35 463.076 1450.72 459.45 1446.25 459.45C1441.77 459.45 1438.15 463.076 1438.15 467.55C1438.15 472.023 1441.77 475.65 1446.25 475.65Z" fill="#E4E4E4"/>
<path d="M485.049 475.65C489.523 475.65 493.149 472.023 493.149 467.55C493.149 463.076 489.523 459.45 485.049 459.45C480.576 459.45 476.949 463.076 476.949 467.55C476.949 472.023 480.576 475.65 485.049 475.65Z" fill="#E4E4E4"/>
<path d="M1446.25 621.45C1450.72 621.45 1454.35 617.824 1454.35 613.35C1454.35 608.876 1450.72 605.25 1446.25 605.25C1441.77 605.25 1438.15 608.876 1438.15 613.35C1438.15 617.824 1441.77 621.45 1446.25 621.45Z" fill="#E4E4E4"/>
<path d="M485.049 621.45C489.523 621.45 493.149 617.824 493.149 613.35C493.149 608.876 489.523 605.25 485.049 605.25C480.576 605.25 476.949 608.876 476.949 613.35C476.949 617.824 480.576 621.45 485.049 621.45Z" fill="#E4E4E4"/>
</g>
<line x1="1569.1" y1="637.65" x2="1569.1" y2="738.9" stroke="#D3D3DB" stroke-width="10.8"/>
<line x1="1473.25" y1="733.5" x2="1574.5" y2="733.5" stroke="#D3D3DB" stroke-width="10.8"/>
<line x1="351.401" y1="443.25" x2="351.401" y2="342" stroke="#D3D3DB" stroke-width="10.8"/>
<line x1="447.25" y1="347.4" x2="346" y2="347.4" stroke="#D3D3DB" stroke-width="10.8"/>
<line x1="447.25" y1="733.5" x2="346" y2="733.5" stroke="#D3D3DB" stroke-width="10.8"/>
<line x1="351.4" y1="637.65" x2="351.4" y2="738.9" stroke="#D3D3DB" stroke-width="10.8"/>
<line x1="1473.25" y1="347.4" x2="1574.5" y2="347.4" stroke="#D3D3DB" stroke-width="10.8"/>
<line x1="1569.1" y1="443.25" x2="1569.1" y2="342" stroke="#D3D3DB" stroke-width="10.8"/>
<defs>
<filter id="filter0_d_963_2733" x="439.15" y="443.25" width="1055.17" height="237.6" filterUnits="userSpaceOnUse" color-interpolation-filters="sRGB">
<feFlood flood-opacity="0" result="BackgroundImageFix"/>
<feColorMatrix in="SourceAlpha" type="matrix" values="0 0 0 0 0 0 0 0 0 0 0 0 0 0 0 0 0 0 127 0" result="hardAlpha"/>
<feOffset dy="21.6"/>
<feGaussianBlur stdDeviation="10.8"/>
<feComposite in2="hardAlpha" operator="out"/>
<feColorMatrix type="matrix" values="0 0 0 0 0 0 0 0 0 0 0 0 0 0 0 0 0 0 0.25 0"/>
<feBlend mode="normal" in2="BackgroundImageFix" result="effect1_dropShadow_963_2733"/>
<feBlend mode="normal" in="SourceGraphic" in2="effect1_dropShadow_963_2733" result="shape"/>
</filter>
<linearGradient id="paint0_linear_963_2733" x1="622.345" y1="486.809" x2="540.266" y2="597.578" gradientUnits="userSpaceOnUse">
<stop stop-color="#84EC43"/>
<stop offset="1" stop-color="#6EC23A"/>
</linearGradient>
<linearGradient id="paint1_linear_963_2733" x1="622.349" y1="486.81" x2="540.27" y2="597.58" gradientUnits="userSpaceOnUse">
<stop stop-color="#84EC43"/>
<stop offset="1" stop-color="#6EC23A"/>
</linearGradient>
</defs>
</svg>
