<svg xmlns="http://www.w3.org/2000/svg" width="1920" height="1080" fill="none"><path fill="#E9EAF6" d="M0 0h1920v1080H0z"/><g filter="url(#a)"><path fill="#262626" d="M1445.72 443.25H487.75c-14.912 0-27 12.088-27 27v140.4c0 14.912 12.088 27 27 27h957.97c14.91 0 27-12.088 27-27v-140.4c0-14.912-12.09-27-27-27"/><path fill="url(#b)" d="M568.76 583.946c.44.762 1.319.997 2.194.686 16.908-.686 19.419-2.9 31.903 8.526.561.77 1.498.972 2.26.531s1.025-1.335.669-2.222c-2.929-16.635-2.929-18.27 8.57-31.899.706-.603.913-1.463.473-2.226-.44-.761-1.288-1.012-2.147-.673-19.637 2.899-19.637 2.899-31.903-8.526-.608-.782-1.515-1-2.276-.561-.763.44-1.056 1.352-.653 2.252 2.929 17.478 0 23.491-8.57 31.898-.723.575-.959 1.452-.52 2.214"/><path fill="url(#c)" fill-rule="evenodd" d="M628.544 492.297c8.448 9.816 8.884 24.846 4.19 36.141a6.786 6.786 0 1 1-12.533-5.211c3.299-7.936 2.285-17.161-1.943-22.074-1.948-2.263-4.807-3.942-9.121-4.22-4.487-.289-10.853.939-19.393 5.305-14.354 7.338-26.45 18.912-35.264 31.423-8.866 12.585-14.045 25.591-15.139 35.446-.549 4.941-.011 8.535 1.04 10.829.923 2.016 2.286 3.21 4.511 3.751 2.559.623 6.82.484 13.339-1.871 6.448-2.329 14.578-6.638 24.545-13.586a6.785 6.785 0 0 1 9.447 1.687 6.79 6.79 0 0 1-1.686 9.45c-10.562 7.363-19.767 12.353-27.696 15.217-7.858 2.838-15.016 3.787-21.154 2.295-6.471-1.573-11.082-5.694-13.645-11.288-2.435-5.316-2.896-11.628-2.19-17.983 1.413-12.735 7.752-27.881 17.533-41.766 9.833-13.957 23.513-27.17 40.183-35.692 9.915-5.07 18.753-7.259 26.44-6.764 7.86.505 14.146 3.81 18.536 8.911" clip-rule="evenodd"/><path fill="#fff" d="M689.723 524.248h6.943v6.943h-6.943zm0-6.943h6.943v6.943h-6.943zm6.943 0h6.943v6.943h-6.943zm0 6.943h6.943v6.943h-6.943zm0 6.943h6.943v6.943h-6.943zm0 6.943h6.943v6.943h-6.943zm0 6.943h6.943v6.943h-6.943zm-6.943 0h6.943v6.943h-6.943zm0-6.943h6.943v6.943h-6.943zm0-6.943h6.943v6.943h-6.943zm0 20.829h6.943v6.943h-6.943zm6.943 0h6.943v6.943h-6.943zm0 6.943h6.943v6.942h-6.943zm0 6.942h6.943v6.943h-6.943zm-6.943 0h6.943v6.943h-6.943zm0-6.942h6.943v6.942h-6.943zm27.771 6.942h6.943v6.943h-6.943zm6.943 0h6.943v6.943h-6.943zm0-6.942h6.943v6.942h-6.943zm0-6.943h6.943v6.943h-6.943zm0-6.943h6.943v6.943h-6.943zm0-6.943h6.943v6.943h-6.943zm0-6.943h6.943v6.943h-6.943zm0-6.943h6.943v6.943h-6.943zm-6.943 13.886h6.943v6.943h-6.943zm0 6.943h6.943v6.943h-6.943zm0 6.943h6.943v6.943h-6.943zm0 6.943h6.943v6.942h-6.943zm0-27.772h6.943v6.943h-6.943zm-13.885-6.943h6.943v6.943h-6.943zm6.943 0h6.942v6.943h-6.942zm6.942-6.943h6.943v6.943h-6.943zm0 6.943h6.943v6.943h-6.943zm-6.942-6.943h6.942v6.943h-6.942zm34.714 48.6h6.943v6.943h-6.943zm6.943 0h6.943v6.943h-6.943zm0-6.942h6.943v6.942h-6.943zm0-6.943h6.943v6.943h-6.943zm0-6.943h6.943v6.943h-6.943zm0-6.943h6.943v6.943h-6.943zm0-6.943h6.943v6.943h-6.943zm0-6.943h6.943v6.943h-6.943zm-6.943 13.886h6.943v6.943h-6.943zm0 6.943h6.943v6.943h-6.943zm0 6.943h6.943v6.943h-6.943zm0 6.943h6.943v6.942h-6.943zm0-27.772h6.943v6.943h-6.943zm-13.886-6.943h6.943v6.943h-6.943zm6.943 0h6.943v6.943h-6.943zm6.943-6.943h6.943v6.943h-6.943zm0 6.943h6.943v6.943h-6.943zm-6.943-6.943h6.943v6.943h-6.943zm27.717-13.885h6.943v6.943h-6.943zm6.943 0h6.943v6.943h-6.943zm0 6.943h6.943v6.942h-6.943zm0 6.942h6.943v6.943h-6.943zm0 6.943h6.943v6.943h-6.943zm0 6.943h6.943v6.943h-6.943zm0 6.943h6.943v6.943h-6.943zm-6.943 0h6.943v6.943h-6.943zm0 6.943h6.943v6.943h-6.943zm0 6.943h6.943v6.943h-6.943zm0 6.943h6.943v6.942h-6.943zm0 6.942h6.943v6.943h-6.943zm6.943 0h6.943v6.943h-6.943zm0-6.942h6.943v6.942h-6.943zm0-6.943h6.943v6.943h-6.943zm0-6.943h6.943v6.943h-6.943zm-6.943-13.886h6.943v6.943h-6.943zm0-6.943h6.943v6.943h-6.943zm0-6.943h6.943v6.943h-6.943zm0-6.942h6.943v6.942h-6.943zm20.883 13.885h6.943v6.943h-6.943zm0-6.943h6.943v6.943h-6.943zm6.943 0h6.943v6.943h-6.943zm0 6.943h6.943v6.943h-6.943zm0 6.943h6.943v6.943h-6.943zm0 6.943h6.943v6.943h-6.943zm0 6.943h6.943v6.943h-6.943zm-6.943 0h6.943v6.943h-6.943zm0-6.943h6.943v6.943h-6.943zm0-6.943h6.943v6.943h-6.943zm0 20.829h6.943v6.943h-6.943zm6.943 0h6.943v6.943h-6.943zm0 6.943h6.943v6.942h-6.943zm0 6.942h6.943v6.943h-6.943zm-6.943 0h6.943v6.943h-6.943zm0-6.942h6.943v6.942h-6.943zm34.714 6.942h6.943v6.943h-6.943zm6.943-6.942h6.943v6.942h-6.943zm0-6.943h6.943v6.943h-6.943zm0-6.943h6.943v6.943h-6.943zm0-6.943h6.943v6.943h-6.943zm0-6.943h6.943v6.943h-6.943zm0-6.943h6.943v6.943h-6.943zm-6.943 13.886h6.943v6.943h-6.943zm0 6.943h6.943v6.943h-6.943zm0 6.943h6.943v6.943h-6.943zm0 6.943h6.943v6.942h-6.943zm0-27.772h6.943v6.943h-6.943zm-20.828-6.943h6.943v6.943h-6.943zm6.943 0h6.942v6.943h-6.942zm6.942 0h6.943v6.943h-6.943zm0-6.943h6.943v6.943h-6.943zm6.943 0h6.943v6.943h-6.943zm0 6.943h6.943v6.943h-6.943zm-13.885-6.943h6.942v6.943h-6.942zm-20.829-13.885h6.943v6.943h-6.943zm6.943 0h6.943v6.943h-6.943zm0 6.943h6.943v6.942h-6.943zm-6.943 0h6.943v6.942h-6.943zm13.886 55.542h6.943v6.943h-6.943zm6.943 0h6.942v6.943h-6.942zm6.942 0h6.943v6.943h-6.943zm0-6.942h6.943v6.942h-6.943zm-6.942 0h6.942v6.942h-6.942zm-6.943 0h6.943v6.942h-6.943zm41.675-41.658h6.943v6.943h-6.943zm6.943 0h6.942v6.943h-6.942zm0 6.943h6.942v6.943h-6.942zm0 6.943h6.942v6.943h-6.942zm0 6.943h6.942v6.943h-6.942zm0 6.943h6.942v6.943h-6.942zm-6.943 0h6.943v6.943h-6.943zm0-6.943h6.943v6.943h-6.943zm0-6.943h6.943v6.943h-6.943zm0-6.943h6.943v6.943h-6.943zm6.943 27.772h6.942v6.943h-6.942zm6.942 0h6.943v6.943h-6.943zm0 6.943h6.943v6.942h-6.943zm6.943 0h6.943v6.942h-6.943zm0 6.942h6.943v6.943h-6.943zm6.943-6.942h6.943v6.942h-6.943zm0-6.943h6.943v6.943h-6.943zm6.943 0h6.943v6.943h-6.943zm0-6.943h6.943v6.943h-6.943zm0-6.943h6.943v6.943h-6.943zm0-6.943h6.943v6.943h-6.943zm0-6.943h6.943v6.943h-6.943zm0-6.943h6.943v6.943h-6.943zm6.943 20.829h6.943v6.943h-6.943zm0 6.943h6.943v6.943h-6.943zm0-13.886h6.943v6.943h-6.943zm0-6.943h6.943v6.943h-6.943zm0-6.943h6.943v6.943h-6.943zm-20.829 34.715h6.943v6.943h-6.943zm-6.943-6.943h6.943v6.943h-6.943zm13.886 0h6.943v6.943h-6.943zm66.43-41.657h6.943v6.943h-6.943zm0 6.943h6.943v6.942h-6.943zm-6.943 0h6.943v6.942h-6.943zm0-6.943h6.943v6.943h-6.943zm6.943 13.885h6.943v6.943h-6.943zm-6.943 0h6.943v6.943h-6.943zm0 6.943h6.943v6.943h-6.943zm0 6.943h6.943v6.943h-6.943zm0 6.943h6.943v6.943h-6.943zm-6.942 0h6.942v6.943H922.8zm0-6.943h6.942v6.943H922.8zm0-6.943h6.942v6.943H922.8zm0 20.829h6.942v6.943H922.8zm0 6.943h6.942v6.943H922.8zm0 6.943h6.942v6.942H922.8zm-6.943 0h6.943v6.942h-6.943zm0-6.943h6.943v6.943h-6.943zm0-6.943h6.943v6.943h-6.943zm0 20.828h6.943v6.943h-6.943zm0 6.943h6.943v6.943h-6.943zm0 6.943h6.943v6.943h-6.943zm-6.943 0h6.943v6.943h-6.943zm0-6.943h6.943v6.943h-6.943zm0-6.943h6.943v6.943h-6.943zm57.692-41.657h6.943v6.943h-6.943zm0-6.943h6.943v6.943h-6.943zm6.943 0h6.94v6.943h-6.94zm0 6.943h6.94v6.943h-6.94zm0 6.943h6.94v6.943h-6.94zm0 6.943h6.94v6.943h-6.94zm0 6.943h6.94v6.943h-6.94zm-6.943 0h6.943v6.943h-6.943zm0-6.943h6.943v6.943h-6.943zm0-6.943h6.943v6.943h-6.943zm0 20.829h6.943v6.943h-6.943zm6.943 0h6.94v6.943h-6.94zm0 6.943h6.94v6.942h-6.94zm0 6.942h6.94v6.943h-6.94zm-6.943 0h6.943v6.943h-6.943zm0-6.942h6.943v6.942h-6.943zm27.772 6.942h6.942v6.943h-6.942zm6.942 0h6.94v6.943h-6.94zm0-6.942h6.94v6.942h-6.94zm0-6.943h6.94v6.943h-6.94zm0-6.943h6.94v6.943h-6.94zm0-6.943h6.94v6.943h-6.94zm0-6.943h6.94v6.943h-6.94zm0-6.943h6.94v6.943h-6.94zm-6.942 13.886h6.942v6.943h-6.942zm0 6.943h6.942v6.943h-6.942zm0 6.943h6.942v6.943h-6.942zm0 6.943h6.942v6.942h-6.942zm0-27.772h6.942v6.943h-6.942zm-13.889-6.943h6.945v6.943h-6.945zm6.945 0h6.944v6.943h-6.944zm6.944-6.943h6.942v6.943h-6.942zm0 6.943h6.942v6.943h-6.942zm-6.944-6.943h6.944v6.943h-6.944zm34.716 48.6h6.94v6.943h-6.94zm6.94 0h6.94v6.943h-6.94zm0-6.942h6.94v6.942h-6.94zm0-6.943h6.94v6.943h-6.94zm0-6.943h6.94v6.943h-6.94zm0-6.943h6.94v6.943h-6.94zm0-6.943h6.94v6.943h-6.94zm0-6.943h6.94v6.943h-6.94zm-6.94 13.886h6.94v6.943h-6.94zm0 6.943h6.94v6.943h-6.94zm0 6.943h6.94v6.943h-6.94zm0 6.943h6.94v6.942h-6.94zm0-27.772h6.94v6.943h-6.94zm-13.89-6.943h6.95v6.943h-6.95zm6.95 0h6.94v6.943h-6.94zm6.94-6.943h6.94v6.943h-6.94zm0 6.943h6.94v6.943h-6.94zm-6.94-6.943h6.94v6.943h-6.94zm41.6 0h6.94v6.943h-6.94zm-6.94 0h6.94v6.943h-6.94zm0 6.943h6.94v6.943h-6.94zm6.94 0h6.94v6.943h-6.94zm6.94-6.943h6.95v6.943h-6.95zm6.95 0h6.94v6.943h-6.94zm6.94 0h6.94v6.943h-6.94zm0 6.943h6.94v6.943h-6.94zm-6.94 0h6.94v6.943h-6.94zm6.94 13.886h6.94v6.943h-6.94zm6.94-13.886h6.94v6.943h-6.94zm0 6.943h6.94v6.943h-6.94zm0 6.943h6.94v6.943h-6.94zm0 6.943h6.94v6.943h-6.94zm0 6.943h6.94v6.943h-6.94zm0 6.943h6.94v6.942h-6.94zm-6.94 0h6.94v6.942h-6.94zm0-6.943h6.94v6.943h-6.94zm0-6.943h6.94v6.943h-6.94zm0-13.886h6.94v6.943h-6.94zm-6.94 27.772h6.94v6.942h-6.94zm6.94 6.942h6.94v6.943h-6.94zm-6.94 0h6.94v6.943h-6.94zm-6.95 0h6.95v6.943h-6.95zm-6.94 0h6.94v6.943h-6.94zm-6.94 0h6.94v6.943h-6.94zm0-6.942h6.94v6.942h-6.94zm6.94 0h6.94v6.942h-6.94zm-6.94-6.943h6.94v6.943h-6.94zm-6.95 6.943h6.95v6.942h-6.95zm0-6.943h6.95v6.943h-6.95zm0-6.943h6.95v6.943h-6.95zm0-6.943h6.95v6.943h-6.95zm0-6.943h6.95v6.943h-6.95zm0-6.943h6.95v6.943h-6.95zm6.95 6.943h6.94v6.943h-6.94zm0 6.943h6.94v6.943h-6.94zm0 6.943h6.94v6.943h-6.94zm13.88 13.886h6.95v6.942h-6.95zm0-34.715h6.95v6.943h-6.95zm62.51 34.715h6.94v6.942h-6.94zm0 6.942h6.94v6.943h-6.94zm-6.95 0h6.95v6.943h-6.95zm0-6.942h6.95v6.942h-6.95zm-6.94 6.942h6.94v6.943h-6.94zm0-6.942h6.94v6.942h-6.94zm-6.94 0h6.94v6.942h-6.94zm0-6.943h6.94v6.943h-6.94zm0-6.943h6.94v6.943h-6.94zm0-6.943h6.94v6.943h-6.94zm0-6.943h6.94v6.943h-6.94zm0-6.943h6.94v6.943h-6.94zm6.94 20.829h6.94v6.943h-6.94zm0 6.943h6.94v6.943h-6.94zm0-13.886h6.94v6.943h-6.94zm0-6.943h6.94v6.943h-6.94zm0-27.771h6.94v6.943h-6.94zm0 6.943h6.94v6.942h-6.94zm0 6.942h6.94v6.943h-6.94zm0 6.943h6.94v6.943h-6.94zm-6.94-6.943h6.94v6.943h-6.94zm-6.95 6.943h6.95v6.943h-6.95zm20.83 0h6.95v6.943h-6.95zm6.95 0h6.94v6.943h-6.94zm-20.83-13.885h6.94v6.942h-6.94zm-6.95 20.828h6.95v6.943h-6.95zm20.83 0h6.95v6.943h-6.95zm6.95 0h6.94v6.943h-6.94zm13.86-27.771h13.89v13.885h-13.89zm0 20.828h13.89v48.6h-13.89zm34.77-6.943h6.94v6.943h-6.94zm-6.94 0h6.94v6.943h-6.94zm0 6.943h6.94v6.943h-6.94zm6.94 0h6.94v6.943h-6.94zm6.94-6.943h6.95v6.943h-6.95zm6.95 0h6.94v6.943h-6.94zm6.94 0h6.94v6.943h-6.94zm0 6.943h6.94v6.943h-6.94zm-6.94 0h6.94v6.943h-6.94zm6.94 13.886h6.94v6.943h-6.94zm6.94-13.886h6.95v6.943h-6.95zm0 6.943h6.95v6.943h-6.95zm0 6.943h6.95v6.943h-6.95zm0 6.943h6.95v6.943h-6.95zm0 6.943h6.95v6.943h-6.95zm0 6.943h6.95v6.942h-6.95zm-6.94 0h6.94v6.942h-6.94zm0-6.943h6.94v6.943h-6.94zm0-6.943h6.94v6.943h-6.94zm0-13.886h6.94v6.943h-6.94zm-6.94 27.772h6.94v6.942h-6.94zm6.94 6.942h6.94v6.943h-6.94zm-6.94 0h6.94v6.943h-6.94zm-6.95 0h6.95v6.943h-6.95zm-6.94 0h6.94v6.943h-6.94zm-6.94 0h6.94v6.943h-6.94zm0-6.942h6.94v6.942h-6.94zm6.94 0h6.94v6.942h-6.94zm-6.94-6.943h6.94v6.943h-6.94zm-6.94 6.943h6.94v6.942h-6.94zm0-6.943h6.94v6.943h-6.94zm0-6.943h6.94v6.943h-6.94zm0-6.943h6.94v6.943h-6.94zm0-6.943h6.94v6.943h-6.94zm0-6.943h6.94v6.943h-6.94zm6.94 6.943h6.94v6.943h-6.94zm0 6.943h6.94v6.943h-6.94zm0 6.943h6.94v6.943h-6.94zm13.88 13.886h6.95v6.942h-6.95zm0-34.715h6.95v6.943h-6.95zm34.74 0h6.94v6.943h-6.94zm0-6.943h6.94v6.943h-6.94zm6.94 0h6.95v6.943h-6.95zm0 6.943h6.95v6.943h-6.95zm0 6.943h6.95v6.943h-6.95zm0 6.943h6.95v6.943h-6.95zm0 6.943h6.95v6.943h-6.95zm-6.94 0h6.94v6.943h-6.94zm0-6.943h6.94v6.943h-6.94zm0-6.943h6.94v6.943h-6.94zm0 20.829h6.94v6.943h-6.94zm6.94 0h6.95v6.943h-6.95zm0 6.943h6.95v6.942h-6.95zm0 6.942h6.95v6.943h-6.95zm-6.94 0h6.94v6.943h-6.94zm0-6.942h6.94v6.942h-6.94zm34.71 6.942h6.94v6.943h-6.94zm6.94 0h6.95v6.943h-6.95zm0-6.942h6.95v6.942h-6.95zm0-6.943h6.95v6.943h-6.95zm0-6.943h6.95v6.943h-6.95zm0-6.943h6.95v6.943h-6.95zm0-6.943h6.95v6.943h-6.95zm0-6.943h6.95v6.943h-6.95zm-6.94 13.886h6.94v6.943h-6.94zm0 6.943h6.94v6.943h-6.94zm0 6.943h6.94v6.943h-6.94zm0 6.943h6.94v6.942h-6.94zm0-27.772h6.94v6.943h-6.94zm-20.82-6.943h6.93v6.943h-6.93zm6.93 0h6.95v6.943h-6.95zm6.95 0h6.94v6.943h-6.94zm0-6.943h6.94v6.943h-6.94zm6.94 0h6.94v6.943h-6.94zm0 6.943h6.94v6.943h-6.94zm-13.89-6.943h6.95v6.943h-6.95zm34.74-13.885h6.94v6.943h-6.94zm6.94 0h6.95v6.943h-6.95zm0 6.943h6.95v6.942h-6.95zm0 6.942h6.95v6.943h-6.95zm0 6.943h6.95v6.943h-6.95zm0 6.943h6.95v6.943h-6.95zm0 6.943h6.95v6.943h-6.95zm-6.94 0h6.94v6.943h-6.94zm0 6.943h6.94v6.943h-6.94zm0 6.943h6.94v6.943h-6.94zm0 6.943h6.94v6.942h-6.94zm0 6.942h6.94v6.943h-6.94zm6.94 0h6.95v6.943h-6.95zm0-6.942h6.95v6.942h-6.95zm0-6.943h6.95v6.943h-6.95zm0-6.943h6.95v6.943h-6.95zm-6.94-13.886h6.94v6.943h-6.94zm0-6.943h6.94v6.943h-6.94zm0-6.943h6.94v6.943h-6.94zm0-6.942h6.94v6.942h-6.94zm62.54 62.485h-6.94v-6.943h6.94zm0-6.943h-6.94v-6.942h6.94zm-6.94 0h-6.95v-6.942h6.95zm-6.95 6.943h-6.94v-6.943h6.94zm-6.94 0h-6.94v-6.943h6.94zm-6.94 0h-6.95v-6.943h6.95zm0-6.943h-6.95v-6.942h6.95zm6.94 0h-6.94v-6.942h6.94zm-13.89 0h-6.94v-6.942h6.94zm0-6.942h-6.94v-6.943h6.94zm0-27.772h-6.94v-6.943h6.94zm6.95 0h-6.95v-6.943h6.95zm0 27.772h-6.95v-6.943h6.95zm6.94-27.772h-6.94v-6.943h6.94zm-6.94-6.943h-6.95v-6.943h6.95zm6.94 0h-6.94v-6.943h6.94zm6.94 0h-6.94v-6.943h6.94zm6.95 0h-6.95v-6.943h6.95zm6.94 0h-6.94v-6.943h6.94zm0 6.943h-6.94v-6.943h6.94zm-6.94 0h-6.95v-6.943h6.95zm6.94 6.943h-6.94v-6.943h6.94zm6.94-6.943h-6.94v-6.943h6.94zm0 6.943h-6.94v-6.943h6.94zm0 6.943h-6.94v-6.943h6.94zm0 6.943h-6.94v-6.943h6.94zm0 6.943h-6.94v-6.943h6.94zm0 6.942h-6.94v-6.942h6.94zm-6.94-6.942h-6.94v-6.943h6.94zm0-6.943h-6.94v-6.943h6.94zm0-6.943h-6.94v-6.943h6.94zm-13.89-13.886h-6.94v-6.943h6.94zm0 34.714h-6.94v-6.942h6.94zm13.89 0h6.94v6.943h-6.94zm-13.89-27.771h6.95v6.943h-6.95zm-6.94 0h6.94v6.943h-6.94zm-6.94 0h6.94v6.943h-6.94zm-6.95 0h6.95v6.943h-6.95zm-6.94 6.943h6.94v6.943h-6.94zm6.94 0h6.95v6.943h-6.95zm20.83 0h6.95v6.943h-6.95zm-6.94 0h6.94v6.943h-6.94zm-6.94 0h6.94v6.943h-6.94zm41.67-20.829h6.94v6.943h-6.94zm0-6.943h6.94v6.943h-6.94zm6.94 0h6.95v6.943h-6.95zm0 6.943h6.95v6.943h-6.95zm0 6.943h6.95v6.943h-6.95zm0 6.943h6.95v6.943h-6.95zm0 6.943h6.95v6.943h-6.95zm-6.94 0h6.94v6.943h-6.94zm0-6.943h6.94v6.943h-6.94zm0-6.943h6.94v6.943h-6.94zm0 20.829h6.94v6.943h-6.94zm6.94 0h6.95v6.943h-6.95zm0 6.943h6.95v6.942h-6.95zm0 6.942h6.95v6.943h-6.95zm-6.94 0h6.94v6.943h-6.94zm0-6.942h6.94v6.942h-6.94zm34.72 6.942h6.94v6.943h-6.94zm6.94-6.942h6.94v6.942h-6.94zm0-6.943h6.94v6.943h-6.94zm0-6.943h6.94v6.943h-6.94zm0-6.943h6.94v6.943h-6.94zm0-6.943h6.94v6.943h-6.94zm0-6.943h6.94v6.943h-6.94zm-6.94 13.886h6.94v6.943h-6.94zm0 6.943h6.94v6.943h-6.94zm0 6.943h6.94v6.943h-6.94zm0 6.943h6.94v6.942h-6.94zm0-27.772h6.94v6.943h-6.94zm-20.83-6.943h6.94v6.943h-6.94zm6.94 0h6.94v6.943h-6.94zm6.94 0h6.95v6.943h-6.95zm0-6.943h6.95v6.943h-6.95zm6.95 0h6.94v6.943h-6.94zm0 6.943h6.94v6.943h-6.94zm-13.89-6.943h6.94v6.943h-6.94zm-20.83-13.885h6.94v6.943h-6.94zm6.94 0h6.95v6.943h-6.95zm0 6.943h6.95v6.942h-6.95zm-6.94 0h6.94v6.942h-6.94zm13.89 55.542h6.94v6.943h-6.94zm6.94 0h6.94v6.943h-6.94zm6.94 0h6.95v6.943h-6.95zm0-6.942h6.95v6.942h-6.95zm-6.94 0h6.94v6.942h-6.94zm-6.94 0h6.94v6.942h-6.94z"/><path fill="#E4E4E4" d="M1446.25 475.65c4.47 0 8.1-3.627 8.1-8.1 0-4.474-3.63-8.1-8.1-8.1-4.48 0-8.1 3.626-8.1 8.1 0 4.473 3.62 8.1 8.1 8.1M485.049 475.65a8.1 8.1 0 1 0 0-16.2 8.1 8.1 0 0 0 0 16.2M1446.25 621.45c4.47 0 8.1-3.626 8.1-8.1s-3.63-8.1-8.1-8.1c-4.48 0-8.1 3.626-8.1 8.1s3.62 8.1 8.1 8.1M485.049 621.45a8.1 8.1 0 0 0 8.1-8.1 8.1 8.1 0 1 0-8.1 8.1"/></g><path stroke="#D3D3DB" stroke-width="10.8" d="M1569.1 637.65V738.9M1473.25 733.5h101.25M351.401 443.25V342M447.25 347.4H346M447.25 733.5H346M351.4 637.65V738.9M1473.25 347.4h101.25M1569.1 443.25V342"/><defs><linearGradient id="b" x1="622.345" x2="540.266" y1="486.809" y2="597.578" gradientUnits="userSpaceOnUse"><stop stop-color="#84EC43"/><stop offset="1" stop-color="#6EC23A"/></linearGradient><linearGradient id="c" x1="622.349" x2="540.27" y1="486.81" y2="597.58" gradientUnits="userSpaceOnUse"><stop stop-color="#84EC43"/><stop offset="1" stop-color="#6EC23A"/></linearGradient><filter id="a" width="1055.17" height="237.6" x="439.15" y="443.25" color-interpolation-filters="sRGB" filterUnits="userSpaceOnUse"><feFlood flood-opacity="0" result="BackgroundImageFix"/><feColorMatrix in="SourceAlpha" result="hardAlpha" values="0 0 0 0 0 0 0 0 0 0 0 0 0 0 0 0 0 0 127 0"/><feOffset dy="21.6"/><feGaussianBlur stdDeviation="10.8"/><feComposite in2="hardAlpha" operator="out"/><feColorMatrix values="0 0 0 0 0 0 0 0 0 0 0 0 0 0 0 0 0 0 0.25 0"/><feBlend in2="BackgroundImageFix" result="effect1_dropShadow_963_2733"/><feBlend in="SourceGraphic" in2="effect1_dropShadow_963_2733" result="shape"/></filter></defs></svg>