<svg xmlns="http://www.w3.org/2000/svg" width="145" height="145" fill="none"><rect width="145" height="145" fill="#262626" rx="10"/><path fill="#E4E4E4" d="M131 20a6 6 0 1 0 0-12 6 6 0 0 0 0 12M131 137a6 6 0 1 0 0-12 6 6 0 0 0 0 12M14 20a6 6 0 1 0 0-12 6 6 0 0 0 0 12M14 137a6 6 0 1 0 0-12 6 6 0 0 0 0 12"/><path fill="url(#a)" d="M64.007 104.539c.326.565.977.739 1.626.509 12.524-.509 14.384-2.148 23.632 6.315.415.57 1.109.72 1.673.394s.76-.989.496-1.646c-2.17-12.322-2.17-13.534 6.348-23.629.523-.447.676-1.084.35-1.649-.325-.564-.954-.75-1.59-.499-14.546 2.148-14.546 2.148-23.632-6.315-.45-.58-1.122-.741-1.686-.416-.565.326-.782 1.002-.483 1.668 2.17 12.947 0 17.401-6.348 23.629-.536.425-.71 1.075-.386 1.639"/><path fill="url(#b)" fill-rule="evenodd" d="M108.291 36.651c6.258 7.271 6.581 18.405 3.104 26.772a5.026 5.026 0 1 1-9.283-3.86c2.443-5.879 1.692-12.712-1.44-16.351-1.443-1.677-3.56-2.92-6.756-3.126-3.324-.214-8.04.695-14.365 3.929-10.633 5.436-19.593 14.009-26.122 23.277-6.567 9.322-10.404 18.956-11.214 26.256-.407 3.66-.008 6.322.77 8.021.684 1.494 1.694 2.378 3.342 2.779 1.895.461 5.052.358 9.88-1.386 4.777-1.725 10.799-4.917 18.182-10.064a5.029 5.029 0 0 1 5.749 8.25c-7.824 5.454-14.642 9.15-20.516 11.272-5.82 2.102-11.123 2.805-15.67 1.699-4.793-1.165-8.208-4.217-10.107-8.361-1.803-3.938-2.145-8.614-1.622-13.32C33.27 83.004 37.965 71.784 45.21 61.5c7.283-10.34 17.417-20.126 29.765-26.44 7.344-3.754 13.89-5.376 19.585-5.01 5.822.375 10.478 2.823 13.73 6.601" clip-rule="evenodd"/><defs><linearGradient id="a" x1="103.7" x2="42.901" y1="32.586" y2="114.637" gradientUnits="userSpaceOnUse"><stop stop-color="#84EC43"/><stop offset="1" stop-color="#6EC23A"/></linearGradient><linearGradient id="b" x1="103.702" x2="42.903" y1="32.587" y2="114.639" gradientUnits="userSpaceOnUse"><stop stop-color="#84EC43"/><stop offset="1" stop-color="#6EC23A"/></linearGradient></defs></svg>