<?xml version="1.0" encoding="utf-8"?>
<!-- Generator: Adobe Illustrator 27.4.0, SVG Export Plug-In . SVG Version: 6.00 Build 0)  -->
<svg version="1.1" id="Calque_1" xmlns="http://www.w3.org/2000/svg" xmlns:xlink="http://www.w3.org/1999/xlink" x="0px" y="0px"
	 viewBox="0 0 22 21" style="enable-background:new 0 0 22 21;" xml:space="preserve">
<style type="text/css">
	.st0{fill:#6D7274;}
</style>
<path class="st0" d="M19,0H3C1.3,0,0,1.3,0,3v15c0,1.7,1.3,3,3,3h16c1.7,0,3-1.3,3-3V3C22,1.3,20.7,0,19,0z M10,16c0,1.7-1.3,3-3,3
	H5c-1.7,0-3-1.3-3-3V6c0-1.7,1.3-3,3-3h2c1.7,0,3,1.3,3,3V16z"/>
</svg>
