<svg xmlns="http://www.w3.org/2000/svg" width="18.53" height="18.53" viewBox="0 0 18.53 18.53">
  <path id="home" d="M114.53,103.843a.711.711,0,0,0-.256-.548l-8.552-7.127,0,0-.023-.018-.005,0-.024-.017-.006,0-.023-.015-.008,0-.021-.012-.011-.006-.017-.009-.015-.007-.014-.006-.019-.008-.01,0-.023-.008-.007,0-.026-.008h-.005l-.028-.007h0l-.029-.006h-.005l-.028,0h-.007l-.026,0h-.1l-.025,0H105.2l-.028,0h0l-.03,0h0l-.031.007h0l-.03.008h0l-.027.009-.006,0-.024.009-.009,0-.02.009-.013.006-.016.008-.017.009-.012.006-.02.012-.008,0-.023.015-.006,0-.024.017,0,0-.023.018,0,0L96.256,103.3a.711.711,0,0,0-.256.548h0v8.552a2.14,2.14,0,0,0,2.138,2.138h4.276a.713.713,0,0,0,.713-.713v-4.276a2.138,2.138,0,1,1,4.276,0v4.276a.713.713,0,0,0,.713.713h4.276a2.14,2.14,0,0,0,2.138-2.138v-8.552Z" transform="translate(-96 -96.003)" fill="#8bd2fe"/>
</svg>
