<svg width="47" height="48" viewBox="0 0 47 48" fill="none" xmlns="http://www.w3.org/2000/svg">
<path d="M18.1167 42.1782C18.3012 42.4977 18.6694 42.5959 19.0364 42.4658C26.1249 42.1782 27.1774 41.2504 32.4114 46.0394C32.6465 46.3619 33.0392 46.4467 33.3587 46.2622C33.6783 46.0777 33.7885 45.7026 33.6394 45.3305C32.4115 38.3582 32.4115 37.673 37.232 31.9606C37.5282 31.7078 37.6147 31.3471 37.4302 31.0275C37.246 30.7085 36.8904 30.603 36.5303 30.7452C28.2978 31.9606 28.2978 31.9606 23.1553 27.1716C22.9004 26.8438 22.5201 26.7525 22.2011 26.9367C21.8816 27.1212 21.7584 27.5031 21.9274 27.8805C23.1553 35.2062 21.9274 37.7265 18.3347 41.2504C18.0316 41.4911 17.9325 41.8591 18.1167 42.1782Z" fill="#ACA2F9"/>
<path fill-rule="evenodd" clip-rule="evenodd" d="M43.1784 3.76359C46.7201 7.87799 46.9031 14.1778 44.9352 18.912C44.3321 20.3629 42.667 21.0501 41.2161 20.447C39.7652 19.8439 39.078 18.1788 39.6811 16.728C41.0639 13.4014 40.6388 9.53497 38.8661 7.47569C38.0494 6.52688 36.8509 5.82316 35.0423 5.70681C33.1612 5.58581 30.4925 6.10026 26.9124 7.93017C20.8944 11.0061 15.8234 15.857 12.128 21.1013C8.41133 26.3759 6.23987 31.8272 5.7812 35.9579C5.55121 38.0293 5.77667 39.5354 6.21723 40.4969C6.60441 41.3419 7.17576 41.8425 8.10861 42.0692C9.18139 42.3299 10.9677 42.2718 13.7008 41.2848C16.4039 40.3087 19.8124 38.5027 23.9908 35.5905C25.2799 34.6921 27.0532 35.0087 27.9516 36.2978C28.85 37.5868 28.5333 39.3601 27.2443 40.2585C22.8167 43.3444 18.9577 45.4361 15.6334 46.6366C12.3391 47.8262 9.33802 48.2236 6.7649 47.5982C4.05184 46.9389 2.11877 45.2118 1.04442 42.8671C0.0234566 40.6389 -0.169708 37.9931 0.125999 35.33C0.718747 29.9917 3.37602 23.6435 7.47681 17.8238C11.599 11.9738 17.3343 6.43569 24.3227 2.86367C28.4798 0.738886 32.1848 -0.178724 35.4075 0.0285909C38.7027 0.240568 41.338 1.62556 43.1784 3.76359Z" fill="#ACA2F9"/>
</svg>
