<svg width="57" height="59" viewBox="0 0 57 59" fill="none" xmlns="http://www.w3.org/2000/svg">
<rect width="57" height="58.3652" rx="10" fill="#343434"/>
<path d="M24.5129 43.788C24.6607 44.044 24.9557 44.1226 25.2496 44.0184C30.9281 43.788 31.7712 43.0448 35.9641 46.8811C36.1524 47.1395 36.4669 47.2074 36.7229 47.0596C36.9789 46.9118 37.0672 46.6113 36.9477 46.3132C35.9641 40.7279 35.9641 40.179 39.8257 35.6029C40.063 35.4004 40.1323 35.1114 39.9845 34.8554C39.8369 34.5999 39.552 34.5154 39.2636 34.6293C32.6688 35.6029 32.6688 35.6029 28.5492 31.7665C28.345 31.5039 28.0404 31.4308 27.7848 31.5784C27.5288 31.7262 27.4302 32.0321 27.5655 32.3344C28.5492 38.2029 27.5655 40.2218 24.6876 43.0448C24.4447 43.2376 24.3653 43.5324 24.5129 43.788Z" fill="#ACA2F9"/>
<path fill-rule="evenodd" clip-rule="evenodd" d="M44.5892 13.0149C47.4264 16.3109 47.573 21.3575 45.9966 25.15C45.5134 26.3122 44.1796 26.8628 43.0173 26.3797C41.855 25.8965 41.3045 24.5627 41.7876 23.4004C42.8953 20.7356 42.5548 17.6382 41.1348 15.9886C40.4805 15.2285 39.5204 14.6648 38.0716 14.5716C36.5647 14.4747 34.4269 14.8868 31.5589 16.3527C26.738 18.8168 22.6758 22.7027 19.7155 26.9038C16.7381 31.1291 14.9986 35.4961 14.6312 38.8051C14.4469 40.4644 14.6276 41.6709 14.9805 42.4412C15.2906 43.1181 15.7483 43.5191 16.4956 43.7007C17.355 43.9095 18.786 43.863 20.9754 43.0724C23.1408 42.2904 25.8713 40.8437 29.2185 38.5107C30.2511 37.791 31.6717 38.0447 32.3914 39.0773C33.1111 40.1099 32.8574 41.5305 31.8248 42.2502C28.2779 44.7223 25.1866 46.3978 22.5235 47.3595C19.8845 48.3125 17.4805 48.6308 15.4192 48.1299C13.2458 47.6017 11.6973 46.2182 10.8367 44.3398C10.0188 42.5549 9.86405 40.4354 10.1009 38.3021C10.5758 34.0257 12.7045 28.9403 15.9895 24.2783C19.2917 19.592 23.8861 15.1555 29.4844 12.294C32.8145 10.5919 35.7826 9.85683 38.3642 10.0229C41.0039 10.1927 43.1149 11.3022 44.5892 13.0149Z" fill="#ACA2F9"/>
</svg>
