<svg xmlns="http://www.w3.org/2000/svg" width="1920" height="1080" fill="none"><g clip-path="url(#a)"><path fill="#1E3536" d="M0 0h1920v1080H0z"/><path stroke="#5CCED3" stroke-linecap="round" stroke-linejoin="round" stroke-width="12.32" d="M994.391 190.694h6.159c4.9 0 9.6 1.947 13.07 5.412a18.5 18.5 0 0 1 5.41 13.068 18.5 18.5 0 0 1-5.41 13.067 18.5 18.5 0 0 1-13.07 5.413h-6.159M945.109 196.854v36.96M969.742 196.854v36.96M975.902 169.133c-6.16 0-8.871 3.08-18.481 3.08-9.609 0-12.32-3.08-18.48-3.08s-10.595 3.08-15.4 3.08a15.397 15.397 0 0 1-15.4-15.4 15.4 15.4 0 0 1 15.4-15.4c4.805 0 9.671 3.08 15.4 3.08s8.871-9.241 18.48-9.241 12.321 9.241 18.481 9.241 10.595-3.08 15.4-3.08c4.084 0 8.002 1.622 10.888 4.51a15.4 15.4 0 0 1 4.51 10.89 15.4 15.4 0 0 1-4.51 10.889 15.4 15.4 0 0 1-10.888 4.511c-4.805 0-9.24-3.08-15.4-3.08M920.469 172.214v73.921a12.323 12.323 0 0 0 12.32 12.32h49.281c3.267 0 6.401-1.298 8.712-3.608a12.32 12.32 0 0 0 3.608-8.712v-73.921M846.84 363.986H853a18.481 18.481 0 0 1 13.068 31.548A18.49 18.49 0 0 1 853 400.946h-6.16M797.547 370.146v36.96M822.199 370.146v36.96M828.359 342.425c-6.16 0-8.871 3.08-18.481 3.08-9.609 0-12.32-3.08-18.48-3.08s-10.595 3.08-15.4 3.08a15.401 15.401 0 0 1-10.89-26.29 15.4 15.4 0 0 1 10.89-4.51c4.805 0 9.671 3.08 15.4 3.08s8.871-9.24 18.48-9.24 12.321 9.24 18.481 9.24 10.595-3.08 15.4-3.08a15.401 15.401 0 0 1 10.89 26.29 15.4 15.4 0 0 1-10.89 4.51c-4.805 0-9.24-3.08-15.4-3.08M772.914 345.506v73.921c0 3.268 1.298 6.402 3.609 8.712a12.32 12.32 0 0 0 8.711 3.609h49.281a12.32 12.32 0 0 0 12.32-12.321v-73.921M551.176 190.694h6.16a18.48 18.48 0 1 1 0 36.96h-6.16M501.902 196.854v36.96M526.551 196.854v36.96M532.703 169.133c-6.161 0-8.871 3.08-18.481 3.08s-12.32-3.08-18.48-3.08-10.595 3.08-15.4 3.08a15.4 15.4 0 1 1 0-30.8c4.805 0 9.671 3.08 15.4 3.08s8.87-9.241 18.48-9.241 12.32 9.241 18.481 9.241c6.16 0 10.595-3.08 15.4-3.08a15.4 15.4 0 1 1 0 30.8c-4.805 0-9.24-3.08-15.4-3.08M477.25 172.214v73.921a12.32 12.32 0 0 0 12.32 12.32h49.281a12.323 12.323 0 0 0 12.32-12.32v-73.921M403.641 363.986h6.16a18.477 18.477 0 0 1 18.48 18.48 18.48 18.48 0 0 1-18.48 18.48h-6.16M354.355 370.146v36.96M379.004 370.146v36.96M385.16 342.425c-6.161 0-8.871 3.08-18.481 3.08-9.609 0-12.32-3.08-18.48-3.08s-10.595 3.08-15.4 3.08a15.4 15.4 0 1 1 0-30.8c4.805 0 9.671 3.08 15.4 3.08s8.871-9.24 18.48-9.24 12.32 9.24 18.481 9.24c6.16 0 10.595-3.08 15.4-3.08a15.4 15.4 0 1 1 0 30.8c-4.805 0-9.24-3.08-15.4-3.08M329.707 345.506v73.921c0 3.268 1.298 6.402 3.609 8.712a12.32 12.32 0 0 0 8.711 3.609h49.281a12.32 12.32 0 0 0 12.32-12.321v-73.921M1437.46 190.694h6.16c4.9 0 9.6 1.947 13.07 5.412a18.5 18.5 0 0 1 5.41 13.068 18.5 18.5 0 0 1-5.41 13.067 18.5 18.5 0 0 1-13.07 5.413h-6.16M1388.18 196.854v36.96M1412.81 196.854v36.96M1418.97 169.133c-6.16 0-8.87 3.08-18.48 3.08s-12.32-3.08-18.48-3.08-10.59 3.08-15.4 3.08c-4.08 0-8-1.622-10.89-4.511a15.4 15.4 0 0 1-4.51-10.889c0-4.085 1.62-8.002 4.51-10.89a15.4 15.4 0 0 1 10.89-4.51c4.81 0 9.67 3.08 15.4 3.08s8.87-9.241 18.48-9.241 12.32 9.241 18.48 9.241 10.6-3.08 15.4-3.08a15.395 15.395 0 0 1 15.4 15.4 15.4 15.4 0 0 1-4.51 10.889 15.4 15.4 0 0 1-10.89 4.511c-4.8 0-9.24-3.08-15.4-3.08M1363.53 172.214v73.921c0 3.267 1.3 6.401 3.61 8.712a12.31 12.31 0 0 0 8.71 3.608h49.28c3.27 0 6.4-1.298 8.71-3.608a12.33 12.33 0 0 0 3.61-8.712v-73.921M1289.91 363.986h6.16c4.9 0 9.6 1.947 13.06 5.413a18.47 18.47 0 0 1 5.42 13.067c0 4.901-1.95 9.602-5.42 13.068a18.46 18.46 0 0 1-13.06 5.412h-6.16M1240.63 370.146v36.96M1265.27 370.146v36.96M1271.44 342.425c-6.16 0-8.87 3.08-18.48 3.08s-12.32-3.08-18.48-3.08-10.6 3.08-15.4 3.08c-4.09 0-8.01-1.622-10.89-4.51a15.4 15.4 0 0 1-4.51-10.89c0-4.084 1.62-8.001 4.51-10.89 2.88-2.888 6.8-4.51 10.89-4.51 4.8 0 9.67 3.08 15.4 3.08s8.87-9.24 18.48-9.24 12.32 9.24 18.48 9.24 10.59-3.08 15.4-3.08c4.08 0 8 1.622 10.89 4.51a15.44 15.44 0 0 1 4.51 10.89c0 4.084-1.63 8.002-4.51 10.89a15.4 15.4 0 0 1-10.89 4.51c-4.81 0-9.24-3.08-15.4-3.08M1215.98 345.506v73.921a12.323 12.323 0 0 0 12.32 12.321h49.28a12.323 12.323 0 0 0 12.32-12.321v-73.921M773.33 148.213a6.17 6.17 0 0 1 1.549-4.762 6.16 6.16 0 0 1 4.574-2.039h72.566a6.164 6.164 0 0 1 6.124 6.807l-10.436 99.209a12.32 12.32 0 0 1-12.258 11.026h-39.425a12.32 12.32 0 0 1-12.32-11.026z"/><path stroke="#5CCED3" stroke-linecap="round" stroke-linejoin="round" stroke-width="12.32" d="M778.793 196.854a30.8 30.8 0 0 1 36.961 0 30.8 30.8 0 0 0 36.96 0M625.791 321.505a6.161 6.161 0 0 1 6.123-6.8h72.566a6.16 6.16 0 0 1 4.577 2.04 6.15 6.15 0 0 1 1.547 4.767l-10.436 99.208a12.323 12.323 0 0 1-12.258 11.027h-39.425a12.322 12.322 0 0 1-12.32-11.027z"/><path stroke="#5CCED3" stroke-linecap="round" stroke-linejoin="round" stroke-width="12.32" d="M631.254 370.146a30.8 30.8 0 0 1 36.961 0 30.8 30.8 0 0 0 36.96 0M330.123 148.213a6.17 6.17 0 0 1 1.549-4.762 6.16 6.16 0 0 1 4.574-2.039h72.566a6.164 6.164 0 0 1 6.124 6.807L404.5 247.428a12.317 12.317 0 0 1-12.258 11.026h-39.425a12.32 12.32 0 0 1-12.32-11.026z"/><path stroke="#5CCED3" stroke-linecap="round" stroke-linejoin="round" stroke-width="12.32" d="M335.582 196.854a30.8 30.8 0 0 1 36.961 0 30.8 30.8 0 0 0 36.96 0M182.584 321.505a6.161 6.161 0 0 1 6.123-6.8h72.566a6.16 6.16 0 0 1 4.577 2.04 6.15 6.15 0 0 1 1.547 4.767l-10.436 99.208a12.323 12.323 0 0 1-12.258 11.027h-39.425a12.322 12.322 0 0 1-12.32-11.027z"/><path stroke="#5CCED3" stroke-linecap="round" stroke-linejoin="round" stroke-width="12.32" d="M188.039 370.146a30.8 30.8 0 0 1 36.961 0 30.8 30.8 0 0 0 36.96 0M1216.4 148.213a6.165 6.165 0 0 1 6.12-6.801h72.57c.86.001 1.72.183 2.51.534.78.352 1.49.865 2.07 1.507a6.3 6.3 0 0 1 1.28 2.219c.26.821.35 1.689.26 2.547l-10.43 99.209a12.3 12.3 0 0 1-4.02 7.866 12.3 12.3 0 0 1-8.24 3.16h-39.43a12.327 12.327 0 0 1-12.32-11.026z"/><path stroke="#5CCED3" stroke-linecap="round" stroke-linejoin="round" stroke-width="12.32" d="M1221.86 196.854a30.8 30.8 0 0 1 36.96 0 30.83 30.83 0 0 0 18.48 6.16c6.67 0 13.15-2.162 18.48-6.16M1659.31 141.281a6.1 6.1 0 0 1 .27-2.545 6 6 0 0 1 1.28-2.217 6.1 6.1 0 0 1 2.07-1.505 6.1 6.1 0 0 1 2.5-.534H1738a6.2 6.2 0 0 1 2.5.534c.79.352 1.5.865 2.07 1.507a6 6 0 0 1 1.28 2.219c.27.821.36 1.689.27 2.547l-10.44 99.209a12.312 12.312 0 0 1-12.25 11.027H1682a12.31 12.31 0 0 1-8.28-3.14 12.3 12.3 0 0 1-4.04-7.887z"/><path stroke="#5CCED3" stroke-linecap="round" stroke-linejoin="round" stroke-width="12.32" d="M1664.77 189.921a30.8 30.8 0 0 1 18.48-6.161c6.66 0 13.14 2.162 18.48 6.161a30.8 30.8 0 0 0 18.48 6.16 30.8 30.8 0 0 0 18.48-6.16M1068.86 321.505a6.161 6.161 0 0 1 6.12-6.8h72.57a6.2 6.2 0 0 1 2.51.533c.78.352 1.49.865 2.07 1.507a6.3 6.3 0 0 1 1.28 2.219c.26.821.35 1.689.26 2.548l-10.43 99.208a12.33 12.33 0 0 1-4.01 7.866 12.36 12.36 0 0 1-8.25 3.161h-39.42a12.33 12.33 0 0 1-8.29-3.14 12.3 12.3 0 0 1-4.03-7.887z"/><path stroke="#5CCED3" stroke-linecap="round" stroke-linejoin="round" stroke-width="12.32" d="M1074.3 370.146a30.8 30.8 0 0 1 36.96 0 30.8 30.8 0 0 0 36.96 0M643.25 258.455h49.281M637.098 184.533h61.601M667.898 215.334v43.121M667.898 215.334a30.8 30.8 0 0 0 30.801-30.801c0-12.32-3.08-24.64-12.32-49.281h-36.961c-9.24 24.641-12.32 36.961-12.32 49.281a30.8 30.8 0 0 0 30.8 30.801M495.703 431.747h49.281M489.543 357.826h61.601M520.344 388.626v43.121M520.343 388.626a30.8 30.8 0 0 0 30.801-30.8c0-12.321-3.08-24.641-12.32-49.281h-36.961c-9.24 24.64-12.32 36.96-12.32 49.281a30.8 30.8 0 0 0 30.8 30.8M1529.53 258.455h49.28M1523.38 184.533h61.6M1554.17 215.334v43.12M1554.18 215.334c8.16 0 16-3.245 21.77-9.021a30.8 30.8 0 0 0 9.03-21.78c0-12.32-3.08-24.64-12.32-49.281h-36.96c-9.24 24.641-12.32 36.961-12.32 49.281 0 8.169 3.24 16.003 9.02 21.78a30.8 30.8 0 0 0 21.78 9.021M1382 431.747h49.28M1375.83 357.826h61.6M1406.63 388.626v43.121M1406.63 388.626c8.17 0 16-3.245 21.78-9.021a30.83 30.83 0 0 0 9.02-21.779c0-12.321-3.08-24.641-12.32-49.281h-36.96c-9.24 24.64-12.32 36.96-12.32 49.281 0 8.168 3.24 16.003 9.02 21.779a30.8 30.8 0 0 0 21.78 9.021M200.074 258.455h49.281M193.91 184.533h61.601M224.723 215.334v43.121M224.711 215.334a30.8 30.8 0 0 0 30.8-30.801c0-12.32-3.08-24.64-12.32-49.281H206.23c-9.24 24.641-12.32 36.961-12.32 49.281a30.8 30.8 0 0 0 9.021 21.78 30.8 30.8 0 0 0 21.78 9.021M1086.31 258.455h49.28M1080.16 184.533h61.6M1110.96 215.334v43.12M1110.96 215.334c8.17 0 16-3.245 21.78-9.021a30.83 30.83 0 0 0 9.02-21.78c0-12.32-3.08-24.64-12.32-49.281h-36.96c-9.24 24.641-12.32 36.961-12.32 49.281 0 8.169 3.24 16.003 9.02 21.78a30.8 30.8 0 0 0 21.78 9.021M938.781 431.747h49.281M932.621 357.826h61.601M963.414 388.626v43.121M963.422 388.626a30.8 30.8 0 0 0 30.8-30.8c0-12.321-3.08-24.641-12.32-49.281h-36.961c-9.24 24.64-12.32 36.96-12.32 49.281a30.8 30.8 0 0 0 30.801 30.8M1732.82 363.986h6.16c4.9 0 9.6 1.947 13.06 5.413a18.47 18.47 0 0 1 5.42 13.067c0 4.901-1.95 9.602-5.42 13.068a18.46 18.46 0 0 1-13.06 5.412h-6.16M1683.54 370.146v36.96M1708.17 370.146v36.96M1714.34 342.425c-6.16 0-8.87 3.08-18.48 3.08s-12.32-3.08-18.48-3.08-10.59 3.08-15.4 3.08c-4.08 0-8-1.622-10.89-4.51a15.4 15.4 0 0 1-4.51-10.89 15.395 15.395 0 0 1 15.4-15.4c4.81 0 9.67 3.08 15.4 3.08s8.87-9.24 18.48-9.24 12.32 9.24 18.48 9.24 10.6-3.08 15.4-3.08a15.395 15.395 0 0 1 15.4 15.4 15.395 15.395 0 0 1-15.4 15.4c-4.8 0-9.24-3.08-15.4-3.08"/><path stroke="#5CCED3" stroke-linecap="round" stroke-linejoin="round" stroke-width="12.32" d="M1658.9 345.506v73.921a12.323 12.323 0 0 0 12.32 12.321h49.28c3.27 0 6.4-1.298 8.72-3.609 2.31-2.31 3.6-5.444 3.6-8.712v-73.921M1511.75 321.505a6.161 6.161 0 0 1 6.13-6.8h72.56a6.2 6.2 0 0 1 2.51.533 6.17 6.17 0 0 1 3.35 3.726c.26.821.36 1.689.26 2.548l-10.43 99.208a12.33 12.33 0 0 1-4.01 7.866 12.34 12.34 0 0 1-8.25 3.161h-39.42a12.33 12.33 0 0 1-8.29-3.14 12.3 12.3 0 0 1-4.03-7.887z"/><path stroke="#5CCED3" stroke-linecap="round" stroke-linejoin="round" stroke-width="12.32" d="M1517.22 370.146a30.8 30.8 0 0 1 36.96 0 30.8 30.8 0 0 0 36.96 0M249.73 537.279h6.161a18.48 18.48 0 0 1 0 36.96h-6.161M200.438 543.439V580.4M225.078 543.439V580.4M231.261 515.719c-6.16 0-8.87 3.08-18.48 3.08s-12.32-3.08-18.48-3.08-10.596 3.08-15.401 3.08a15.4 15.4 0 0 1 0-30.801c4.805 0 9.672 3.08 15.401 3.08s8.87-9.24 18.48-9.24 12.32 9.24 18.48 9.24 10.596-3.08 15.4-3.08a15.4 15.4 0 0 1 0 30.801c-4.804 0-9.24-3.08-15.4-3.08"/><path stroke="#5CCED3" stroke-linecap="round" stroke-linejoin="round" stroke-width="12.32" d="M175.801 518.799v73.921a12.32 12.32 0 0 0 12.32 12.321h49.281a12.32 12.32 0 0 0 12.32-12.321v-73.921M1136 537.279h6.16c4.9 0 9.6 1.947 13.07 5.413a18.5 18.5 0 0 1 5.41 13.067c0 4.901-1.95 9.602-5.41 13.068a18.5 18.5 0 0 1-13.07 5.412H1136M1086.72 543.439V580.4M1111.36 543.439V580.4M1117.51 515.719c-6.16 0-8.87 3.08-18.48 3.08s-12.32-3.08-18.48-3.08-10.6 3.08-15.4 3.08c-4.09 0-8.01-1.623-10.89-4.511a15.4 15.4 0 0 1-4.51-10.889c0-4.085 1.62-8.002 4.51-10.89a15.38 15.38 0 0 1 10.89-4.511c4.8 0 9.67 3.08 15.4 3.08s8.87-9.24 18.48-9.24 12.32 9.24 18.48 9.24 10.59-3.08 15.4-3.08c4.08 0 8 1.623 10.89 4.511a15.4 15.4 0 0 1 4.51 10.89 15.4 15.4 0 0 1-4.51 10.889 15.41 15.41 0 0 1-10.89 4.511c-4.81 0-9.24-3.08-15.4-3.08"/><path stroke="#5CCED3" stroke-linecap="round" stroke-linejoin="round" stroke-width="12.32" d="M1062.07 518.799v73.921a12.323 12.323 0 0 0 12.32 12.321h49.29A12.327 12.327 0 0 0 1136 592.72v-73.921M692.773 537.279h6.161a18.48 18.48 0 0 1 0 36.96h-6.161M643.508 543.439V580.4M668.141 543.439V580.4M674.296 515.719c-6.16 0-8.87 3.08-18.48 3.08s-12.32-3.08-18.48-3.08-10.596 3.08-15.401 3.08a15.4 15.4 0 0 1 0-30.801c4.805 0 9.672 3.08 15.401 3.08s8.87-9.24 18.48-9.24 12.32 9.24 18.48 9.24 10.596-3.08 15.401-3.08a15.4 15.4 0 0 1 0 30.801c-4.805 0-9.241-3.08-15.401-3.08"/><path stroke="#5CCED3" stroke-linecap="round" stroke-linejoin="round" stroke-width="12.32" d="M618.855 518.799v73.921c0 3.268 1.298 6.402 3.609 8.712a12.32 12.32 0 0 0 8.712 3.609h49.281c3.267 0 6.401-1.298 8.711-3.609a12.32 12.32 0 0 0 3.609-8.712v-73.921M1579.06 537.279h6.16c4.9 0 9.6 1.947 13.07 5.413a18.5 18.5 0 0 1 5.41 13.067c0 4.901-1.95 9.602-5.41 13.068a18.5 18.5 0 0 1-13.07 5.412h-6.16M1529.77 543.439V580.4M1554.43 543.439V580.4M1560.59 515.719c-6.16 0-8.88 3.08-18.48 3.08-9.61 0-12.33-3.08-18.49-3.08s-10.59 3.08-15.4 3.08c-4.08 0-8-1.623-10.89-4.511a15.43 15.43 0 0 1-4.51-10.889c0-4.085 1.63-8.002 4.51-10.89a15.41 15.41 0 0 1 10.89-4.511c4.81 0 9.68 3.08 15.4 3.08 5.73 0 8.88-9.24 18.49-9.24 9.6 0 12.32 9.24 18.48 9.24s10.59-3.08 15.4-3.08c4.08 0 8 1.623 10.89 4.511a15.43 15.43 0 0 1 4.51 10.89c0 4.084-1.63 8.001-4.51 10.889a15.41 15.41 0 0 1-10.89 4.511c-4.81 0-9.24-3.08-15.4-3.08"/><path stroke="#5CCED3" stroke-linecap="round" stroke-linejoin="round" stroke-width="12.32" d="M1505.14 518.799v73.921a12.323 12.323 0 0 0 12.32 12.321h49.28a12.323 12.323 0 0 0 12.32-12.321v-73.921M914.928 494.799a6.15 6.15 0 0 1 .269-2.545 6.155 6.155 0 0 1 5.854-4.255h72.566a6.16 6.16 0 0 1 5.857 4.259c.266.821.357 1.689.266 2.547l-10.435 99.209a12.32 12.32 0 0 1-12.259 11.027h-39.424a12.321 12.321 0 0 1-12.32-11.027z"/><path stroke="#5CCED3" stroke-linecap="round" stroke-linejoin="round" stroke-width="12.32" d="M920.395 543.439a30.8 30.8 0 0 1 36.96 0 30.8 30.8 0 0 0 36.961 0M471.74 494.799a6.165 6.165 0 0 1 3.62-6.267 6.15 6.15 0 0 1 2.504-.533h72.566a6.16 6.16 0 0 1 4.577 2.04 6.2 6.2 0 0 1 1.279 2.219c.267.821.357 1.689.267 2.547l-10.435 99.209a12.324 12.324 0 0 1-12.259 11.027h-39.425a12.326 12.326 0 0 1-12.32-11.027z"/><path stroke="#5CCED3" stroke-linecap="round" stroke-linejoin="round" stroke-width="12.32" d="M477.191 543.439a30.8 30.8 0 0 1 36.961 0 30.8 30.8 0 0 0 36.961 0M1358 494.799a6.1 6.1 0 0 1 .27-2.545 6 6 0 0 1 1.28-2.217 6.153 6.153 0 0 1 4.57-2.038h72.57a6.15 6.15 0 0 1 4.57 2.04 6 6 0 0 1 1.28 2.219c.27.821.36 1.689.27 2.547l-10.43 99.209a12.3 12.3 0 0 1-4.02 7.866 12.3 12.3 0 0 1-8.24 3.161h-39.43a12.31 12.31 0 0 1-8.28-3.14 12.3 12.3 0 0 1-4.04-7.887z"/><path stroke="#5CCED3" stroke-linecap="round" stroke-linejoin="round" stroke-width="12.32" d="M1363.45 543.439a30.8 30.8 0 0 1 36.96 0 30.83 30.83 0 0 0 18.48 6.16c6.67 0 13.15-2.161 18.48-6.16M784.887 605.041h49.281M778.723 531.119h61.601M809.539 561.919v43.121M809.523 561.92a30.8 30.8 0 0 0 30.801-30.801c0-12.32-3.08-24.64-12.32-49.281h-36.961c-9.24 24.641-12.32 36.961-12.32 49.281a30.8 30.8 0 0 0 30.8 30.801M1671.12 605.041h49.28M1664.96 531.119h61.61M1695.77 561.919v43.121M1695.77 561.92c8.16 0 16-3.246 21.77-9.022a30.8 30.8 0 0 0 9.03-21.779c0-12.32-3.08-24.64-12.32-49.281h-36.96c-9.25 24.641-12.33 36.961-12.33 49.281 0 8.169 3.25 16.003 9.03 21.779a30.8 30.8 0 0 0 21.78 9.022M341.676 605.041h49.281M335.516 531.119h61.601M366.305 561.919v43.121M366.316 561.92a30.8 30.8 0 0 0 30.801-30.801c0-12.32-3.08-24.64-12.321-49.281h-36.96c-9.24 24.641-12.32 36.961-12.32 49.281a30.8 30.8 0 0 0 30.8 30.801M1227.93 605.041h49.28M1221.78 531.119h61.6M1252.58 561.919v43.121M1252.58 561.92c8.17 0 16-3.246 21.78-9.022a30.82 30.82 0 0 0 9.02-21.779c0-12.32-3.08-24.64-12.32-49.281h-36.96c-9.24 24.641-12.32 36.961-12.32 49.281 0 8.169 3.24 16.003 9.02 21.779a30.8 30.8 0 0 0 21.78 9.022M994.391 710.57h6.159c4.9 0 9.6 1.947 13.07 5.413a18.5 18.5 0 0 1 5.41 13.067c0 4.901-1.95 9.602-5.41 13.068a18.5 18.5 0 0 1-13.07 5.412h-6.159M945.109 716.729v36.961M969.742 716.729v36.961M975.902 689.009c-6.16 0-8.871 3.08-18.481 3.08-9.609 0-12.32-3.08-18.48-3.08s-10.595 3.08-15.4 3.08a15.4 15.4 0 1 1 0-30.8c4.805 0 9.671 3.08 15.4 3.08s8.871-9.24 18.48-9.24 12.321 9.24 18.481 9.24 10.595-3.08 15.4-3.08a15.395 15.395 0 0 1 15.398 15.4c0 4.084-1.62 8.002-4.51 10.89a15.4 15.4 0 0 1-10.888 4.51c-4.805 0-9.24-3.08-15.4-3.08M920.469 692.09v73.921a12.32 12.32 0 0 0 12.32 12.321h49.281a12.32 12.32 0 0 0 12.32-12.321V692.09M846.84 883.864H853a18.481 18.481 0 0 1 0 36.961h-6.16M797.547 890.024v36.961M822.199 890.024v36.961M828.359 862.304c-6.16 0-8.871 3.08-18.481 3.08-9.609 0-12.32-3.08-18.48-3.08s-10.595 3.08-15.4 3.08a15.4 15.4 0 0 1-15.4-15.401 15.4 15.4 0 0 1 15.4-15.4c4.805 0 9.671 3.08 15.4 3.08s8.871-9.24 18.48-9.24 12.321 9.24 18.481 9.24 10.595-3.08 15.4-3.08a15.4 15.4 0 0 1 15.4 15.4 15.4 15.4 0 0 1-15.4 15.401c-4.805 0-9.24-3.08-15.4-3.08"/><path stroke="#5CCED3" stroke-linecap="round" stroke-linejoin="round" stroke-width="12.32" d="M772.914 865.383v73.921c0 3.268 1.298 6.402 3.609 8.712a12.32 12.32 0 0 0 8.711 3.609h49.281a12.32 12.32 0 0 0 12.32-12.321v-73.921M551.176 710.57h6.16a18.477 18.477 0 0 1 18.48 18.48 18.48 18.48 0 0 1-18.48 18.48h-6.16M501.902 716.729v36.961M526.551 716.729v36.961M532.703 689.009c-6.161 0-8.871 3.08-18.481 3.08s-12.32-3.08-18.48-3.08-10.595 3.08-15.4 3.08a15.4 15.4 0 1 1 0-30.8c4.805 0 9.671 3.08 15.4 3.08s8.87-9.24 18.48-9.24 12.32 9.24 18.481 9.24c6.16 0 10.595-3.08 15.4-3.08a15.4 15.4 0 1 1 0 30.8c-4.805 0-9.24-3.08-15.4-3.08M477.25 692.09v73.921c0 3.268 1.298 6.402 3.609 8.712a12.32 12.32 0 0 0 8.711 3.609h49.281a12.32 12.32 0 0 0 12.32-12.321V692.09M403.641 883.864h6.16a18.477 18.477 0 0 1 18.48 18.481 18.48 18.48 0 0 1-18.48 18.48h-6.16M354.355 890.024v36.961M379.004 890.024v36.961M385.16 862.304c-6.161 0-8.871 3.08-18.481 3.08-9.609 0-12.32-3.08-18.48-3.08s-10.595 3.08-15.4 3.08a15.4 15.4 0 0 1 0-30.801c4.805 0 9.671 3.08 15.4 3.08s8.871-9.24 18.48-9.24 12.32 9.24 18.481 9.24c6.16 0 10.595-3.08 15.4-3.08a15.4 15.4 0 0 1 0 30.801c-4.805 0-9.24-3.08-15.4-3.08"/><path stroke="#5CCED3" stroke-linecap="round" stroke-linejoin="round" stroke-width="12.32" d="M329.707 865.383v73.921c0 3.268 1.298 6.402 3.609 8.712a12.32 12.32 0 0 0 8.711 3.609h49.281a12.32 12.32 0 0 0 12.32-12.321v-73.921M1437.46 710.57h6.16c4.9 0 9.6 1.947 13.07 5.413a18.5 18.5 0 0 1 5.41 13.067c0 4.901-1.95 9.602-5.41 13.068a18.5 18.5 0 0 1-13.07 5.412h-6.16M1388.18 716.729v36.961M1412.81 716.729v36.961M1418.97 689.009c-6.16 0-8.87 3.08-18.48 3.08s-12.32-3.08-18.48-3.08-10.59 3.08-15.4 3.08c-4.08 0-8-1.622-10.89-4.51a15.4 15.4 0 0 1-4.51-10.89 15.395 15.395 0 0 1 15.4-15.4c4.81 0 9.67 3.08 15.4 3.08s8.87-9.24 18.48-9.24 12.32 9.24 18.48 9.24 10.6-3.08 15.4-3.08a15.395 15.395 0 0 1 15.4 15.4 15.395 15.395 0 0 1-15.4 15.4c-4.8 0-9.24-3.08-15.4-3.08"/><path stroke="#5CCED3" stroke-linecap="round" stroke-linejoin="round" stroke-width="12.32" d="M1363.53 692.09v73.921a12.323 12.323 0 0 0 12.32 12.321h49.28a12.323 12.323 0 0 0 12.32-12.321V692.09M1289.91 883.864h6.16c4.9 0 9.6 1.947 13.06 5.413a18.47 18.47 0 0 1 5.42 13.068c0 4.901-1.95 9.601-5.42 13.067a18.45 18.45 0 0 1-13.06 5.413h-6.16M1240.63 890.024v36.961M1265.27 890.024v36.961M1271.44 862.304c-6.16 0-8.87 3.08-18.48 3.08s-12.32-3.08-18.48-3.08-10.6 3.08-15.4 3.08c-4.09 0-8.01-1.623-10.89-4.511a15.4 15.4 0 0 1-4.51-10.89 15.4 15.4 0 0 1 4.51-10.889 15.38 15.38 0 0 1 10.89-4.511c4.8 0 9.67 3.08 15.4 3.08s8.87-9.24 18.48-9.24 12.32 9.24 18.48 9.24 10.59-3.08 15.4-3.08c4.08 0 8 1.623 10.89 4.511a15.43 15.43 0 0 1 4.51 10.889c0 4.085-1.63 8.002-4.51 10.89a15.41 15.41 0 0 1-10.89 4.511c-4.81 0-9.24-3.08-15.4-3.08"/><path stroke="#5CCED3" stroke-linecap="round" stroke-linejoin="round" stroke-width="12.32" d="M1215.98 865.383v73.921a12.323 12.323 0 0 0 12.32 12.321h49.28a12.323 12.323 0 0 0 12.32-12.321v-73.921M773.33 668.089a6.165 6.165 0 0 1 3.62-6.267 6.15 6.15 0 0 1 2.503-.533h72.566a6.16 6.16 0 0 1 4.577 2.04 6.15 6.15 0 0 1 1.547 4.766l-10.436 99.209a12.32 12.32 0 0 1-12.258 11.027h-39.425a12.32 12.32 0 0 1-12.32-11.027z"/><path stroke="#5CCED3" stroke-linecap="round" stroke-linejoin="round" stroke-width="12.32" d="M778.793 716.73a30.8 30.8 0 0 1 36.961 0 30.8 30.8 0 0 0 36.96 0M625.791 841.384a6.15 6.15 0 0 1 1.549-4.763 6.16 6.16 0 0 1 4.574-2.038h72.566a6.15 6.15 0 0 1 4.577 2.04 6.15 6.15 0 0 1 1.547 4.767l-10.436 99.208a12.317 12.317 0 0 1-12.258 11.027h-39.425a12.317 12.317 0 0 1-12.32-11.027z"/><path stroke="#5CCED3" stroke-linecap="round" stroke-linejoin="round" stroke-width="12.32" d="M631.254 890.024a30.8 30.8 0 0 1 36.961 0 30.8 30.8 0 0 0 36.96 0M330.123 668.089a6.165 6.165 0 0 1 3.62-6.267 6.15 6.15 0 0 1 2.503-.533h72.566a6.16 6.16 0 0 1 4.577 2.04 6.15 6.15 0 0 1 1.547 4.766L404.5 767.304a12.323 12.323 0 0 1-12.258 11.027h-39.425a12.32 12.32 0 0 1-12.32-11.027z"/><path stroke="#5CCED3" stroke-linecap="round" stroke-linejoin="round" stroke-width="12.32" d="M335.582 716.73a30.8 30.8 0 0 1 36.961 0 30.8 30.8 0 0 0 36.96 0M182.584 841.384a6.15 6.15 0 0 1 1.549-4.763 6.16 6.16 0 0 1 4.574-2.038h72.566a6.15 6.15 0 0 1 4.577 2.04 6.15 6.15 0 0 1 1.547 4.767l-10.436 99.208a12.317 12.317 0 0 1-12.258 11.027h-39.425a12.317 12.317 0 0 1-12.32-11.027z"/><path stroke="#5CCED3" stroke-linecap="round" stroke-linejoin="round" stroke-width="12.32" d="M188.039 890.024a30.805 30.805 0 0 1 36.961 0 30.8 30.8 0 0 0 36.96 0M1216.4 668.089a6.161 6.161 0 0 1 6.12-6.8h72.57a6.2 6.2 0 0 1 2.51.533c.78.352 1.49.865 2.07 1.507a6.3 6.3 0 0 1 1.28 2.219c.26.821.35 1.689.26 2.547l-10.43 99.209a12.3 12.3 0 0 1-4.02 7.866 12.3 12.3 0 0 1-8.24 3.161h-39.43a12.33 12.33 0 0 1-12.32-11.027z"/><path stroke="#5CCED3" stroke-linecap="round" stroke-linejoin="round" stroke-width="12.32" d="M1221.86 716.73a30.8 30.8 0 0 1 36.96 0 30.83 30.83 0 0 0 18.48 6.16c6.67 0 13.15-2.161 18.48-6.16M1659.31 661.159c-.09-.858 0-1.725.27-2.546.26-.82.7-1.575 1.28-2.216a6.1 6.1 0 0 1 2.07-1.505 6.1 6.1 0 0 1 2.5-.534H1738a6.2 6.2 0 0 1 2.5.534c.79.352 1.5.865 2.07 1.507a6 6 0 0 1 1.28 2.219c.27.821.36 1.689.27 2.547l-10.44 99.209a12.33 12.33 0 0 1-4.01 7.866 12.3 12.3 0 0 1-8.24 3.16H1682a12.3 12.3 0 0 1-8.28-3.139 12.3 12.3 0 0 1-4.04-7.887z"/><path stroke="#5CCED3" stroke-linecap="round" stroke-linejoin="round" stroke-width="12.32" d="M1664.77 709.799a30.78 30.78 0 0 1 18.48-6.16c6.66 0 13.14 2.161 18.48 6.16a30.8 30.8 0 0 0 18.48 6.16 30.8 30.8 0 0 0 18.48-6.16M1068.86 841.384a6.17 6.17 0 0 1 3.62-6.268 6.2 6.2 0 0 1 2.5-.533h72.57c.86 0 1.72.182 2.51.534.78.351 1.49.865 2.07 1.506a6.3 6.3 0 0 1 1.28 2.219c.26.821.35 1.689.26 2.548l-10.43 99.208a12.34 12.34 0 0 1-4.01 7.867 12.35 12.35 0 0 1-8.25 3.16h-39.42a12.33 12.33 0 0 1-8.29-3.14 12.3 12.3 0 0 1-4.03-7.887z"/><path stroke="#5CCED3" stroke-linecap="round" stroke-linejoin="round" stroke-width="12.32" d="M1074.3 890.024a30.8 30.8 0 0 1 18.48-6.16c6.67 0 13.15 2.162 18.48 6.16a30.8 30.8 0 0 0 36.96 0M643.25 778.331h49.281M637.098 704.409h61.601M667.898 735.21v43.121M667.898 735.21a30.8 30.8 0 0 0 30.801-30.8c0-12.321-3.08-24.641-12.32-49.281h-36.961c-9.24 24.64-12.32 36.96-12.32 49.281a30.8 30.8 0 0 0 30.8 30.8M495.703 951.625h49.281M489.543 877.704h61.601M520.344 908.504v43.121M520.343 908.504a30.8 30.8 0 0 0 30.801-30.8c0-12.32-3.08-24.64-12.32-49.281h-36.961c-9.24 24.641-12.32 36.961-12.32 49.281a30.8 30.8 0 0 0 30.8 30.8M1529.53 778.331h49.28M1523.38 704.409h61.6M1554.17 735.21v43.121M1554.18 735.21c8.16 0 16-3.245 21.77-9.021a30.8 30.8 0 0 0 9.03-21.779c0-12.321-3.08-24.641-12.32-49.281h-36.96c-9.24 24.64-12.32 36.96-12.32 49.281 0 8.168 3.24 16.003 9.02 21.779a30.8 30.8 0 0 0 21.78 9.021M1382 951.625h49.28M1375.83 877.704h61.6M1406.63 908.504v43.121M1406.63 908.504c8.17 0 16-3.245 21.78-9.021a30.82 30.82 0 0 0 9.02-21.779c0-12.32-3.08-24.64-12.32-49.281h-36.96c-9.24 24.641-12.32 36.961-12.32 49.281 0 8.169 3.24 16.003 9.02 21.779a30.8 30.8 0 0 0 21.78 9.021M200.074 778.331h49.281M193.91 704.409h61.601M224.723 735.21v43.121M224.711 735.21a30.8 30.8 0 0 0 30.8-30.8c0-12.321-3.08-24.641-12.32-49.281H206.23c-9.24 24.64-12.32 36.96-12.32 49.281a30.8 30.8 0 0 0 30.801 30.8M1086.31 778.331h49.28M1080.16 704.409h61.6M1110.96 735.21v43.121M1110.96 735.21c8.17 0 16-3.245 21.78-9.021a30.83 30.83 0 0 0 9.02-21.779c0-12.321-3.08-24.641-12.32-49.281h-36.96c-9.24 24.64-12.32 36.96-12.32 49.281 0 8.168 3.24 16.003 9.02 21.779a30.8 30.8 0 0 0 21.78 9.021M938.781 951.625h49.281M932.621 877.704h61.601M963.414 908.504v43.121M963.422 908.504a30.8 30.8 0 0 0 30.8-30.8c0-12.32-3.08-24.64-12.32-49.281h-36.961c-9.24 24.641-12.32 36.961-12.32 49.281a30.8 30.8 0 0 0 30.801 30.8M1732.82 883.864h6.16c4.9 0 9.6 1.947 13.06 5.413a18.47 18.47 0 0 1 5.42 13.068c0 4.901-1.95 9.601-5.42 13.067a18.45 18.45 0 0 1-13.06 5.413h-6.16M1683.54 890.024v36.961M1708.17 890.024v36.961M1714.34 862.304c-6.16 0-8.87 3.08-18.48 3.08s-12.32-3.08-18.48-3.08-10.59 3.08-15.4 3.08c-4.08 0-8-1.623-10.89-4.511a15.4 15.4 0 0 1-4.51-10.89 15.4 15.4 0 0 1 4.51-10.889 15.41 15.41 0 0 1 10.89-4.511c4.81 0 9.67 3.08 15.4 3.08s8.87-9.24 18.48-9.24 12.32 9.24 18.48 9.24 10.6-3.08 15.4-3.08c4.09 0 8 1.623 10.89 4.511a15.4 15.4 0 0 1 4.51 10.889c0 4.085-1.62 8.002-4.51 10.89a15.4 15.4 0 0 1-10.89 4.511c-4.8 0-9.24-3.08-15.4-3.08"/><path stroke="#5CCED3" stroke-linecap="round" stroke-linejoin="round" stroke-width="12.32" d="M1658.9 865.383v73.921a12.323 12.323 0 0 0 12.32 12.321h49.28c3.27 0 6.4-1.298 8.72-3.609 2.31-2.31 3.6-5.444 3.6-8.712v-73.921M1511.75 841.384a6.17 6.17 0 0 1 3.62-6.268 6.2 6.2 0 0 1 2.51-.533h72.56a6.168 6.168 0 0 1 5.86 4.259c.26.821.36 1.689.26 2.548l-10.43 99.208a12.34 12.34 0 0 1-4.01 7.867 12.33 12.33 0 0 1-8.25 3.16h-39.42a12.33 12.33 0 0 1-8.29-3.14 12.3 12.3 0 0 1-4.03-7.887z"/><path stroke="#5CCED3" stroke-linecap="round" stroke-linejoin="round" stroke-width="12.32" d="M1517.22 890.024a30.8 30.8 0 0 1 18.48-6.16c6.67 0 13.15 2.162 18.48 6.16a30.8 30.8 0 0 0 36.96 0"/></g><defs><clipPath id="a"><path fill="#fff" d="M0 0h1920v1080H0z"/></clipPath></defs></svg>