<svg width="1920" height="1080" viewBox="0 0 1920 1080" fill="none" xmlns="http://www.w3.org/2000/svg">
<g clip-path="url(#clip0_959_2355)">
<rect width="1920" height="1080" fill="#1E3536"/>
<path d="M994.391 190.694H1000.55C1005.45 190.694 1010.15 192.641 1013.62 196.106C1017.08 199.572 1019.03 204.273 1019.03 209.174C1019.03 214.075 1017.08 218.776 1013.62 222.241C1010.15 225.707 1005.45 227.654 1000.55 227.654H994.391" stroke="#5CCED3" stroke-width="12.3202" stroke-linecap="round" stroke-linejoin="round"/>
<path d="M945.109 196.854V233.814" stroke="#5CCED3" stroke-width="12.3202" stroke-linecap="round" stroke-linejoin="round"/>
<path d="M969.742 196.854V233.814" stroke="#5CCED3" stroke-width="12.3202" stroke-linecap="round" stroke-linejoin="round"/>
<path d="M975.902 169.133C969.742 169.133 967.031 172.213 957.421 172.213C947.812 172.213 945.101 169.133 938.941 169.133C932.781 169.133 928.346 172.213 923.541 172.213C919.456 172.213 915.539 170.591 912.651 167.702C909.763 164.814 908.141 160.897 908.141 156.813C908.141 152.728 909.763 148.811 912.651 145.923C915.539 143.035 919.456 141.413 923.541 141.413C928.346 141.413 933.212 144.493 938.941 144.493C944.67 144.493 947.812 135.252 957.421 135.252C967.031 135.252 969.742 144.493 975.902 144.493C982.062 144.493 986.497 141.413 991.302 141.413C995.386 141.413 999.304 143.035 1002.19 145.923C1005.08 148.811 1006.7 152.728 1006.7 156.813C1006.7 160.897 1005.08 164.814 1002.19 167.702C999.304 170.591 995.386 172.213 991.302 172.213C986.497 172.213 982.062 169.133 975.902 169.133Z" stroke="#5CCED3" stroke-width="12.3202" stroke-linecap="round" stroke-linejoin="round"/>
<path d="M920.469 172.214V246.135C920.469 249.402 921.767 252.536 924.077 254.847C926.388 257.157 929.521 258.455 932.789 258.455H982.07C985.337 258.455 988.471 257.157 990.782 254.847C993.092 252.536 994.39 249.402 994.39 246.135V172.214" stroke="#5CCED3" stroke-width="12.3202" stroke-linecap="round" stroke-linejoin="round"/>
<path d="M846.84 363.986H853C857.901 363.986 862.602 365.933 866.068 369.399C869.533 372.864 871.48 377.565 871.48 382.466C871.48 387.367 869.533 392.068 866.068 395.534C862.602 398.999 857.901 400.946 853 400.946H846.84" stroke="#5CCED3" stroke-width="12.3202" stroke-linecap="round" stroke-linejoin="round"/>
<path d="M797.547 370.146V407.106" stroke="#5CCED3" stroke-width="12.3202" stroke-linecap="round" stroke-linejoin="round"/>
<path d="M822.199 370.146V407.106" stroke="#5CCED3" stroke-width="12.3202" stroke-linecap="round" stroke-linejoin="round"/>
<path d="M828.359 342.425C822.199 342.425 819.488 345.505 809.878 345.505C800.269 345.505 797.558 342.425 791.398 342.425C785.238 342.425 780.803 345.505 775.998 345.505C771.914 345.505 767.996 343.883 765.108 340.995C762.22 338.107 760.598 334.189 760.598 330.105C760.598 326.021 762.22 322.104 765.108 319.215C767.996 316.327 771.914 314.705 775.998 314.705C780.803 314.705 785.669 317.785 791.398 317.785C797.127 317.785 800.269 308.545 809.878 308.545C819.488 308.545 822.199 317.785 828.359 317.785C834.519 317.785 838.954 314.705 843.759 314.705C847.843 314.705 851.761 316.327 854.649 319.215C857.537 322.104 859.159 326.021 859.159 330.105C859.159 334.189 857.537 338.107 854.649 340.995C851.761 343.883 847.843 345.505 843.759 345.505C838.954 345.505 834.519 342.425 828.359 342.425Z" stroke="#5CCED3" stroke-width="12.3202" stroke-linecap="round" stroke-linejoin="round"/>
<path d="M772.914 345.506V419.427C772.914 422.695 774.212 425.829 776.523 428.139C778.833 430.45 781.967 431.748 785.234 431.748H834.515C837.783 431.748 840.916 430.45 843.227 428.139C845.537 425.829 846.835 422.695 846.835 419.427V345.506" stroke="#5CCED3" stroke-width="12.3202" stroke-linecap="round" stroke-linejoin="round"/>
<path d="M551.176 190.694H557.336C562.237 190.694 566.938 192.641 570.403 196.106C573.869 199.572 575.816 204.273 575.816 209.174C575.816 214.075 573.869 218.776 570.403 222.241C566.938 225.707 562.237 227.654 557.336 227.654H551.176" stroke="#5CCED3" stroke-width="12.3202" stroke-linecap="round" stroke-linejoin="round"/>
<path d="M501.902 196.854V233.814" stroke="#5CCED3" stroke-width="12.3202" stroke-linecap="round" stroke-linejoin="round"/>
<path d="M526.551 196.854V233.814" stroke="#5CCED3" stroke-width="12.3202" stroke-linecap="round" stroke-linejoin="round"/>
<path d="M532.703 169.133C526.542 169.133 523.832 172.213 514.222 172.213C504.612 172.213 501.902 169.133 495.742 169.133C489.582 169.133 485.147 172.213 480.342 172.213C476.257 172.213 472.34 170.591 469.452 167.702C466.564 164.814 464.941 160.897 464.941 156.813C464.941 152.728 466.564 148.811 469.452 145.923C472.34 143.035 476.257 141.413 480.342 141.413C485.147 141.413 490.013 144.493 495.742 144.493C501.471 144.493 504.612 135.252 514.222 135.252C523.832 135.252 526.542 144.493 532.703 144.493C538.863 144.493 543.298 141.413 548.103 141.413C552.187 141.413 556.104 143.035 558.992 145.923C561.881 148.811 563.503 152.728 563.503 156.813C563.503 160.897 561.881 164.814 558.992 167.702C556.104 170.591 552.187 172.213 548.103 172.213C543.298 172.213 538.863 169.133 532.703 169.133Z" stroke="#5CCED3" stroke-width="12.3202" stroke-linecap="round" stroke-linejoin="round"/>
<path d="M477.25 172.214V246.135C477.25 249.402 478.548 252.536 480.859 254.847C483.169 257.157 486.303 258.455 489.57 258.455H538.851C542.119 258.455 545.252 257.157 547.563 254.847C549.873 252.536 551.171 249.402 551.171 246.135V172.214" stroke="#5CCED3" stroke-width="12.3202" stroke-linecap="round" stroke-linejoin="round"/>
<path d="M403.641 363.986H409.801C414.702 363.986 419.403 365.933 422.868 369.399C426.334 372.864 428.281 377.565 428.281 382.466C428.281 387.367 426.334 392.068 422.868 395.534C419.403 398.999 414.702 400.946 409.801 400.946H403.641" stroke="#5CCED3" stroke-width="12.3202" stroke-linecap="round" stroke-linejoin="round"/>
<path d="M354.355 370.146V407.106" stroke="#5CCED3" stroke-width="12.3202" stroke-linecap="round" stroke-linejoin="round"/>
<path d="M379.004 370.146V407.106" stroke="#5CCED3" stroke-width="12.3202" stroke-linecap="round" stroke-linejoin="round"/>
<path d="M385.16 342.425C378.999 342.425 376.289 345.505 366.679 345.505C357.07 345.505 354.359 342.425 348.199 342.425C342.039 342.425 337.604 345.505 332.799 345.505C328.714 345.505 324.797 343.883 321.909 340.995C319.021 338.107 317.398 334.189 317.398 330.105C317.398 326.021 319.021 322.104 321.909 319.215C324.797 316.327 328.714 314.705 332.799 314.705C337.604 314.705 342.47 317.785 348.199 317.785C353.928 317.785 357.07 308.545 366.679 308.545C376.289 308.545 378.999 317.785 385.16 317.785C391.32 317.785 395.755 314.705 400.56 314.705C404.644 314.705 408.561 316.327 411.449 319.215C414.338 322.104 415.96 326.021 415.96 330.105C415.96 334.189 414.338 338.107 411.449 340.995C408.561 343.883 404.644 345.505 400.56 345.505C395.755 345.505 391.32 342.425 385.16 342.425Z" stroke="#5CCED3" stroke-width="12.3202" stroke-linecap="round" stroke-linejoin="round"/>
<path d="M329.707 345.506V419.427C329.707 422.695 331.005 425.829 333.316 428.139C335.626 430.45 338.76 431.748 342.027 431.748H391.308C394.576 431.748 397.709 430.45 400.02 428.139C402.33 425.829 403.628 422.695 403.628 419.427V345.506" stroke="#5CCED3" stroke-width="12.3202" stroke-linecap="round" stroke-linejoin="round"/>
<path d="M1437.46 190.694H1443.62C1448.52 190.694 1453.22 192.641 1456.69 196.106C1460.15 199.572 1462.1 204.273 1462.1 209.174C1462.1 214.075 1460.15 218.776 1456.69 222.241C1453.22 225.707 1448.52 227.654 1443.62 227.654H1437.46" stroke="#5CCED3" stroke-width="12.3202" stroke-linecap="round" stroke-linejoin="round"/>
<path d="M1388.18 196.854V233.814" stroke="#5CCED3" stroke-width="12.3202" stroke-linecap="round" stroke-linejoin="round"/>
<path d="M1412.81 196.854V233.814" stroke="#5CCED3" stroke-width="12.3202" stroke-linecap="round" stroke-linejoin="round"/>
<path d="M1418.97 169.133C1412.81 169.133 1410.1 172.213 1400.49 172.213C1390.88 172.213 1388.17 169.133 1382.01 169.133C1375.85 169.133 1371.42 172.213 1366.61 172.213C1362.53 172.213 1358.61 170.591 1355.72 167.702C1352.83 164.814 1351.21 160.897 1351.21 156.813C1351.21 152.728 1352.83 148.811 1355.72 145.923C1358.61 143.035 1362.53 141.413 1366.61 141.413C1371.42 141.413 1376.28 144.493 1382.01 144.493C1387.74 144.493 1390.88 135.252 1400.49 135.252C1410.1 135.252 1412.81 144.493 1418.97 144.493C1425.13 144.493 1429.57 141.413 1434.37 141.413C1438.46 141.413 1442.37 143.035 1445.26 145.923C1448.15 148.811 1449.77 152.728 1449.77 156.813C1449.77 160.897 1448.15 164.814 1445.26 167.702C1442.37 170.591 1438.46 172.213 1434.37 172.213C1429.57 172.213 1425.13 169.133 1418.97 169.133Z" stroke="#5CCED3" stroke-width="12.3202" stroke-linecap="round" stroke-linejoin="round"/>
<path d="M1363.53 172.214V246.135C1363.53 249.402 1364.83 252.536 1367.14 254.847C1369.45 257.157 1372.58 258.455 1375.85 258.455H1425.13C1428.4 258.455 1431.53 257.157 1433.84 254.847C1436.15 252.536 1437.45 249.402 1437.45 246.135V172.214" stroke="#5CCED3" stroke-width="12.3202" stroke-linecap="round" stroke-linejoin="round"/>
<path d="M1289.91 363.986H1296.07C1300.97 363.986 1305.67 365.933 1309.13 369.399C1312.6 372.864 1314.55 377.565 1314.55 382.466C1314.55 387.367 1312.6 392.068 1309.13 395.534C1305.67 398.999 1300.97 400.946 1296.07 400.946H1289.91" stroke="#5CCED3" stroke-width="12.3202" stroke-linecap="round" stroke-linejoin="round"/>
<path d="M1240.63 370.146V407.106" stroke="#5CCED3" stroke-width="12.3202" stroke-linecap="round" stroke-linejoin="round"/>
<path d="M1265.27 370.146V407.106" stroke="#5CCED3" stroke-width="12.3202" stroke-linecap="round" stroke-linejoin="round"/>
<path d="M1271.44 342.425C1265.28 342.425 1262.57 345.505 1252.96 345.505C1243.35 345.505 1240.64 342.425 1234.48 342.425C1228.32 342.425 1223.88 345.505 1219.08 345.505C1214.99 345.505 1211.07 343.883 1208.19 340.995C1205.3 338.107 1203.68 334.189 1203.68 330.105C1203.68 326.021 1205.3 322.104 1208.19 319.215C1211.07 316.327 1214.99 314.705 1219.08 314.705C1223.88 314.705 1228.75 317.785 1234.48 317.785C1240.21 317.785 1243.35 308.545 1252.96 308.545C1262.57 308.545 1265.28 317.785 1271.44 317.785C1277.6 317.785 1282.03 314.705 1286.84 314.705C1290.92 314.705 1294.84 316.327 1297.73 319.215C1300.61 322.104 1302.24 326.021 1302.24 330.105C1302.24 334.189 1300.61 338.107 1297.73 340.995C1294.84 343.883 1290.92 345.505 1286.84 345.505C1282.03 345.505 1277.6 342.425 1271.44 342.425Z" stroke="#5CCED3" stroke-width="12.3202" stroke-linecap="round" stroke-linejoin="round"/>
<path d="M1215.98 345.506V419.427C1215.98 422.695 1217.28 425.829 1219.59 428.139C1221.9 430.45 1225.03 431.748 1228.3 431.748H1277.58C1280.85 431.748 1283.98 430.45 1286.29 428.139C1288.6 425.829 1289.9 422.695 1289.9 419.427V345.506" stroke="#5CCED3" stroke-width="12.3202" stroke-linecap="round" stroke-linejoin="round"/>
<path d="M773.33 148.213C773.241 147.355 773.332 146.488 773.599 145.667C773.866 144.847 774.302 144.092 774.879 143.451C775.456 142.81 776.162 142.297 776.95 141.946C777.738 141.595 778.591 141.413 779.453 141.412H852.019C852.883 141.413 853.736 141.595 854.525 141.946C855.313 142.298 856.019 142.811 856.596 143.453C857.174 144.095 857.61 144.851 857.876 145.672C858.142 146.493 858.233 147.361 858.143 148.219L847.707 247.428C847.388 250.456 845.958 253.258 843.695 255.294C841.431 257.33 838.493 258.456 835.449 258.454H796.024C792.969 258.471 790.016 257.352 787.74 255.315C785.463 253.277 784.025 250.466 783.704 247.428L773.33 148.213Z" stroke="#5CCED3" stroke-width="12.3202" stroke-linecap="round" stroke-linejoin="round"/>
<path d="M778.793 196.854C784.124 192.855 790.609 190.694 797.273 190.694C803.938 190.694 810.422 192.855 815.754 196.854C821.085 200.852 827.57 203.014 834.234 203.014C840.898 203.014 847.383 200.852 852.714 196.854" stroke="#5CCED3" stroke-width="12.3202" stroke-linecap="round" stroke-linejoin="round"/>
<path d="M625.791 321.505C625.701 320.647 625.793 319.78 626.06 318.96C626.327 318.139 626.763 317.384 627.34 316.743C627.917 316.102 628.623 315.589 629.411 315.238C630.199 314.887 631.052 314.705 631.914 314.705H704.48C705.344 314.705 706.197 314.887 706.986 315.238C707.774 315.59 708.48 316.103 709.057 316.745C709.635 317.387 710.071 318.143 710.337 318.964C710.603 319.785 710.694 320.653 710.604 321.512L700.168 420.72C699.849 423.748 698.419 426.55 696.155 428.586C693.892 430.622 690.954 431.748 687.91 431.747H648.485C645.43 431.764 642.477 430.645 640.201 428.607C637.924 426.569 636.486 423.758 636.165 420.72L625.791 321.505Z" stroke="#5CCED3" stroke-width="12.3202" stroke-linecap="round" stroke-linejoin="round"/>
<path d="M631.254 370.146C636.585 366.147 643.07 363.986 649.734 363.986C656.399 363.986 662.883 366.147 668.215 370.146C673.546 374.145 680.031 376.306 686.695 376.306C693.359 376.306 699.844 374.145 705.175 370.146" stroke="#5CCED3" stroke-width="12.3202" stroke-linecap="round" stroke-linejoin="round"/>
<path d="M330.123 148.213C330.034 147.355 330.125 146.488 330.392 145.667C330.659 144.847 331.095 144.092 331.672 143.451C332.249 142.81 332.955 142.297 333.743 141.946C334.531 141.595 335.384 141.413 336.246 141.412H408.812C409.676 141.413 410.529 141.595 411.318 141.946C412.106 142.298 412.812 142.811 413.389 143.453C413.967 144.095 414.403 144.851 414.669 145.672C414.935 146.493 415.026 147.361 414.936 148.219L404.5 247.428C404.181 250.456 402.751 253.258 400.487 255.294C398.224 257.33 395.286 258.456 392.242 258.454H352.817C349.762 258.471 346.809 257.352 344.533 255.315C342.256 253.277 340.818 250.466 340.497 247.428L330.123 148.213Z" stroke="#5CCED3" stroke-width="12.3202" stroke-linecap="round" stroke-linejoin="round"/>
<path d="M335.582 196.854C340.913 192.855 347.398 190.694 354.062 190.694C360.727 190.694 367.211 192.855 372.543 196.854C377.874 200.852 384.359 203.014 391.023 203.014C397.687 203.014 404.172 200.852 409.503 196.854" stroke="#5CCED3" stroke-width="12.3202" stroke-linecap="round" stroke-linejoin="round"/>
<path d="M182.584 321.505C182.494 320.647 182.586 319.78 182.853 318.96C183.12 318.139 183.556 317.384 184.133 316.743C184.71 316.102 185.416 315.589 186.204 315.238C186.992 314.887 187.845 314.705 188.707 314.705H261.273C262.137 314.705 262.99 314.887 263.779 315.238C264.567 315.59 265.273 316.103 265.85 316.745C266.428 317.387 266.864 318.143 267.13 318.964C267.396 319.785 267.487 320.653 267.397 321.512L256.961 420.72C256.642 423.748 255.212 426.55 252.948 428.586C250.685 430.622 247.747 431.748 244.703 431.747H205.278C202.223 431.764 199.27 430.645 196.994 428.607C194.717 426.569 193.279 423.758 192.958 420.72L182.584 321.505Z" stroke="#5CCED3" stroke-width="12.3202" stroke-linecap="round" stroke-linejoin="round"/>
<path d="M188.039 370.146C193.371 366.147 199.855 363.986 206.519 363.986C213.184 363.986 219.668 366.147 225 370.146C230.331 374.145 236.816 376.306 243.48 376.306C250.144 376.306 256.629 374.145 261.96 370.146" stroke="#5CCED3" stroke-width="12.3202" stroke-linecap="round" stroke-linejoin="round"/>
<path d="M1216.4 148.213C1216.31 147.355 1216.4 146.488 1216.67 145.667C1216.94 144.847 1217.37 144.092 1217.95 143.451C1218.53 142.81 1219.23 142.297 1220.02 141.946C1220.81 141.595 1221.66 141.413 1222.52 141.412H1295.09C1295.95 141.413 1296.81 141.595 1297.6 141.946C1298.38 142.298 1299.09 142.811 1299.67 143.453C1300.24 144.095 1300.68 144.851 1300.95 145.672C1301.21 146.493 1301.3 147.361 1301.21 148.219L1290.78 247.428C1290.46 250.456 1289.03 253.258 1286.76 255.294C1284.5 257.33 1281.56 258.456 1278.52 258.454H1239.09C1236.04 258.471 1233.09 257.352 1230.81 255.315C1228.53 253.277 1227.09 250.466 1226.77 247.428L1216.4 148.213Z" stroke="#5CCED3" stroke-width="12.3202" stroke-linecap="round" stroke-linejoin="round"/>
<path d="M1221.86 196.854C1227.19 192.855 1233.68 190.694 1240.34 190.694C1247.01 190.694 1253.49 192.855 1258.82 196.854C1264.16 200.852 1270.64 203.014 1277.3 203.014C1283.97 203.014 1290.45 200.852 1295.78 196.854" stroke="#5CCED3" stroke-width="12.3202" stroke-linecap="round" stroke-linejoin="round"/>
<path d="M1659.31 141.281C1659.22 140.423 1659.31 139.556 1659.58 138.736C1659.84 137.915 1660.28 137.16 1660.86 136.519C1661.43 135.878 1662.14 135.365 1662.93 135.014C1663.71 134.663 1664.57 134.481 1665.43 134.48H1738C1738.86 134.481 1739.71 134.663 1740.5 135.014C1741.29 135.366 1742 135.879 1742.57 136.521C1743.15 137.163 1743.59 137.919 1743.85 138.74C1744.12 139.561 1744.21 140.429 1744.12 141.287L1733.68 240.496C1733.36 243.524 1731.93 246.326 1729.67 248.362C1727.41 250.398 1724.47 251.524 1721.43 251.523H1682C1678.95 251.539 1675.99 250.42 1673.72 248.383C1671.44 246.345 1670 243.534 1669.68 240.496L1659.31 141.281Z" stroke="#5CCED3" stroke-width="12.3202" stroke-linecap="round" stroke-linejoin="round"/>
<path d="M1664.77 189.921C1670.1 185.922 1676.58 183.76 1683.25 183.76C1689.91 183.76 1696.39 185.922 1701.73 189.921C1707.06 193.919 1713.54 196.081 1720.21 196.081C1726.87 196.081 1733.36 193.919 1738.69 189.921" stroke="#5CCED3" stroke-width="12.3202" stroke-linecap="round" stroke-linejoin="round"/>
<path d="M1068.86 321.505C1068.77 320.647 1068.86 319.78 1069.13 318.96C1069.4 318.139 1069.83 317.384 1070.41 316.743C1070.99 316.102 1071.69 315.589 1072.48 315.238C1073.27 314.887 1074.12 314.705 1074.98 314.705H1147.55C1148.41 314.705 1149.27 314.887 1150.06 315.238C1150.84 315.59 1151.55 316.103 1152.13 316.745C1152.7 317.387 1153.14 318.143 1153.41 318.964C1153.67 319.785 1153.76 320.653 1153.67 321.512L1143.24 420.72C1142.92 423.748 1141.49 426.55 1139.23 428.586C1136.96 430.622 1134.02 431.748 1130.98 431.747H1091.56C1088.5 431.764 1085.55 430.645 1083.27 428.607C1080.99 426.569 1079.56 423.758 1079.24 420.72L1068.86 321.505Z" stroke="#5CCED3" stroke-width="12.3202" stroke-linecap="round" stroke-linejoin="round"/>
<path d="M1074.3 370.146C1079.63 366.147 1086.12 363.986 1092.78 363.986C1099.45 363.986 1105.93 366.147 1111.26 370.146C1116.59 374.145 1123.08 376.306 1129.74 376.306C1136.41 376.306 1142.89 374.145 1148.22 370.146" stroke="#5CCED3" stroke-width="12.3202" stroke-linecap="round" stroke-linejoin="round"/>
<path d="M643.25 258.455H692.531" stroke="#5CCED3" stroke-width="12.3202" stroke-linecap="round" stroke-linejoin="round"/>
<path d="M637.098 184.533H698.699" stroke="#5CCED3" stroke-width="12.3202" stroke-linecap="round" stroke-linejoin="round"/>
<path d="M667.898 215.334V258.455" stroke="#5CCED3" stroke-width="12.3202" stroke-linecap="round" stroke-linejoin="round"/>
<path d="M667.898 215.334C676.067 215.334 683.901 212.089 689.677 206.313C695.454 200.536 698.699 192.702 698.699 184.533C698.699 172.213 695.619 159.893 686.379 135.252H649.418C640.178 159.893 637.098 172.213 637.098 184.533C637.098 192.702 640.343 200.536 646.119 206.313C651.895 212.089 659.729 215.334 667.898 215.334Z" stroke="#5CCED3" stroke-width="12.3202" stroke-linecap="round" stroke-linejoin="round"/>
<path d="M495.703 431.747H544.984" stroke="#5CCED3" stroke-width="12.3202" stroke-linecap="round" stroke-linejoin="round"/>
<path d="M489.543 357.826H551.144" stroke="#5CCED3" stroke-width="12.3202" stroke-linecap="round" stroke-linejoin="round"/>
<path d="M520.344 388.626V431.747" stroke="#5CCED3" stroke-width="12.3202" stroke-linecap="round" stroke-linejoin="round"/>
<path d="M520.343 388.626C528.512 388.626 536.347 385.381 542.123 379.605C547.899 373.829 551.144 365.994 551.144 357.826C551.144 345.505 548.064 333.185 538.824 308.545H501.863C492.623 333.185 489.543 345.505 489.543 357.826C489.543 365.994 492.788 373.829 498.564 379.605C504.34 385.381 512.175 388.626 520.343 388.626Z" stroke="#5CCED3" stroke-width="12.3202" stroke-linecap="round" stroke-linejoin="round"/>
<path d="M1529.53 258.455H1578.81" stroke="#5CCED3" stroke-width="12.3202" stroke-linecap="round" stroke-linejoin="round"/>
<path d="M1523.38 184.533H1584.98" stroke="#5CCED3" stroke-width="12.3202" stroke-linecap="round" stroke-linejoin="round"/>
<path d="M1554.17 215.334V258.454" stroke="#5CCED3" stroke-width="12.3202" stroke-linecap="round" stroke-linejoin="round"/>
<path d="M1554.18 215.334C1562.34 215.334 1570.18 212.089 1575.95 206.313C1581.73 200.536 1584.98 192.702 1584.98 184.533C1584.98 172.213 1581.9 159.893 1572.66 135.252H1535.7C1526.46 159.893 1523.38 172.213 1523.38 184.533C1523.38 192.702 1526.62 200.536 1532.4 206.313C1538.17 212.089 1546.01 215.334 1554.18 215.334Z" stroke="#5CCED3" stroke-width="12.3202" stroke-linecap="round" stroke-linejoin="round"/>
<path d="M1382 431.747H1431.28" stroke="#5CCED3" stroke-width="12.3202" stroke-linecap="round" stroke-linejoin="round"/>
<path d="M1375.83 357.826H1437.43" stroke="#5CCED3" stroke-width="12.3202" stroke-linecap="round" stroke-linejoin="round"/>
<path d="M1406.63 388.626V431.747" stroke="#5CCED3" stroke-width="12.3202" stroke-linecap="round" stroke-linejoin="round"/>
<path d="M1406.63 388.626C1414.8 388.626 1422.63 385.381 1428.41 379.605C1434.18 373.829 1437.43 365.994 1437.43 357.826C1437.43 345.505 1434.35 333.185 1425.11 308.545H1388.15C1378.91 333.185 1375.83 345.505 1375.83 357.826C1375.83 365.994 1379.07 373.829 1384.85 379.605C1390.63 385.381 1398.46 388.626 1406.63 388.626Z" stroke="#5CCED3" stroke-width="12.3202" stroke-linecap="round" stroke-linejoin="round"/>
<path d="M200.074 258.455H249.355" stroke="#5CCED3" stroke-width="12.3202" stroke-linecap="round" stroke-linejoin="round"/>
<path d="M193.91 184.533H255.511" stroke="#5CCED3" stroke-width="12.3202" stroke-linecap="round" stroke-linejoin="round"/>
<path d="M224.723 215.334V258.455" stroke="#5CCED3" stroke-width="12.3202" stroke-linecap="round" stroke-linejoin="round"/>
<path d="M224.711 215.334C232.879 215.334 240.714 212.089 246.49 206.313C252.266 200.536 255.511 192.702 255.511 184.533C255.511 172.213 252.431 159.893 243.191 135.252H206.23C196.99 159.893 193.91 172.213 193.91 184.533C193.91 192.702 197.155 200.536 202.931 206.313C208.708 212.089 216.542 215.334 224.711 215.334Z" stroke="#5CCED3" stroke-width="12.3202" stroke-linecap="round" stroke-linejoin="round"/>
<path d="M1086.31 258.455H1135.59" stroke="#5CCED3" stroke-width="12.3202" stroke-linecap="round" stroke-linejoin="round"/>
<path d="M1080.16 184.533H1141.76" stroke="#5CCED3" stroke-width="12.3202" stroke-linecap="round" stroke-linejoin="round"/>
<path d="M1110.96 215.334V258.454" stroke="#5CCED3" stroke-width="12.3202" stroke-linecap="round" stroke-linejoin="round"/>
<path d="M1110.96 215.334C1119.13 215.334 1126.96 212.089 1132.74 206.313C1138.51 200.536 1141.76 192.702 1141.76 184.533C1141.76 172.213 1138.68 159.893 1129.44 135.252H1092.48C1083.24 159.893 1080.16 172.213 1080.16 184.533C1080.16 192.702 1083.4 200.536 1089.18 206.313C1094.95 212.089 1102.79 215.334 1110.96 215.334Z" stroke="#5CCED3" stroke-width="12.3202" stroke-linecap="round" stroke-linejoin="round"/>
<path d="M938.781 431.747H988.062" stroke="#5CCED3" stroke-width="12.3202" stroke-linecap="round" stroke-linejoin="round"/>
<path d="M932.621 357.826H994.222" stroke="#5CCED3" stroke-width="12.3202" stroke-linecap="round" stroke-linejoin="round"/>
<path d="M963.414 388.626V431.747" stroke="#5CCED3" stroke-width="12.3202" stroke-linecap="round" stroke-linejoin="round"/>
<path d="M963.422 388.626C971.59 388.626 979.425 385.381 985.201 379.605C990.977 373.829 994.222 365.994 994.222 357.826C994.222 345.505 991.142 333.185 981.902 308.545H944.941C935.701 333.185 932.621 345.505 932.621 357.826C932.621 365.994 935.866 373.829 941.642 379.605C947.419 385.381 955.253 388.626 963.422 388.626Z" stroke="#5CCED3" stroke-width="12.3202" stroke-linecap="round" stroke-linejoin="round"/>
<path d="M1732.82 363.986H1738.98C1743.88 363.986 1748.58 365.933 1752.04 369.399C1755.51 372.864 1757.46 377.565 1757.46 382.466C1757.46 387.367 1755.51 392.068 1752.04 395.534C1748.58 398.999 1743.88 400.946 1738.98 400.946H1732.82" stroke="#5CCED3" stroke-width="12.3202" stroke-linecap="round" stroke-linejoin="round"/>
<path d="M1683.54 370.146V407.106" stroke="#5CCED3" stroke-width="12.3202" stroke-linecap="round" stroke-linejoin="round"/>
<path d="M1708.17 370.146V407.106" stroke="#5CCED3" stroke-width="12.3202" stroke-linecap="round" stroke-linejoin="round"/>
<path d="M1714.34 342.425C1708.18 342.425 1705.47 345.505 1695.86 345.505C1686.25 345.505 1683.54 342.425 1677.38 342.425C1671.22 342.425 1666.79 345.505 1661.98 345.505C1657.9 345.505 1653.98 343.883 1651.09 340.995C1648.2 338.107 1646.58 334.189 1646.58 330.105C1646.58 326.021 1648.2 322.104 1651.09 319.215C1653.98 316.327 1657.9 314.705 1661.98 314.705C1666.79 314.705 1671.65 317.785 1677.38 317.785C1683.11 317.785 1686.25 308.545 1695.86 308.545C1705.47 308.545 1708.18 317.785 1714.34 317.785C1720.5 317.785 1724.94 314.705 1729.74 314.705C1733.83 314.705 1737.74 316.327 1740.63 319.215C1743.52 322.104 1745.14 326.021 1745.14 330.105C1745.14 334.189 1743.52 338.107 1740.63 340.995C1737.74 343.883 1733.83 345.505 1729.74 345.505C1724.94 345.505 1720.5 342.425 1714.34 342.425Z" stroke="#5CCED3" stroke-width="12.3202" stroke-linecap="round" stroke-linejoin="round"/>
<path d="M1658.9 345.506V419.427C1658.9 422.695 1660.2 425.829 1662.51 428.139C1664.82 430.45 1667.96 431.748 1671.22 431.748H1720.5C1723.77 431.748 1726.9 430.45 1729.22 428.139C1731.53 425.829 1732.82 422.695 1732.82 419.427V345.506" stroke="#5CCED3" stroke-width="12.3202" stroke-linecap="round" stroke-linejoin="round"/>
<path d="M1511.75 321.505C1511.66 320.647 1511.75 319.78 1512.02 318.96C1512.29 318.139 1512.72 317.384 1513.3 316.743C1513.88 316.102 1514.58 315.589 1515.37 315.238C1516.16 314.887 1517.01 314.705 1517.88 314.705H1590.44C1591.3 314.705 1592.16 314.887 1592.95 315.238C1593.74 315.59 1594.44 316.103 1595.02 316.745C1595.6 317.387 1596.03 318.143 1596.3 318.964C1596.56 319.785 1596.66 320.653 1596.56 321.512L1586.13 420.72C1585.81 423.748 1584.38 426.55 1582.12 428.586C1579.85 430.622 1576.92 431.748 1573.87 431.747H1534.45C1531.39 431.764 1528.44 430.645 1526.16 428.607C1523.88 426.569 1522.45 423.758 1522.13 420.72L1511.75 321.505Z" stroke="#5CCED3" stroke-width="12.3202" stroke-linecap="round" stroke-linejoin="round"/>
<path d="M1517.22 370.146C1522.55 366.147 1529.04 363.986 1535.7 363.986C1542.37 363.986 1548.85 366.147 1554.18 370.146C1559.51 374.145 1566 376.306 1572.66 376.306C1579.33 376.306 1585.81 374.145 1591.14 370.146" stroke="#5CCED3" stroke-width="12.3202" stroke-linecap="round" stroke-linejoin="round"/>
<path d="M249.73 537.279H255.891C260.792 537.279 265.492 539.226 268.958 542.692C272.424 546.157 274.371 550.858 274.371 555.759C274.371 560.66 272.424 565.361 268.958 568.827C265.492 572.292 260.792 574.239 255.891 574.239H249.73" stroke="#5CCED3" stroke-width="12.3202" stroke-linecap="round" stroke-linejoin="round"/>
<path d="M200.438 543.439V580.4" stroke="#5CCED3" stroke-width="12.3202" stroke-linecap="round" stroke-linejoin="round"/>
<path d="M225.078 543.439V580.4" stroke="#5CCED3" stroke-width="12.3202" stroke-linecap="round" stroke-linejoin="round"/>
<path d="M231.261 515.719C225.101 515.719 222.391 518.799 212.781 518.799C203.171 518.799 200.461 515.719 194.301 515.719C188.14 515.719 183.705 518.799 178.9 518.799C174.816 518.799 170.899 517.176 168.011 514.288C165.123 511.4 163.5 507.483 163.5 503.399C163.5 499.314 165.123 495.397 168.011 492.509C170.899 489.621 174.816 487.998 178.9 487.998C183.705 487.998 188.572 491.078 194.301 491.078C200.029 491.078 203.171 481.838 212.781 481.838C222.391 481.838 225.101 491.078 231.261 491.078C237.421 491.078 241.857 487.998 246.661 487.998C250.746 487.998 254.663 489.621 257.551 492.509C260.439 495.397 262.062 499.314 262.062 503.399C262.062 507.483 260.439 511.4 257.551 514.288C254.663 517.176 250.746 518.799 246.661 518.799C241.857 518.799 237.421 515.719 231.261 515.719Z" stroke="#5CCED3" stroke-width="12.3202" stroke-linecap="round" stroke-linejoin="round"/>
<path d="M175.801 518.799V592.72C175.801 595.988 177.099 599.122 179.409 601.432C181.72 603.743 184.853 605.041 188.121 605.041H237.402C240.669 605.041 243.803 603.743 246.114 601.432C248.424 599.122 249.722 595.988 249.722 592.72V518.799" stroke="#5CCED3" stroke-width="12.3202" stroke-linecap="round" stroke-linejoin="round"/>
<path d="M1136 537.279H1142.16C1147.06 537.279 1151.76 539.226 1155.23 542.692C1158.69 546.157 1160.64 550.858 1160.64 555.759C1160.64 560.66 1158.69 565.361 1155.23 568.827C1151.76 572.292 1147.06 574.239 1142.16 574.239H1136" stroke="#5CCED3" stroke-width="12.3202" stroke-linecap="round" stroke-linejoin="round"/>
<path d="M1086.72 543.439V580.4" stroke="#5CCED3" stroke-width="12.3202" stroke-linecap="round" stroke-linejoin="round"/>
<path d="M1111.36 543.439V580.4" stroke="#5CCED3" stroke-width="12.3202" stroke-linecap="round" stroke-linejoin="round"/>
<path d="M1117.51 515.719C1111.35 515.719 1108.64 518.799 1099.03 518.799C1089.42 518.799 1086.71 515.719 1080.55 515.719C1074.39 515.719 1069.95 518.799 1065.15 518.799C1061.06 518.799 1057.14 517.176 1054.26 514.288C1051.37 511.4 1049.75 507.483 1049.75 503.399C1049.75 499.314 1051.37 495.397 1054.26 492.509C1057.14 489.621 1061.06 487.998 1065.15 487.998C1069.95 487.998 1074.82 491.078 1080.55 491.078C1086.28 491.078 1089.42 481.838 1099.03 481.838C1108.64 481.838 1111.35 491.078 1117.51 491.078C1123.67 491.078 1128.1 487.998 1132.91 487.998C1136.99 487.998 1140.91 489.621 1143.8 492.509C1146.69 495.397 1148.31 499.314 1148.31 503.399C1148.31 507.483 1146.69 511.4 1143.8 514.288C1140.91 517.176 1136.99 518.799 1132.91 518.799C1128.1 518.799 1123.67 515.719 1117.51 515.719Z" stroke="#5CCED3" stroke-width="12.3202" stroke-linecap="round" stroke-linejoin="round"/>
<path d="M1062.07 518.799V592.72C1062.07 595.988 1063.37 599.122 1065.68 601.432C1067.99 603.743 1071.13 605.041 1074.39 605.041H1123.68C1126.94 605.041 1130.08 603.743 1132.39 601.432C1134.7 599.122 1136 595.988 1136 592.72V518.799" stroke="#5CCED3" stroke-width="12.3202" stroke-linecap="round" stroke-linejoin="round"/>
<path d="M692.773 537.279H698.934C703.835 537.279 708.535 539.226 712.001 542.692C715.467 546.157 717.414 550.858 717.414 555.759C717.414 560.66 715.467 565.361 712.001 568.827C708.535 572.292 703.835 574.239 698.934 574.239H692.773" stroke="#5CCED3" stroke-width="12.3202" stroke-linecap="round" stroke-linejoin="round"/>
<path d="M643.508 543.439V580.4" stroke="#5CCED3" stroke-width="12.3202" stroke-linecap="round" stroke-linejoin="round"/>
<path d="M668.141 543.439V580.4" stroke="#5CCED3" stroke-width="12.3202" stroke-linecap="round" stroke-linejoin="round"/>
<path d="M674.296 515.719C668.136 515.719 665.426 518.799 655.816 518.799C646.206 518.799 643.496 515.719 637.336 515.719C631.176 515.719 626.74 518.799 621.935 518.799C617.851 518.799 613.934 517.176 611.046 514.288C608.158 511.4 606.535 507.483 606.535 503.399C606.535 499.314 608.158 495.397 611.046 492.509C613.934 489.621 617.851 487.998 621.935 487.998C626.74 487.998 631.607 491.078 637.336 491.078C643.065 491.078 646.206 481.838 655.816 481.838C665.426 481.838 668.136 491.078 674.296 491.078C680.456 491.078 684.892 487.998 689.697 487.998C693.781 487.998 697.698 489.621 700.586 492.509C703.474 495.397 705.097 499.314 705.097 503.399C705.097 507.483 703.474 511.4 700.586 514.288C697.698 517.176 693.781 518.799 689.697 518.799C684.892 518.799 680.456 515.719 674.296 515.719Z" stroke="#5CCED3" stroke-width="12.3202" stroke-linecap="round" stroke-linejoin="round"/>
<path d="M618.855 518.799V592.72C618.855 595.988 620.153 599.122 622.464 601.432C624.774 603.743 627.908 605.041 631.176 605.041H680.457C683.724 605.041 686.858 603.743 689.168 601.432C691.479 599.122 692.777 595.988 692.777 592.72V518.799" stroke="#5CCED3" stroke-width="12.3202" stroke-linecap="round" stroke-linejoin="round"/>
<path d="M1579.06 537.279H1585.22C1590.12 537.279 1594.82 539.226 1598.29 542.692C1601.75 546.157 1603.7 550.858 1603.7 555.759C1603.7 560.66 1601.75 565.361 1598.29 568.827C1594.82 572.292 1590.12 574.239 1585.22 574.239H1579.06" stroke="#5CCED3" stroke-width="12.3202" stroke-linecap="round" stroke-linejoin="round"/>
<path d="M1529.77 543.439V580.4" stroke="#5CCED3" stroke-width="12.3202" stroke-linecap="round" stroke-linejoin="round"/>
<path d="M1554.43 543.439V580.4" stroke="#5CCED3" stroke-width="12.3202" stroke-linecap="round" stroke-linejoin="round"/>
<path d="M1560.59 515.719C1554.43 515.719 1551.71 518.799 1542.11 518.799C1532.5 518.799 1529.78 515.719 1523.62 515.719C1517.46 515.719 1513.03 518.799 1508.22 518.799C1504.14 518.799 1500.22 517.176 1497.33 514.288C1494.45 511.4 1492.82 507.483 1492.82 503.399C1492.82 499.314 1494.45 495.397 1497.33 492.509C1500.22 489.621 1504.14 487.998 1508.22 487.998C1513.03 487.998 1517.9 491.078 1523.62 491.078C1529.35 491.078 1532.5 481.838 1542.11 481.838C1551.71 481.838 1554.43 491.078 1560.59 491.078C1566.75 491.078 1571.18 487.998 1575.99 487.998C1580.07 487.998 1583.99 489.621 1586.88 492.509C1589.76 495.397 1591.39 499.314 1591.39 503.399C1591.39 507.483 1589.76 511.4 1586.88 514.288C1583.99 517.176 1580.07 518.799 1575.99 518.799C1571.18 518.799 1566.75 515.719 1560.59 515.719Z" stroke="#5CCED3" stroke-width="12.3202" stroke-linecap="round" stroke-linejoin="round"/>
<path d="M1505.14 518.799V592.72C1505.14 595.988 1506.44 599.122 1508.75 601.432C1511.06 603.743 1514.19 605.041 1517.46 605.041H1566.74C1570.01 605.041 1573.14 603.743 1575.45 601.432C1577.76 599.122 1579.06 595.988 1579.06 592.72V518.799" stroke="#5CCED3" stroke-width="12.3202" stroke-linecap="round" stroke-linejoin="round"/>
<path d="M914.928 494.799C914.838 493.941 914.93 493.074 915.197 492.254C915.463 491.433 915.899 490.678 916.477 490.037C917.054 489.396 917.759 488.883 918.547 488.532C919.335 488.181 920.188 487.999 921.051 487.999H993.617C994.48 487.999 995.334 488.181 996.122 488.532C996.911 488.884 997.617 489.397 998.194 490.039C998.771 490.681 999.207 491.437 999.474 492.258C999.74 493.079 999.831 493.947 999.74 494.805L989.305 594.014C988.985 597.042 987.556 599.844 985.292 601.88C983.029 603.916 980.091 605.042 977.046 605.041H937.622C934.566 605.057 931.614 603.938 929.337 601.901C927.061 599.863 925.622 597.052 925.302 594.014L914.928 494.799Z" stroke="#5CCED3" stroke-width="12.3202" stroke-linecap="round" stroke-linejoin="round"/>
<path d="M920.395 543.439C925.726 539.44 932.211 537.279 938.875 537.279C945.539 537.279 952.024 539.44 957.355 543.439C962.687 547.438 969.171 549.599 975.835 549.599C982.5 549.599 988.984 547.438 994.316 543.439" stroke="#5CCED3" stroke-width="12.3202" stroke-linecap="round" stroke-linejoin="round"/>
<path d="M471.74 494.799C471.651 493.941 471.742 493.074 472.009 492.254C472.276 491.433 472.712 490.678 473.289 490.037C473.866 489.396 474.572 488.883 475.36 488.532C476.148 488.181 477.001 487.999 477.864 487.999H550.43C551.293 487.999 552.146 488.181 552.935 488.532C553.723 488.884 554.429 489.397 555.007 490.039C555.584 490.681 556.02 491.437 556.286 492.258C556.553 493.079 556.643 493.947 556.553 494.805L546.118 594.014C545.798 597.042 544.368 599.844 542.105 601.88C539.841 603.916 536.904 605.042 533.859 605.041H494.434C491.379 605.057 488.426 603.938 486.15 601.901C483.873 599.863 482.435 597.052 482.114 594.014L471.74 494.799Z" stroke="#5CCED3" stroke-width="12.3202" stroke-linecap="round" stroke-linejoin="round"/>
<path d="M477.191 543.439C482.523 539.44 489.007 537.279 495.672 537.279C502.336 537.279 508.821 539.44 514.152 543.439C519.483 547.438 525.968 549.599 532.632 549.599C539.297 549.599 545.781 547.438 551.113 543.439" stroke="#5CCED3" stroke-width="12.3202" stroke-linecap="round" stroke-linejoin="round"/>
<path d="M1358 494.799C1357.91 493.941 1358 493.074 1358.27 492.254C1358.53 491.433 1358.97 490.678 1359.55 490.037C1360.12 489.396 1360.83 488.883 1361.62 488.532C1362.41 488.181 1363.26 487.999 1364.12 487.999H1436.69C1437.55 487.999 1438.4 488.181 1439.19 488.532C1439.98 488.884 1440.69 489.397 1441.26 490.039C1441.84 490.681 1442.28 491.437 1442.54 492.258C1442.81 493.079 1442.9 493.947 1442.81 494.805L1432.38 594.014C1432.06 597.042 1430.63 599.844 1428.36 601.88C1426.1 603.916 1423.16 605.042 1420.12 605.041H1380.69C1377.64 605.057 1374.68 603.938 1372.41 601.901C1370.13 599.863 1368.69 597.052 1368.37 594.014L1358 494.799Z" stroke="#5CCED3" stroke-width="12.3202" stroke-linecap="round" stroke-linejoin="round"/>
<path d="M1363.45 543.439C1368.78 539.44 1375.27 537.279 1381.93 537.279C1388.6 537.279 1395.08 539.44 1400.41 543.439C1405.75 547.438 1412.23 549.599 1418.89 549.599C1425.56 549.599 1432.04 547.438 1437.37 543.439" stroke="#5CCED3" stroke-width="12.3202" stroke-linecap="round" stroke-linejoin="round"/>
<path d="M784.887 605.041H834.168" stroke="#5CCED3" stroke-width="12.3202" stroke-linecap="round" stroke-linejoin="round"/>
<path d="M778.723 531.119H840.324" stroke="#5CCED3" stroke-width="12.3202" stroke-linecap="round" stroke-linejoin="round"/>
<path d="M809.539 561.919V605.04" stroke="#5CCED3" stroke-width="12.3202" stroke-linecap="round" stroke-linejoin="round"/>
<path d="M809.523 561.92C817.692 561.92 825.526 558.674 831.302 552.898C837.079 547.122 840.324 539.288 840.324 531.119C840.324 518.799 837.244 506.479 828.004 481.838H791.043C781.803 506.479 778.723 518.799 778.723 531.119C778.723 539.288 781.968 547.122 787.744 552.898C793.52 558.674 801.354 561.92 809.523 561.92Z" stroke="#5CCED3" stroke-width="12.3202" stroke-linecap="round" stroke-linejoin="round"/>
<path d="M1671.12 605.041H1720.4" stroke="#5CCED3" stroke-width="12.3202" stroke-linecap="round" stroke-linejoin="round"/>
<path d="M1664.96 531.119H1726.57" stroke="#5CCED3" stroke-width="12.3202" stroke-linecap="round" stroke-linejoin="round"/>
<path d="M1695.77 561.919V605.04" stroke="#5CCED3" stroke-width="12.3202" stroke-linecap="round" stroke-linejoin="round"/>
<path d="M1695.77 561.92C1703.93 561.92 1711.77 558.674 1717.54 552.898C1723.32 547.122 1726.57 539.288 1726.57 531.119C1726.57 518.799 1723.49 506.479 1714.25 481.838H1677.29C1668.04 506.479 1664.96 518.799 1664.96 531.119C1664.96 539.288 1668.21 547.122 1673.99 552.898C1679.76 558.674 1687.6 561.92 1695.77 561.92Z" stroke="#5CCED3" stroke-width="12.3202" stroke-linecap="round" stroke-linejoin="round"/>
<path d="M341.676 605.041H390.957" stroke="#5CCED3" stroke-width="12.3202" stroke-linecap="round" stroke-linejoin="round"/>
<path d="M335.516 531.119H397.117" stroke="#5CCED3" stroke-width="12.3202" stroke-linecap="round" stroke-linejoin="round"/>
<path d="M366.305 561.919V605.04" stroke="#5CCED3" stroke-width="12.3202" stroke-linecap="round" stroke-linejoin="round"/>
<path d="M366.316 561.92C374.485 561.92 382.319 558.674 388.095 552.898C393.872 547.122 397.117 539.288 397.117 531.119C397.117 518.799 394.037 506.479 384.796 481.838H347.836C338.596 506.479 335.516 518.799 335.516 531.119C335.516 539.288 338.761 547.122 344.537 552.898C350.313 558.674 358.147 561.92 366.316 561.92Z" stroke="#5CCED3" stroke-width="12.3202" stroke-linecap="round" stroke-linejoin="round"/>
<path d="M1227.93 605.041H1277.21" stroke="#5CCED3" stroke-width="12.3202" stroke-linecap="round" stroke-linejoin="round"/>
<path d="M1221.78 531.119H1283.38" stroke="#5CCED3" stroke-width="12.3202" stroke-linecap="round" stroke-linejoin="round"/>
<path d="M1252.58 561.919V605.04" stroke="#5CCED3" stroke-width="12.3202" stroke-linecap="round" stroke-linejoin="round"/>
<path d="M1252.58 561.92C1260.75 561.92 1268.58 558.674 1274.36 552.898C1280.13 547.122 1283.38 539.288 1283.38 531.119C1283.38 518.799 1280.3 506.479 1271.06 481.838H1234.1C1224.86 506.479 1221.78 518.799 1221.78 531.119C1221.78 539.288 1225.02 547.122 1230.8 552.898C1236.57 558.674 1244.41 561.92 1252.58 561.92Z" stroke="#5CCED3" stroke-width="12.3202" stroke-linecap="round" stroke-linejoin="round"/>
<path d="M994.391 710.57H1000.55C1005.45 710.57 1010.15 712.517 1013.62 715.983C1017.08 719.448 1019.03 724.149 1019.03 729.05C1019.03 733.951 1017.08 738.652 1013.62 742.118C1010.15 745.583 1005.45 747.53 1000.55 747.53H994.391" stroke="#5CCED3" stroke-width="12.3202" stroke-linecap="round" stroke-linejoin="round"/>
<path d="M945.109 716.729V753.69" stroke="#5CCED3" stroke-width="12.3202" stroke-linecap="round" stroke-linejoin="round"/>
<path d="M969.742 716.729V753.69" stroke="#5CCED3" stroke-width="12.3202" stroke-linecap="round" stroke-linejoin="round"/>
<path d="M975.902 689.009C969.742 689.009 967.031 692.089 957.421 692.089C947.812 692.089 945.101 689.009 938.941 689.009C932.781 689.009 928.346 692.089 923.541 692.089C919.456 692.089 915.539 690.467 912.651 687.579C909.763 684.691 908.141 680.773 908.141 676.689C908.141 672.605 909.763 668.688 912.651 665.799C915.539 662.911 919.456 661.289 923.541 661.289C928.346 661.289 933.212 664.369 938.941 664.369C944.67 664.369 947.812 655.129 957.421 655.129C967.031 655.129 969.742 664.369 975.902 664.369C982.062 664.369 986.497 661.289 991.302 661.289C995.386 661.289 999.304 662.911 1002.19 665.799C1005.08 668.688 1006.7 672.605 1006.7 676.689C1006.7 680.773 1005.08 684.691 1002.19 687.579C999.304 690.467 995.386 692.089 991.302 692.089C986.497 692.089 982.062 689.009 975.902 689.009Z" stroke="#5CCED3" stroke-width="12.3202" stroke-linecap="round" stroke-linejoin="round"/>
<path d="M920.469 692.09V766.011C920.469 769.279 921.767 772.413 924.077 774.723C926.388 777.034 929.521 778.332 932.789 778.332H982.07C985.337 778.332 988.471 777.034 990.782 774.723C993.092 772.413 994.39 769.279 994.39 766.011V692.09" stroke="#5CCED3" stroke-width="12.3202" stroke-linecap="round" stroke-linejoin="round"/>
<path d="M846.84 883.864H853C857.901 883.864 862.602 885.811 866.068 889.277C869.533 892.743 871.48 897.443 871.48 902.345C871.48 907.246 869.533 911.946 866.068 915.412C862.602 918.878 857.901 920.825 853 920.825H846.84" stroke="#5CCED3" stroke-width="12.3202" stroke-linecap="round" stroke-linejoin="round"/>
<path d="M797.547 890.024V926.985" stroke="#5CCED3" stroke-width="12.3202" stroke-linecap="round" stroke-linejoin="round"/>
<path d="M822.199 890.024V926.985" stroke="#5CCED3" stroke-width="12.3202" stroke-linecap="round" stroke-linejoin="round"/>
<path d="M828.359 862.304C822.199 862.304 819.488 865.384 809.878 865.384C800.269 865.384 797.558 862.304 791.398 862.304C785.238 862.304 780.803 865.384 775.998 865.384C771.914 865.384 767.996 863.761 765.108 860.873C762.22 857.985 760.598 854.068 760.598 849.983C760.598 845.899 762.22 841.982 765.108 839.094C767.996 836.206 771.914 834.583 775.998 834.583C780.803 834.583 785.669 837.663 791.398 837.663C797.127 837.663 800.269 828.423 809.878 828.423C819.488 828.423 822.199 837.663 828.359 837.663C834.519 837.663 838.954 834.583 843.759 834.583C847.843 834.583 851.761 836.206 854.649 839.094C857.537 841.982 859.159 845.899 859.159 849.983C859.159 854.068 857.537 857.985 854.649 860.873C851.761 863.761 847.843 865.384 843.759 865.384C838.954 865.384 834.519 862.304 828.359 862.304Z" stroke="#5CCED3" stroke-width="12.3202" stroke-linecap="round" stroke-linejoin="round"/>
<path d="M772.914 865.383V939.304C772.914 942.572 774.212 945.706 776.523 948.016C778.833 950.327 781.967 951.625 785.234 951.625H834.515C837.783 951.625 840.916 950.327 843.227 948.016C845.537 945.706 846.835 942.572 846.835 939.304V865.383" stroke="#5CCED3" stroke-width="12.3202" stroke-linecap="round" stroke-linejoin="round"/>
<path d="M551.176 710.57H557.336C562.237 710.57 566.938 712.517 570.403 715.983C573.869 719.448 575.816 724.149 575.816 729.05C575.816 733.951 573.869 738.652 570.403 742.118C566.938 745.583 562.237 747.53 557.336 747.53H551.176" stroke="#5CCED3" stroke-width="12.3202" stroke-linecap="round" stroke-linejoin="round"/>
<path d="M501.902 716.729V753.69" stroke="#5CCED3" stroke-width="12.3202" stroke-linecap="round" stroke-linejoin="round"/>
<path d="M526.551 716.729V753.69" stroke="#5CCED3" stroke-width="12.3202" stroke-linecap="round" stroke-linejoin="round"/>
<path d="M532.703 689.009C526.542 689.009 523.832 692.089 514.222 692.089C504.612 692.089 501.902 689.009 495.742 689.009C489.582 689.009 485.147 692.089 480.342 692.089C476.257 692.089 472.34 690.467 469.452 687.579C466.564 684.691 464.941 680.773 464.941 676.689C464.941 672.605 466.564 668.688 469.452 665.799C472.34 662.911 476.257 661.289 480.342 661.289C485.147 661.289 490.013 664.369 495.742 664.369C501.471 664.369 504.612 655.129 514.222 655.129C523.832 655.129 526.542 664.369 532.703 664.369C538.863 664.369 543.298 661.289 548.103 661.289C552.187 661.289 556.104 662.911 558.992 665.799C561.881 668.688 563.503 672.605 563.503 676.689C563.503 680.773 561.881 684.691 558.992 687.579C556.104 690.467 552.187 692.089 548.103 692.089C543.298 692.089 538.863 689.009 532.703 689.009Z" stroke="#5CCED3" stroke-width="12.3202" stroke-linecap="round" stroke-linejoin="round"/>
<path d="M477.25 692.09V766.011C477.25 769.279 478.548 772.413 480.859 774.723C483.169 777.034 486.303 778.332 489.57 778.332H538.851C542.119 778.332 545.252 777.034 547.563 774.723C549.873 772.413 551.171 769.279 551.171 766.011V692.09" stroke="#5CCED3" stroke-width="12.3202" stroke-linecap="round" stroke-linejoin="round"/>
<path d="M403.641 883.864H409.801C414.702 883.864 419.403 885.811 422.868 889.277C426.334 892.743 428.281 897.443 428.281 902.345C428.281 907.246 426.334 911.946 422.868 915.412C419.403 918.878 414.702 920.825 409.801 920.825H403.641" stroke="#5CCED3" stroke-width="12.3202" stroke-linecap="round" stroke-linejoin="round"/>
<path d="M354.355 890.024V926.985" stroke="#5CCED3" stroke-width="12.3202" stroke-linecap="round" stroke-linejoin="round"/>
<path d="M379.004 890.024V926.985" stroke="#5CCED3" stroke-width="12.3202" stroke-linecap="round" stroke-linejoin="round"/>
<path d="M385.16 862.304C378.999 862.304 376.289 865.384 366.679 865.384C357.07 865.384 354.359 862.304 348.199 862.304C342.039 862.304 337.604 865.384 332.799 865.384C328.714 865.384 324.797 863.761 321.909 860.873C319.021 857.985 317.398 854.068 317.398 849.983C317.398 845.899 319.021 841.982 321.909 839.094C324.797 836.206 328.714 834.583 332.799 834.583C337.604 834.583 342.47 837.663 348.199 837.663C353.928 837.663 357.07 828.423 366.679 828.423C376.289 828.423 378.999 837.663 385.16 837.663C391.32 837.663 395.755 834.583 400.56 834.583C404.644 834.583 408.561 836.206 411.449 839.094C414.338 841.982 415.96 845.899 415.96 849.983C415.96 854.068 414.338 857.985 411.449 860.873C408.561 863.761 404.644 865.384 400.56 865.384C395.755 865.384 391.32 862.304 385.16 862.304Z" stroke="#5CCED3" stroke-width="12.3202" stroke-linecap="round" stroke-linejoin="round"/>
<path d="M329.707 865.383V939.304C329.707 942.572 331.005 945.706 333.316 948.016C335.626 950.327 338.76 951.625 342.027 951.625H391.308C394.576 951.625 397.709 950.327 400.02 948.016C402.33 945.706 403.628 942.572 403.628 939.304V865.383" stroke="#5CCED3" stroke-width="12.3202" stroke-linecap="round" stroke-linejoin="round"/>
<path d="M1437.46 710.57H1443.62C1448.52 710.57 1453.22 712.517 1456.69 715.983C1460.15 719.448 1462.1 724.149 1462.1 729.05C1462.1 733.951 1460.15 738.652 1456.69 742.118C1453.22 745.583 1448.52 747.53 1443.62 747.53H1437.46" stroke="#5CCED3" stroke-width="12.3202" stroke-linecap="round" stroke-linejoin="round"/>
<path d="M1388.18 716.729V753.69" stroke="#5CCED3" stroke-width="12.3202" stroke-linecap="round" stroke-linejoin="round"/>
<path d="M1412.81 716.729V753.69" stroke="#5CCED3" stroke-width="12.3202" stroke-linecap="round" stroke-linejoin="round"/>
<path d="M1418.97 689.009C1412.81 689.009 1410.1 692.089 1400.49 692.089C1390.88 692.089 1388.17 689.009 1382.01 689.009C1375.85 689.009 1371.42 692.089 1366.61 692.089C1362.53 692.089 1358.61 690.467 1355.72 687.579C1352.83 684.691 1351.21 680.773 1351.21 676.689C1351.21 672.605 1352.83 668.688 1355.72 665.799C1358.61 662.911 1362.53 661.289 1366.61 661.289C1371.42 661.289 1376.28 664.369 1382.01 664.369C1387.74 664.369 1390.88 655.129 1400.49 655.129C1410.1 655.129 1412.81 664.369 1418.97 664.369C1425.13 664.369 1429.57 661.289 1434.37 661.289C1438.46 661.289 1442.37 662.911 1445.26 665.799C1448.15 668.688 1449.77 672.605 1449.77 676.689C1449.77 680.773 1448.15 684.691 1445.26 687.579C1442.37 690.467 1438.46 692.089 1434.37 692.089C1429.57 692.089 1425.13 689.009 1418.97 689.009Z" stroke="#5CCED3" stroke-width="12.3202" stroke-linecap="round" stroke-linejoin="round"/>
<path d="M1363.53 692.09V766.011C1363.53 769.279 1364.83 772.413 1367.14 774.723C1369.45 777.034 1372.58 778.332 1375.85 778.332H1425.13C1428.4 778.332 1431.53 777.034 1433.84 774.723C1436.15 772.413 1437.45 769.279 1437.45 766.011V692.09" stroke="#5CCED3" stroke-width="12.3202" stroke-linecap="round" stroke-linejoin="round"/>
<path d="M1289.91 883.864H1296.07C1300.97 883.864 1305.67 885.811 1309.13 889.277C1312.6 892.743 1314.55 897.443 1314.55 902.345C1314.55 907.246 1312.6 911.946 1309.13 915.412C1305.67 918.878 1300.97 920.825 1296.07 920.825H1289.91" stroke="#5CCED3" stroke-width="12.3202" stroke-linecap="round" stroke-linejoin="round"/>
<path d="M1240.63 890.024V926.985" stroke="#5CCED3" stroke-width="12.3202" stroke-linecap="round" stroke-linejoin="round"/>
<path d="M1265.27 890.024V926.985" stroke="#5CCED3" stroke-width="12.3202" stroke-linecap="round" stroke-linejoin="round"/>
<path d="M1271.44 862.304C1265.28 862.304 1262.57 865.384 1252.96 865.384C1243.35 865.384 1240.64 862.304 1234.48 862.304C1228.32 862.304 1223.88 865.384 1219.08 865.384C1214.99 865.384 1211.07 863.761 1208.19 860.873C1205.3 857.985 1203.68 854.068 1203.68 849.983C1203.68 845.899 1205.3 841.982 1208.19 839.094C1211.07 836.206 1214.99 834.583 1219.08 834.583C1223.88 834.583 1228.75 837.663 1234.48 837.663C1240.21 837.663 1243.35 828.423 1252.96 828.423C1262.57 828.423 1265.28 837.663 1271.44 837.663C1277.6 837.663 1282.03 834.583 1286.84 834.583C1290.92 834.583 1294.84 836.206 1297.73 839.094C1300.61 841.982 1302.24 845.899 1302.24 849.983C1302.24 854.068 1300.61 857.985 1297.73 860.873C1294.84 863.761 1290.92 865.384 1286.84 865.384C1282.03 865.384 1277.6 862.304 1271.44 862.304Z" stroke="#5CCED3" stroke-width="12.3202" stroke-linecap="round" stroke-linejoin="round"/>
<path d="M1215.98 865.383V939.304C1215.98 942.572 1217.28 945.706 1219.59 948.016C1221.9 950.327 1225.03 951.625 1228.3 951.625H1277.58C1280.85 951.625 1283.98 950.327 1286.29 948.016C1288.6 945.706 1289.9 942.572 1289.9 939.304V865.383" stroke="#5CCED3" stroke-width="12.3202" stroke-linecap="round" stroke-linejoin="round"/>
<path d="M773.33 668.089C773.241 667.231 773.332 666.364 773.599 665.544C773.866 664.723 774.302 663.968 774.879 663.327C775.456 662.686 776.162 662.173 776.95 661.822C777.738 661.471 778.591 661.289 779.453 661.289H852.019C852.883 661.289 853.736 661.471 854.525 661.822C855.313 662.174 856.019 662.687 856.596 663.329C857.174 663.971 857.61 664.727 857.876 665.548C858.142 666.369 858.233 667.237 858.143 668.095L847.707 767.304C847.388 770.332 845.958 773.134 843.695 775.17C841.431 777.206 838.493 778.332 835.449 778.331H796.024C792.969 778.347 790.016 777.229 787.74 775.191C785.463 773.153 784.025 770.342 783.704 767.304L773.33 668.089Z" stroke="#5CCED3" stroke-width="12.3202" stroke-linecap="round" stroke-linejoin="round"/>
<path d="M778.793 716.73C784.124 712.731 790.609 710.57 797.273 710.57C803.938 710.57 810.422 712.731 815.754 716.73C821.085 720.729 827.57 722.89 834.234 722.89C840.898 722.89 847.383 720.729 852.714 716.73" stroke="#5CCED3" stroke-width="12.3202" stroke-linecap="round" stroke-linejoin="round"/>
<path d="M625.791 841.384C625.701 840.526 625.793 839.658 626.06 838.838C626.327 838.018 626.763 837.262 627.34 836.621C627.917 835.98 628.623 835.467 629.411 835.116C630.199 834.765 631.052 834.584 631.914 834.583H704.48C705.344 834.583 706.197 834.765 706.986 835.117C707.774 835.468 708.48 835.982 709.057 836.623C709.635 837.265 710.071 838.021 710.337 838.842C710.603 839.663 710.694 840.531 710.604 841.39L700.168 940.598C699.849 943.626 698.419 946.429 696.155 948.465C693.892 950.501 690.954 951.627 687.91 951.625H648.485C645.43 951.642 642.477 950.523 640.201 948.485C637.924 946.448 636.486 943.637 636.165 940.598L625.791 841.384Z" stroke="#5CCED3" stroke-width="12.3202" stroke-linecap="round" stroke-linejoin="round"/>
<path d="M631.254 890.024C636.585 886.026 643.07 883.864 649.734 883.864C656.399 883.864 662.883 886.026 668.215 890.024C673.546 894.023 680.031 896.184 686.695 896.184C693.359 896.184 699.844 894.023 705.175 890.024" stroke="#5CCED3" stroke-width="12.3202" stroke-linecap="round" stroke-linejoin="round"/>
<path d="M330.123 668.089C330.034 667.231 330.125 666.364 330.392 665.544C330.659 664.723 331.095 663.968 331.672 663.327C332.249 662.686 332.955 662.173 333.743 661.822C334.531 661.471 335.384 661.289 336.246 661.289H408.812C409.676 661.289 410.529 661.471 411.318 661.822C412.106 662.174 412.812 662.687 413.389 663.329C413.967 663.971 414.403 664.727 414.669 665.548C414.935 666.369 415.026 667.237 414.936 668.095L404.5 767.304C404.181 770.332 402.751 773.134 400.487 775.17C398.224 777.206 395.286 778.332 392.242 778.331H352.817C349.762 778.347 346.809 777.229 344.533 775.191C342.256 773.153 340.818 770.342 340.497 767.304L330.123 668.089Z" stroke="#5CCED3" stroke-width="12.3202" stroke-linecap="round" stroke-linejoin="round"/>
<path d="M335.582 716.73C340.913 712.731 347.398 710.57 354.062 710.57C360.727 710.57 367.211 712.731 372.543 716.73C377.874 720.729 384.359 722.89 391.023 722.89C397.687 722.89 404.172 720.729 409.503 716.73" stroke="#5CCED3" stroke-width="12.3202" stroke-linecap="round" stroke-linejoin="round"/>
<path d="M182.584 841.384C182.494 840.526 182.586 839.658 182.853 838.838C183.12 838.018 183.556 837.262 184.133 836.621C184.71 835.98 185.416 835.467 186.204 835.116C186.992 834.765 187.845 834.584 188.707 834.583H261.273C262.137 834.583 262.99 834.765 263.779 835.117C264.567 835.468 265.273 835.982 265.85 836.623C266.428 837.265 266.864 838.021 267.13 838.842C267.396 839.663 267.487 840.531 267.397 841.39L256.961 940.598C256.642 943.626 255.212 946.429 252.948 948.465C250.685 950.501 247.747 951.627 244.703 951.625H205.278C202.223 951.642 199.27 950.523 196.994 948.485C194.717 946.448 193.279 943.637 192.958 940.598L182.584 841.384Z" stroke="#5CCED3" stroke-width="12.3202" stroke-linecap="round" stroke-linejoin="round"/>
<path d="M188.039 890.024C193.371 886.026 199.855 883.864 206.519 883.864C213.184 883.864 219.668 886.026 225 890.024C230.331 894.023 236.816 896.184 243.48 896.184C250.144 896.184 256.629 894.023 261.96 890.024" stroke="#5CCED3" stroke-width="12.3202" stroke-linecap="round" stroke-linejoin="round"/>
<path d="M1216.4 668.089C1216.31 667.231 1216.4 666.364 1216.67 665.544C1216.94 664.723 1217.37 663.968 1217.95 663.327C1218.53 662.686 1219.23 662.173 1220.02 661.822C1220.81 661.471 1221.66 661.289 1222.52 661.289H1295.09C1295.95 661.289 1296.81 661.471 1297.6 661.822C1298.38 662.174 1299.09 662.687 1299.67 663.329C1300.24 663.971 1300.68 664.727 1300.95 665.548C1301.21 666.369 1301.3 667.237 1301.21 668.095L1290.78 767.304C1290.46 770.332 1289.03 773.134 1286.76 775.17C1284.5 777.206 1281.56 778.332 1278.52 778.331H1239.09C1236.04 778.347 1233.09 777.229 1230.81 775.191C1228.53 773.153 1227.09 770.342 1226.77 767.304L1216.4 668.089Z" stroke="#5CCED3" stroke-width="12.3202" stroke-linecap="round" stroke-linejoin="round"/>
<path d="M1221.86 716.73C1227.19 712.731 1233.68 710.57 1240.34 710.57C1247.01 710.57 1253.49 712.731 1258.82 716.73C1264.16 720.729 1270.64 722.89 1277.3 722.89C1283.97 722.89 1290.45 720.729 1295.78 716.73" stroke="#5CCED3" stroke-width="12.3202" stroke-linecap="round" stroke-linejoin="round"/>
<path d="M1659.31 661.159C1659.22 660.301 1659.31 659.434 1659.58 658.613C1659.84 657.793 1660.28 657.038 1660.86 656.397C1661.43 655.756 1662.14 655.243 1662.93 654.892C1663.71 654.541 1664.57 654.359 1665.43 654.358H1738C1738.86 654.359 1739.71 654.541 1740.5 654.892C1741.29 655.244 1742 655.757 1742.57 656.399C1743.15 657.041 1743.59 657.797 1743.85 658.618C1744.12 659.439 1744.21 660.307 1744.12 661.165L1733.68 760.374C1733.36 763.402 1731.93 766.204 1729.67 768.24C1727.41 770.276 1724.47 771.402 1721.43 771.4H1682C1678.95 771.417 1675.99 770.298 1673.72 768.261C1671.44 766.223 1670 763.412 1669.68 760.374L1659.31 661.159Z" stroke="#5CCED3" stroke-width="12.3202" stroke-linecap="round" stroke-linejoin="round"/>
<path d="M1664.77 709.799C1670.1 705.8 1676.58 703.639 1683.25 703.639C1689.91 703.639 1696.39 705.8 1701.73 709.799C1707.06 713.797 1713.54 715.959 1720.21 715.959C1726.87 715.959 1733.36 713.797 1738.69 709.799" stroke="#5CCED3" stroke-width="12.3202" stroke-linecap="round" stroke-linejoin="round"/>
<path d="M1068.86 841.384C1068.77 840.526 1068.86 839.658 1069.13 838.838C1069.4 838.018 1069.83 837.262 1070.41 836.621C1070.99 835.98 1071.69 835.467 1072.48 835.116C1073.27 834.765 1074.12 834.584 1074.98 834.583H1147.55C1148.41 834.583 1149.27 834.765 1150.06 835.117C1150.84 835.468 1151.55 835.982 1152.13 836.623C1152.7 837.265 1153.14 838.021 1153.41 838.842C1153.67 839.663 1153.76 840.531 1153.67 841.39L1143.24 940.598C1142.92 943.626 1141.49 946.429 1139.23 948.465C1136.96 950.501 1134.02 951.627 1130.98 951.625H1091.56C1088.5 951.642 1085.55 950.523 1083.27 948.485C1080.99 946.448 1079.56 943.637 1079.24 940.598L1068.86 841.384Z" stroke="#5CCED3" stroke-width="12.3202" stroke-linecap="round" stroke-linejoin="round"/>
<path d="M1074.3 890.024C1079.63 886.026 1086.12 883.864 1092.78 883.864C1099.45 883.864 1105.93 886.026 1111.26 890.024C1116.59 894.023 1123.08 896.184 1129.74 896.184C1136.41 896.184 1142.89 894.023 1148.22 890.024" stroke="#5CCED3" stroke-width="12.3202" stroke-linecap="round" stroke-linejoin="round"/>
<path d="M643.25 778.331H692.531" stroke="#5CCED3" stroke-width="12.3202" stroke-linecap="round" stroke-linejoin="round"/>
<path d="M637.098 704.409H698.699" stroke="#5CCED3" stroke-width="12.3202" stroke-linecap="round" stroke-linejoin="round"/>
<path d="M667.898 735.21V778.331" stroke="#5CCED3" stroke-width="12.3202" stroke-linecap="round" stroke-linejoin="round"/>
<path d="M667.898 735.21C676.067 735.21 683.901 731.965 689.677 726.189C695.454 720.413 698.699 712.578 698.699 704.41C698.699 692.089 695.619 679.769 686.379 655.129H649.418C640.178 679.769 637.098 692.089 637.098 704.41C637.098 712.578 640.343 720.413 646.119 726.189C651.895 731.965 659.729 735.21 667.898 735.21Z" stroke="#5CCED3" stroke-width="12.3202" stroke-linecap="round" stroke-linejoin="round"/>
<path d="M495.703 951.625H544.984" stroke="#5CCED3" stroke-width="12.3202" stroke-linecap="round" stroke-linejoin="round"/>
<path d="M489.543 877.704H551.144" stroke="#5CCED3" stroke-width="12.3202" stroke-linecap="round" stroke-linejoin="round"/>
<path d="M520.344 908.504V951.625" stroke="#5CCED3" stroke-width="12.3202" stroke-linecap="round" stroke-linejoin="round"/>
<path d="M520.343 908.504C528.512 908.504 536.347 905.259 542.123 899.483C547.899 893.707 551.144 885.873 551.144 877.704C551.144 865.384 548.064 853.064 538.824 828.423H501.863C492.623 853.064 489.543 865.384 489.543 877.704C489.543 885.873 492.788 893.707 498.564 899.483C504.34 905.259 512.175 908.504 520.343 908.504Z" stroke="#5CCED3" stroke-width="12.3202" stroke-linecap="round" stroke-linejoin="round"/>
<path d="M1529.53 778.331H1578.81" stroke="#5CCED3" stroke-width="12.3202" stroke-linecap="round" stroke-linejoin="round"/>
<path d="M1523.38 704.409H1584.98" stroke="#5CCED3" stroke-width="12.3202" stroke-linecap="round" stroke-linejoin="round"/>
<path d="M1554.17 735.21V778.331" stroke="#5CCED3" stroke-width="12.3202" stroke-linecap="round" stroke-linejoin="round"/>
<path d="M1554.18 735.21C1562.34 735.21 1570.18 731.965 1575.95 726.189C1581.73 720.413 1584.98 712.578 1584.98 704.41C1584.98 692.089 1581.9 679.769 1572.66 655.129H1535.7C1526.46 679.769 1523.38 692.089 1523.38 704.41C1523.38 712.578 1526.62 720.413 1532.4 726.189C1538.17 731.965 1546.01 735.21 1554.18 735.21Z" stroke="#5CCED3" stroke-width="12.3202" stroke-linecap="round" stroke-linejoin="round"/>
<path d="M1382 951.625H1431.28" stroke="#5CCED3" stroke-width="12.3202" stroke-linecap="round" stroke-linejoin="round"/>
<path d="M1375.83 877.704H1437.43" stroke="#5CCED3" stroke-width="12.3202" stroke-linecap="round" stroke-linejoin="round"/>
<path d="M1406.63 908.504V951.625" stroke="#5CCED3" stroke-width="12.3202" stroke-linecap="round" stroke-linejoin="round"/>
<path d="M1406.63 908.504C1414.8 908.504 1422.63 905.259 1428.41 899.483C1434.18 893.707 1437.43 885.873 1437.43 877.704C1437.43 865.384 1434.35 853.064 1425.11 828.423H1388.15C1378.91 853.064 1375.83 865.384 1375.83 877.704C1375.83 885.873 1379.07 893.707 1384.85 899.483C1390.63 905.259 1398.46 908.504 1406.63 908.504Z" stroke="#5CCED3" stroke-width="12.3202" stroke-linecap="round" stroke-linejoin="round"/>
<path d="M200.074 778.331H249.355" stroke="#5CCED3" stroke-width="12.3202" stroke-linecap="round" stroke-linejoin="round"/>
<path d="M193.91 704.409H255.511" stroke="#5CCED3" stroke-width="12.3202" stroke-linecap="round" stroke-linejoin="round"/>
<path d="M224.723 735.21V778.331" stroke="#5CCED3" stroke-width="12.3202" stroke-linecap="round" stroke-linejoin="round"/>
<path d="M224.711 735.21C232.879 735.21 240.714 731.965 246.49 726.189C252.266 720.413 255.511 712.578 255.511 704.41C255.511 692.089 252.431 679.769 243.191 655.129H206.23C196.99 679.769 193.91 692.089 193.91 704.41C193.91 712.578 197.155 720.413 202.931 726.189C208.708 731.965 216.542 735.21 224.711 735.21Z" stroke="#5CCED3" stroke-width="12.3202" stroke-linecap="round" stroke-linejoin="round"/>
<path d="M1086.31 778.331H1135.59" stroke="#5CCED3" stroke-width="12.3202" stroke-linecap="round" stroke-linejoin="round"/>
<path d="M1080.16 704.409H1141.76" stroke="#5CCED3" stroke-width="12.3202" stroke-linecap="round" stroke-linejoin="round"/>
<path d="M1110.96 735.21V778.331" stroke="#5CCED3" stroke-width="12.3202" stroke-linecap="round" stroke-linejoin="round"/>
<path d="M1110.96 735.21C1119.13 735.21 1126.96 731.965 1132.74 726.189C1138.51 720.413 1141.76 712.578 1141.76 704.41C1141.76 692.089 1138.68 679.769 1129.44 655.129H1092.48C1083.24 679.769 1080.16 692.089 1080.16 704.41C1080.16 712.578 1083.4 720.413 1089.18 726.189C1094.95 731.965 1102.79 735.21 1110.96 735.21Z" stroke="#5CCED3" stroke-width="12.3202" stroke-linecap="round" stroke-linejoin="round"/>
<path d="M938.781 951.625H988.062" stroke="#5CCED3" stroke-width="12.3202" stroke-linecap="round" stroke-linejoin="round"/>
<path d="M932.621 877.704H994.222" stroke="#5CCED3" stroke-width="12.3202" stroke-linecap="round" stroke-linejoin="round"/>
<path d="M963.414 908.504V951.625" stroke="#5CCED3" stroke-width="12.3202" stroke-linecap="round" stroke-linejoin="round"/>
<path d="M963.422 908.504C971.59 908.504 979.425 905.259 985.201 899.483C990.977 893.707 994.222 885.873 994.222 877.704C994.222 865.384 991.142 853.064 981.902 828.423H944.941C935.701 853.064 932.621 865.384 932.621 877.704C932.621 885.873 935.866 893.707 941.642 899.483C947.419 905.259 955.253 908.504 963.422 908.504Z" stroke="#5CCED3" stroke-width="12.3202" stroke-linecap="round" stroke-linejoin="round"/>
<path d="M1732.82 883.864H1738.98C1743.88 883.864 1748.58 885.811 1752.04 889.277C1755.51 892.743 1757.46 897.443 1757.46 902.345C1757.46 907.246 1755.51 911.946 1752.04 915.412C1748.58 918.878 1743.88 920.825 1738.98 920.825H1732.82" stroke="#5CCED3" stroke-width="12.3202" stroke-linecap="round" stroke-linejoin="round"/>
<path d="M1683.54 890.024V926.985" stroke="#5CCED3" stroke-width="12.3202" stroke-linecap="round" stroke-linejoin="round"/>
<path d="M1708.17 890.024V926.985" stroke="#5CCED3" stroke-width="12.3202" stroke-linecap="round" stroke-linejoin="round"/>
<path d="M1714.34 862.304C1708.18 862.304 1705.47 865.384 1695.86 865.384C1686.25 865.384 1683.54 862.304 1677.38 862.304C1671.22 862.304 1666.79 865.384 1661.98 865.384C1657.9 865.384 1653.98 863.761 1651.09 860.873C1648.2 857.985 1646.58 854.068 1646.58 849.983C1646.58 845.899 1648.2 841.982 1651.09 839.094C1653.98 836.206 1657.9 834.583 1661.98 834.583C1666.79 834.583 1671.65 837.663 1677.38 837.663C1683.11 837.663 1686.25 828.423 1695.86 828.423C1705.47 828.423 1708.18 837.663 1714.34 837.663C1720.5 837.663 1724.94 834.583 1729.74 834.583C1733.83 834.583 1737.74 836.206 1740.63 839.094C1743.52 841.982 1745.14 845.899 1745.14 849.983C1745.14 854.068 1743.52 857.985 1740.63 860.873C1737.74 863.761 1733.83 865.384 1729.74 865.384C1724.94 865.384 1720.5 862.304 1714.34 862.304Z" stroke="#5CCED3" stroke-width="12.3202" stroke-linecap="round" stroke-linejoin="round"/>
<path d="M1658.9 865.383V939.304C1658.9 942.572 1660.2 945.706 1662.51 948.016C1664.82 950.327 1667.96 951.625 1671.22 951.625H1720.5C1723.77 951.625 1726.9 950.327 1729.22 948.016C1731.53 945.706 1732.82 942.572 1732.82 939.304V865.383" stroke="#5CCED3" stroke-width="12.3202" stroke-linecap="round" stroke-linejoin="round"/>
<path d="M1511.75 841.384C1511.66 840.526 1511.75 839.658 1512.02 838.838C1512.29 838.018 1512.72 837.262 1513.3 836.621C1513.88 835.98 1514.58 835.467 1515.37 835.116C1516.16 834.765 1517.01 834.584 1517.88 834.583H1590.44C1591.3 834.583 1592.16 834.765 1592.95 835.117C1593.74 835.468 1594.44 835.982 1595.02 836.623C1595.6 837.265 1596.03 838.021 1596.3 838.842C1596.56 839.663 1596.66 840.531 1596.56 841.39L1586.13 940.598C1585.81 943.626 1584.38 946.429 1582.12 948.465C1579.85 950.501 1576.92 951.627 1573.87 951.625H1534.45C1531.39 951.642 1528.44 950.523 1526.16 948.485C1523.88 946.448 1522.45 943.637 1522.13 940.598L1511.75 841.384Z" stroke="#5CCED3" stroke-width="12.3202" stroke-linecap="round" stroke-linejoin="round"/>
<path d="M1517.22 890.024C1522.55 886.026 1529.04 883.864 1535.7 883.864C1542.37 883.864 1548.85 886.026 1554.18 890.024C1559.51 894.023 1566 896.184 1572.66 896.184C1579.33 896.184 1585.81 894.023 1591.14 890.024" stroke="#5CCED3" stroke-width="12.3202" stroke-linecap="round" stroke-linejoin="round"/>
</g>
<defs>
<clipPath id="clip0_959_2355">
<rect width="1920" height="1080" fill="white"/>
</clipPath>
</defs>
</svg>
