<svg xmlns="http://www.w3.org/2000/svg" width="230" height="139" fill="none"><path fill="#5BCBD0" d="M35.888 7.7Q39.68.766 45.72.317q17.924-.913 35.048.803 17.117 1.723 32.449 10.898c11.589 6.981 20.028 15.902 25.327 26.767q6.84 14.15 5.57 31.01-.897 11.985-9.589 23.663c-5.794 7.776-11.673 14.243-17.626 19.402q-10.261 8.937-21.702 14.15-11.627 5.425-24.523 7.402-16.225 2.523-32.262.954a815 815 0 0 1-31.72-3.758q-5.047-.539-6.075-2.971-1.046-2.426-.318-5.945c3.177-16.346 7.94-35.949 14.28-58.804Q24.091 29.59 35.89 7.7m68.394 61.552q1.08-6.93-5.402-12.972-2.524-2.074-5.757-4.15-9.744-5.417-20.917-6.86a31 31 0 0 0-5.682-.355c-2.159.187-4.075.912-5.757 2.169-.85.598-2.037 2.878-3.57 6.841q-2.299 5.946-4.598 13.028a259 259 0 0 0-3.907 13.196c-1.084 4.09-1.542 6.496-1.364 7.216q.092.806.542 1.177 4.24 2.434 9.925 3.683a43.9 43.9 0 0 0 11.252.897q7.4-.26 16.58-2.73c6.131-1.653 10.664-4.77 13.608-9.345q3.792-5.755 5.047-11.794M219.018 125.89q-1.348 6.042-9.456 9.645c-4.565 2.159-9.85 3.234-15.855 3.234-7.089 0-12.379-1.374-15.868-4.131-3.192-2.402-4.392-5.29-3.605-8.654.845-3.664 3.643-6.757 8.39-9.29 4.56-2.514 10.176-3.776 16.843-3.776q10.374 0 15.773 4.318 4.956 3.777 3.778 8.654m.374-30.636q.167 1.445.168 2.972-.099 1.443-.614 2.43-.733 1.177-2.266 1.795c-1.022.663-2.405 1.14-4.147 1.439q-4.952 1.086-11.122 1.009-6.17-.091-11.14-1.009c-3.543-.533-6.298-2.486-8.28-5.851q-1.815-2.705-2.88-6.673c-.672-1.855-1.248-4.229-1.719-7.121q-.547-2.973-.806-7.29a122 122 0 0 0-.24-3.57 46 46 0 0 1-.135-3.552 93 93 0 0 1-.091-6.841 36 36 0 0 1 0-3.383q.093-1.753.279-3.477.092-1.977.638-6.841c.173-2.168.437-4.454.802-6.86a380 380 0 0 1 1.665-12.3c.634-4.112 1.848-8.177 3.643-12.205q2.447-6.127 6.672-9.907c1.748-1.63 5.021-2.981 9.836-4.056 4.132-.785 8.673-1.089 13.608-.916q7.192.378 11.793 1.907c3.312 1.196 4.906 2.7 4.786 4.504q-.1.807-.639 2.692-.265.73-1.344 3.065-4.507 9.385-5.961 21.328a3553 3553 0 0 0-2.597 21.944 155 155 0 0 0-1.459 18.43 89 89 0 0 0 1.55 18.337"/></svg>