<svg xmlns="http://www.w3.org/2000/svg" width="1920" height="1080" fill="none"><path fill="#5BCBD0" d="M794.365 410.17c5.309-9.706 12.188-14.877 20.647-15.505 25.093-1.276 49.626-.717 73.6 1.688 23.963 2.414 46.682 10.039 68.143 22.884 24.337 14.661 42.06 33.395 53.185 56.21q14.37 29.72 11.7 65.121c-1.26 16.78-7.97 33.346-20.14 49.695-12.166 16.328-24.51 29.91-37.013 40.744-14.366 12.512-29.557 22.414-45.572 29.715-16.281 7.595-33.444 12.776-51.5 15.543q-34.073 5.3-67.751 2.003a1710 1710 0 0 1-66.612-7.891c-7.066-.755-11.315-2.835-12.757-6.24-1.462-3.396-1.688-7.557-.668-12.483 6.673-34.327 16.673-75.493 29.99-123.49q19.974-72.024 44.748-117.994m143.627 129.26c1.511-9.706-2.267-18.783-11.344-27.242-3.533-2.904-7.566-5.809-12.09-8.714-13.64-7.585-28.282-12.384-43.925-14.406-4.16-.628-8.144-.873-11.932-.746-4.534.393-8.557 1.914-12.09 4.554-1.786 1.256-4.278 6.045-7.498 14.367-3.218 8.321-6.437 17.447-9.655 27.359-3.2 9.891-5.927 19.136-8.204 27.712-2.277 8.587-3.239 13.641-2.866 15.152q.194 1.693 1.138 2.473c5.937 3.405 12.885 5.986 20.843 7.733A92 92 0 0 0 864 589.556c10.363-.363 21.962-2.277 34.817-5.731 12.875-3.474 22.394-10.019 28.577-19.626q7.963-12.084 10.598-24.769M1178.94 658.369q-2.835 12.69-19.86 20.255c-9.59 4.534-20.69 6.791-33.3 6.791-14.88 0-25.99-2.885-33.32-8.675-6.7-5.044-9.22-11.109-7.57-18.174 1.77-7.694 7.65-14.19 17.62-19.509 9.58-5.28 21.37-7.929 35.37-7.929 14.53 0 25.56 3.022 33.12 9.067 6.94 5.29 9.59 11.344 7.94 18.174m.78-64.335c.23 2.022.35 4.102.35 6.241-.14 2.021-.56 3.72-1.29 5.103-1.02 1.649-2.61 2.905-4.75 3.769-2.15 1.393-5.05 2.394-8.71 3.022-6.94 1.521-14.72 2.227-23.36 2.12-8.64-.128-16.44-.835-23.39-2.12-7.44-1.119-13.23-5.221-17.39-12.287-2.54-3.787-4.56-8.458-6.05-14.013-1.41-3.896-2.62-8.88-3.61-14.955-.76-4.161-1.33-9.264-1.69-15.309-.13-2.531-.3-5.034-.51-7.497a97 97 0 0 1-.28-7.458c-.23-4.416-.3-9.205-.19-14.367a77 77 0 0 1 0-7.104c.13-2.454.32-4.887.59-7.301.13-2.768.57-7.557 1.34-14.367.36-4.553.91-9.352 1.68-14.406a810 810 0 0 1 3.5-25.828c1.33-8.636 3.88-17.174 7.65-25.633 3.43-8.576 8.09-15.514 14.01-20.804 3.67-3.425 10.54-6.261 20.65-8.518 8.68-1.648 18.22-2.286 28.58-1.923 10.07.53 18.33 1.865 24.77 4.004 6.95 2.512 10.3 5.672 10.05 9.46-.14 1.128-.59 3.012-1.34 5.652-.38 1.021-1.31 3.17-2.83 6.438-6.31 13.14-10.48 28.066-12.52 44.787-2.02 16.703-3.84 32.06-5.45 46.083a326 326 0 0 0-3.06 38.704c-.25 12.934.83 25.77 3.25 38.507"/></svg>