<svg xmlns="http://www.w3.org/2000/svg" width="194" height="201" fill="none"><path fill="url(#a)" d="M76.095 177.019c.775 1.342 2.321 1.754 3.863 1.208 29.773-1.208 34.194-5.101 56.178 14.998.987 1.353 2.636 1.709 3.979.935s1.805-2.349 1.179-3.91c-5.158-29.263-5.158-32.138 15.09-56.113 1.244-1.061 1.607-2.575.832-3.916-.774-1.339-2.267-1.782-3.78-1.185-34.578 5.101-34.578 5.101-56.178-14.998-1.07-1.376-2.668-1.759-4.008-.986-1.342.774-1.86 2.377-1.15 3.961 5.158 30.746 0 41.323-15.09 56.113-1.273 1.01-1.689 2.555-.915 3.893"/><path fill="url(#b)" fill-rule="evenodd" d="M181.36 15.796c14.876 17.268 15.645 43.707 7.379 63.577-2.534 6.089-9.527 8.973-15.621 6.442s-8.981-9.52-6.448-15.609c5.808-13.961 4.023-30.188-3.423-38.83-3.43-3.983-8.464-6.937-16.061-7.425-7.901-.508-19.11 1.651-34.147 9.331-25.278 12.91-46.577 33.27-62.098 55.279-15.611 22.137-24.732 45.016-26.659 62.352-.966 8.694-.019 15.015 1.832 19.05 1.626 3.547 4.026 5.648 7.944 6.599 4.506 1.094 12.01.85 23.489-3.292 11.353-4.096 25.67-11.676 43.22-23.899 5.415-3.77 12.863-2.441 16.636 2.969 3.774 5.41 2.444 12.852-2.97 16.623-18.597 12.951-34.806 21.73-48.769 26.768-13.837 4.993-26.442 6.661-37.25 4.036C17.02 197 8.9 189.752 4.387 179.911c-4.288-9.352-5.1-20.456-3.858-31.633 2.49-22.404 13.651-49.047 30.875-73.472C48.72 50.254 72.808 27.01 102.161 12.019 119.622 3.1 135.184-.751 148.72.12c13.841.89 24.91 6.702 32.64 15.676" clip-rule="evenodd"/><defs><linearGradient id="a" x1="97" x2="97" y1="0" y2="201" gradientUnits="userSpaceOnUse"><stop stop-color="#CB63FD"/><stop offset="1" stop-color="#8263FD"/></linearGradient><linearGradient id="b" x1="97" x2="97" y1="0" y2="201" gradientUnits="userSpaceOnUse"><stop stop-color="#CB63FD"/><stop offset="1" stop-color="#8263FD"/></linearGradient></defs></svg>