<?xml version="1.0" encoding="UTF-8"?><svg id="Calque_2" xmlns="http://www.w3.org/2000/svg" viewBox="0 0 3648.01 2049.75"><defs><style>.cls-1{fill:#222;}</style></defs><g id="Calque_2-2"><polygon class="cls-1" points=".01 0 .01 227 190 226.13 190 0 .01 0"/><path class="cls-1" d="m177.15,0C98.37,49.79,26.28,39.32.01,32.92v217.15c46.62,6.5,214.59,17,370.71-134.96v132.8s258.78,29.54,386.43-135.61v114.76l203.21-.94V0H177.15Z"/><path class="cls-1" d="m563.98,0c-99.11,62.63-187.64,29.88-187.64,29.88l-2.1,218.02s199.84,45.78,383.32-132.8v132.8s258.78,29.54,386.43-135.61v114.76l203.21-.94V0h-783.22Z"/><path class="cls-1" d="m947.51,0c-99.12,62.65-187.66,29.89-187.66,29.89l-2.1,218.02s199.84,45.78,383.32-132.8v132.8s258.78,29.54,386.43-135.61v114.76l203.21-.94V0h-783.2Z"/><path class="cls-1" d="m1334.35,0c-99.12,62.64-187.65,29.88-187.65,29.88l-2.1,218.02s199.84,45.78,383.32-132.8v132.8s258.78,29.54,386.43-135.61v114.76l156.24-.73V0h-736.24Z"/><path class="cls-1" d="m1718.07,0c-100.46,62.64-190.2,29.88-190.2,29.88l-2.13,218.02s202.56,45.78,388.53-132.8v132.8s70.44,7.92,156.33-7.42V0h-352.53Z"/><path class="cls-1" d="m190,352.16S100.75,338.9.01,365.74v342.4l189.99-.82v-355.17h0Z"/><path class="cls-1" d="m195.33,485.88l-.58-135.55S99.49,340.93.01,369.03v359.54c53.7,3.14,262.95,6.09,373.62-127.18v106.81l203.21-.88v-355.17s-245.16-36.47-381.51,133.72h.01Z"/><path class="cls-1" d="m578.84,485.88l-.58-135.55s-218.84-21.62-339.54,98.52c-100.15,99.66-205.67,86.15-238.72,78.65v202.1c46.62,6.06,214.59,15.82,370.71-125.62v123.6s258.78,27.49,386.43-126.21v106.81l203.21-.88v-355.17s-245.16-36.47-381.51,133.72h.01Z"/><path class="cls-1" d="m376.34,524.67l-2.1,202.92h0s199.84,42.62,383.32-123.6v123.6s258.78,27.49,386.43-126.21v106.81l203.21-.88v-355.17s-245.16-36.47-381.51,133.72l-.58-135.55s-218.84-21.62-339.54,98.52c-120.71,120.12-249.23,75.83-249.23,75.83h.01Z"/><path class="cls-1" d="m759.85,524.68l-2.1,202.92h0s199.84,42.62,383.32-123.6v123.6s258.78,27.49,386.43-126.21v106.81l203.21-.88v-355.17s-245.16-36.47-381.51,133.72l-.58-135.55s-218.84-21.62-339.54,98.52c-120.71,120.12-249.23,75.83-249.23,75.83h.01Z"/><path class="cls-1" d="m1736.05,485.89l-.58-135.55s-218.84-21.62-339.54,98.52c-120.71,120.12-249.23,75.83-249.23,75.83l-2.1,202.92s199.84,42.62,383.32-123.6v123.6s258.78,27.49,386.43-126.21v106.81l156.24-.68v-358.57c-77.92-1.39-235.14,12.84-334.54,136.92h0Z"/><path class="cls-1" d="m1779.44,448.85c-120.71,120.12-249.23,75.83-249.23,75.83l-2.1,202.92s199.84,42.62,383.32-123.6v123.6s72.21,7.66,159.15-7.75v-370.98c-71.42.96-205.81,15.04-291.15,99.98h0Z"/><path class="cls-1" d="m190,865.13S100.75,851.86.01,878.7v342.4l189.99-.82v-355.17h0Z"/><path class="cls-1" d="m195.33,998.85l-.58-135.55S99.49,853.91.01,882.01v359.54c53.7,3.14,262.95,6.09,373.62-127.18v106.81l203.21-.88v-355.17s-245.16-36.47-381.51,133.72h.01Z"/><path class="cls-1" d="m578.84,998.85l-.58-135.55s-218.84-21.62-339.54,98.52c-100.15,99.66-205.67,86.15-238.72,78.65v202.1c46.62,6.06,214.59,15.82,370.71-125.62v123.6s258.78,27.49,386.43-126.21v106.81l203.21-.88v-355.17s-245.16-36.47-381.51,133.72h.01Z"/><path class="cls-1" d="m376.34,1037.65l-2.1,202.92h0s199.84,42.62,383.32-123.6v123.6s258.78,27.49,386.43-126.21v106.81l203.21-.88v-355.17s-245.16-36.47-381.51,133.72l-.58-135.55s-218.84-21.62-339.54,98.52c-120.71,120.12-249.23,75.83-249.23,75.83h.01Z"/><path class="cls-1" d="m759.85,1037.66l-2.1,202.92h0s199.84,42.62,383.32-123.6v123.6s258.78,27.49,386.43-126.21v106.81l203.21-.88v-355.17s-245.16-36.47-381.51,133.72l-.58-135.55s-218.84-21.62-339.54,98.52c-120.71,120.12-249.23,75.83-249.23,75.83h.01Z"/><path class="cls-1" d="m1736.05,998.85l-.58-135.55s-218.84-21.62-339.54,98.52c-120.71,120.12-249.23,75.83-249.23,75.83l-2.1,202.92s199.84,42.62,383.32-123.6v123.6s258.78,27.49,386.43-126.21v106.81l156.24-.68v-358.57c-77.92-1.39-235.14,12.84-334.54,136.92h0Z"/><path class="cls-1" d="m1779.44,961.83c-120.71,120.12-249.23,75.83-249.23,75.83l-2.1,202.92s199.84,42.62,383.32-123.6v123.6s72.21,7.66,159.15-7.75v-370.98c-71.42.96-205.81,15.04-291.15,99.98h0Z"/><path class="cls-1" d="m190,1344.46s-89.25-13.27-189.99,13.57v342.4l189.99-.82v-355.17h0Z"/><path class="cls-1" d="m195.33,1478.17l-.58-135.55S99.49,1333.23.01,1361.33v359.54c53.7,3.14,262.95,6.09,373.62-127.18v106.81l203.21-.88v-355.17s-245.16-36.47-381.51,133.72h.01Z"/><path class="cls-1" d="m578.84,1478.17l-.58-135.55s-218.84-21.62-339.54,98.52c-100.15,99.66-205.67,86.15-238.72,78.65v202.1c46.62,6.06,214.59,15.82,370.71-125.62v123.6s258.78,27.49,386.43-126.21v106.81l203.21-.88v-355.17s-245.16-36.47-381.51,133.72h.01Z"/><path class="cls-1" d="m376.34,1516.97l-2.1,202.92h0s199.84,42.62,383.32-123.6v123.6s258.78,27.49,386.43-126.21v106.81l203.21-.88v-355.17s-245.16-36.47-381.51,133.72l-.58-135.55s-218.84-21.62-339.54,98.52c-120.71,120.12-249.23,75.83-249.23,75.83h.01Z"/><path class="cls-1" d="m759.85,1516.99l-2.1,202.92h0s199.84,42.62,383.32-123.6v123.6s258.78,27.49,386.43-126.21v106.81l203.21-.88v-355.17s-245.16-36.47-381.51,133.72l-.58-135.55s-218.84-21.62-339.54,98.52c-120.71,120.12-249.23,75.83-249.23,75.83h.01Z"/><path class="cls-1" d="m1736.05,1478.18l-.58-135.55s-218.84-21.62-339.54,98.52c-120.71,120.12-249.23,75.83-249.23,75.83l-2.1,202.92s199.84,42.62,383.32-123.6v123.6s258.78,27.49,386.43-126.21v106.81l156.24-.68v-358.57c-77.92-1.39-235.14,12.84-334.54,136.92h0Z"/><path class="cls-1" d="m1779.44,1441.15c-120.71,120.12-249.23,75.83-249.23,75.83l-2.1,202.92s199.84,42.62,383.32-123.6v123.6s72.21,7.66,159.15-7.75v-370.98c-71.42.96-205.81,15.04-291.15,99.98h0Z"/><path class="cls-1" d="m190,1857.53s-89.25-13.64-189.99,13.95v178.26h189.99v-192.22Z"/><path class="cls-1" d="m576.83,1857.53h.01s-245.16-37.49-381.51,137.42l-.58-139.31S99.48,1845.99,0,1874.86v174.89h576.83v-192.22Z"/><path class="cls-1" d="m1347.2,1857.53h0s-245.16-37.49-381.51,137.42l-.58-139.31s-218.84-22.22-339.54,101.26c-120.71,123.45-249.23,77.94-249.23,77.94l-.15,14.91h971.01v-192.22Z"/><path class="cls-1" d="m1730.72,1857.54h.01s-245.16-37.49-381.51,137.42l-.58-139.31s-218.84-22.22-339.54,101.26c-120.71,123.45-249.23,77.94-249.23,77.94l-.15,14.9h971.01v-192.21Z"/><path class="cls-1" d="m2070.58,1854.25h.01c-77.92-1.44-235.14,13.2-334.54,140.7l-.58-139.31s-218.84-22.22-339.54,101.26c-120.71,123.45-249.23,77.94-249.23,77.94l-.15,14.91h924.04v-195.5Z"/><polygon class="cls-1" points="2070.58 1854.15 2070.58 1854.15 2070.59 1854.15 2070.58 1854.15"/><path class="cls-1" d="m2070.58,1854.15c-71.43.99-205.8,15.46-291.14,102.75-120.71,123.45-249.23,77.94-249.23,77.94l-.15,14.91h540.52v-195.6Z"/><polygon class="cls-1" points="1911.97 0 1911.97 227 2101.96 226.13 2101.96 0 1911.97 0"/><path class="cls-1" d="m2089.11,0c-78.77,49.79-150.86,39.32-177.14,32.92v217.15c46.62,6.5,214.59,17,370.71-134.96v132.8s258.78,29.54,386.43-135.61v114.76l203.21-.94V0h-783.21Z"/><path class="cls-1" d="m2475.95,0c-99.11,62.63-187.64,29.88-187.64,29.88l-2.1,218.02s199.84,45.78,383.32-132.8v132.8s258.78,29.54,386.43-135.61v114.76l203.21-.94V0h-783.22Z"/><path class="cls-1" d="m2859.48,0h0c-99.12,62.65-187.66,29.89-187.66,29.89l-2.1,218.02s199.84,45.78,383.32-132.8v132.8s258.78,29.54,386.43-135.61v114.76l155.2-.72V0h-735.19Z"/><path class="cls-1" d="m3246.31,0c-99.12,62.64-187.65,29.88-187.65,29.88l-2.1,218.02s199.84,45.78,383.32-132.8v132.8s69.8,7.96,154.79-7.52V0h-348.36Z"/><path class="cls-1" d="m3439.83,29.88l-2.13,218.02s65.87,14.87,156.96-5.45V18.55c-85.23,36.72-154.84,11.33-154.84,11.33Z"/><path class="cls-1" d="m2101.96,352.16s-89.25-13.27-189.99,13.57v342.4l189.99-.82v-355.17h0Z"/><path class="cls-1" d="m2107.3,485.88l-.58-135.55s-95.26-9.4-194.74,18.7v359.54c53.7,3.14,262.95,6.09,373.62-127.18v106.81l203.21-.88v-355.17s-245.16-36.47-381.51,133.72h.01Z"/><path class="cls-1" d="m2490.81,485.88l-.58-135.55s-218.84-21.62-339.54,98.52c-100.15,99.66-205.67,86.15-238.72,78.65v202.1c46.62,6.06,214.59,15.82,370.71-125.62v123.6s258.78,27.49,386.43-126.21v106.81l203.21-.88v-355.17s-245.16-36.47-381.51,133.72h.01Z"/><path class="cls-1" d="m2288.3,524.67l-2.1,202.92h0s199.84,42.62,383.32-123.6v123.6s258.78,27.49,386.43-126.21v106.81l203.21-.88v-355.17s-245.16-36.47-381.51,133.72l-.58-135.55s-218.84-21.62-339.54,98.52c-120.71,120.12-249.23,75.83-249.23,75.83h.01Z"/><path class="cls-1" d="m3261.16,485.88l-.58-135.55s-218.84-21.62-339.54,98.52c-120.31,119.72-248.38,76.12-249.22,75.83l-2.1,202.91s199.84,42.62,383.32-123.6v123.6s258.78,27.49,386.43-126.21v106.81l155.2-.67v-358.59c-78.27-1.25-234.54,13.41-333.5,136.93Z"/><polygon class="cls-1" points="2671.8 524.68 2671.81 524.69 2671.81 524.68 2671.8 524.68"/><path class="cls-1" d="m3648.01,485.89h0s0,0-.01,0h.01Z"/><path class="cls-1" d="m3307.89,448.86c-120.71,120.12-249.23,75.83-249.23,75.83l-2.1,202.92s199.84,42.62,383.32-123.6v123.6s69.81,7.41,154.79-7v-371.65c-72.42,1.48-203.15,16.67-286.78,99.91Z"/><path class="cls-1" d="m3442.17,524.68l-2.1,202.92s64.86,13.81,154.59-5.02v-208.31c-83.97,34.02-152.5,10.41-152.5,10.41Z"/><path class="cls-1" d="m2101.96,865.13s-89.25-13.27-189.99,13.57v342.4l189.99-.82v-355.17h0Z"/><path class="cls-1" d="m2107.3,998.85l-.58-135.55s-95.26-9.4-194.74,18.7v359.54c53.7,3.14,262.95,6.09,373.62-127.18v106.81l203.21-.88v-355.17s-245.16-36.47-381.51,133.72h.01Z"/><path class="cls-1" d="m2490.81,998.85l-.58-135.55s-218.84-21.62-339.54,98.52c-100.15,99.66-205.67,86.15-238.72,78.65v202.1c46.62,6.06,214.59,15.82,370.71-125.62v123.6s258.78,27.49,386.43-126.21v106.81l203.21-.88v-355.17s-245.16-36.47-381.51,133.72h.01Z"/><path class="cls-1" d="m2288.3,1037.65l-2.1,202.92h0s199.84,42.62,383.32-123.6v123.6s258.78,27.49,386.43-126.21v106.81l203.21-.88v-355.17s-245.16-36.47-381.51,133.72l-.58-135.55s-218.84-21.62-339.54,98.52c-120.71,120.12-249.23,75.83-249.23,75.83h.01Z"/><path class="cls-1" d="m3261.16,998.85l-.58-135.55s-218.84-21.62-339.54,98.52c-120.31,119.72-248.38,76.12-249.22,75.83l-2.1,202.91s199.84,42.62,383.32-123.6v123.6s258.78,27.49,386.43-126.21v106.81l155.2-.67v-358.59c-78.27-1.25-234.54,13.42-333.5,136.93Z"/><polygon class="cls-1" points="2671.8 1037.66 2671.81 1037.66 2671.81 1037.66 2671.8 1037.66"/><path class="cls-1" d="m3648.01,998.85h0s0,0-.01,0h.01Z"/><path class="cls-1" d="m3307.89,961.83c-120.71,120.12-249.23,75.83-249.23,75.83l-2.1,202.92s199.84,42.62,383.32-123.6v123.6s69.81,7.41,154.79-7v-371.65c-72.42,1.48-203.15,16.67-286.78,99.91Z"/><path class="cls-1" d="m3442.17,1037.66l-2.1,202.92s64.86,13.81,154.59-5.02v-208.31c-83.97,34.02-152.5,10.41-152.5,10.41Z"/><path class="cls-1" d="m2101.96,1344.46s-89.25-13.27-189.99,13.57v342.4l189.99-.82v-355.17h0Z"/><path class="cls-1" d="m2107.3,1478.17l-.58-135.55s-95.26-9.4-194.74,18.7v359.54c53.7,3.14,262.95,6.09,373.62-127.18v106.81l203.21-.88v-355.17s-245.16-36.47-381.51,133.72h.01Z"/><path class="cls-1" d="m2490.81,1478.17l-.58-135.55s-218.84-21.62-339.54,98.52c-100.15,99.66-205.67,86.15-238.72,78.65v202.1c46.62,6.06,214.59,15.82,370.71-125.62v123.6s258.78,27.49,386.43-126.21v106.81l203.21-.88v-355.17s-245.16-36.47-381.51,133.72h.01Z"/><path class="cls-1" d="m2288.3,1516.97l-2.1,202.92h0s199.84,42.62,383.32-123.6v123.6s258.78,27.49,386.43-126.21v106.81l203.21-.88v-355.17s-245.16-36.47-381.51,133.72l-.58-135.55s-218.84-21.62-339.54,98.52c-120.71,120.12-249.23,75.83-249.23,75.83h.01Z"/><path class="cls-1" d="m3261.16,1478.18l-.58-135.55s-218.84-21.62-339.54,98.52c-120.3,119.72-248.38,76.12-249.22,75.83l-2.1,202.91s199.84,42.62,383.32-123.6v123.6s258.78,27.49,386.43-126.21v106.81l155.2-.67v-358.59c-78.27-1.25-234.54,13.42-333.5,136.93Z"/><polygon class="cls-1" points="2671.8 1516.99 2671.81 1516.99 2671.81 1516.99 2671.8 1516.99"/><path class="cls-1" d="m3648.01,1478.18h0s0,0-.01,0h.01Z"/><path class="cls-1" d="m3307.89,1441.16c-120.71,120.12-249.23,75.83-249.23,75.83l-2.1,202.92s199.84,42.62,383.32-123.6v123.6s69.81,7.41,154.79-7v-371.65c-72.42,1.48-203.15,16.67-286.78,99.91Z"/><path class="cls-1" d="m3442.17,1516.98l-2.1,202.92s64.86,13.81,154.59-5.01v-208.31c-83.97,34.02-152.5,10.41-152.5,10.41Z"/><path class="cls-1" d="m2101.96,1857.53s-89.25-13.64-189.99,13.95v178.26h189.99v-192.22Z"/><path class="cls-1" d="m2488.79,1857.53h0s-245.16-37.49-381.51,137.42l-.58-139.31s-95.26-9.66-194.74,19.22v174.89h576.83v-192.22Z"/><path class="cls-1" d="m3259.16,1857.53h0s-245.16-37.49-381.51,137.42l-.58-139.31s-218.84-22.22-339.54,101.26c-120.71,123.45-249.23,77.94-249.23,77.94l-.15,14.91h971.01v-192.22Z"/><path class="cls-1" d="m3594.67,1854.23c-78.27-1.28-234.54,13.79-333.49,140.73l-.58-139.31s-218.84-22.22-339.54,101.26c-120.71,123.45-249.23,77.94-249.23,77.94l-.15,14.9h923v-195.52Z"/><path class="cls-1" d="m3594.67,1854.22c-72.42,1.52-203.15,17.13-286.78,102.68-120.71,123.45-249.23,77.94-249.23,77.94l-.15,14.91h536.17v-195.53Z"/><path class="cls-1" d="m3594.67,2024.13c-83.97,34.96-152.5,10.7-152.5,10.7l-.15,14.91h152.65v-25.61Z"/></g></svg>