<?xml version="1.0" encoding="UTF-8"?><svg id="Calque_2" xmlns="http://www.w3.org/2000/svg" viewBox="0 0 2053.68 2092.62"><defs><style>.cls-1{fill:#222;}</style></defs><g id="Calque_1-2"><polygon class="cls-1" points="0 0 0 225.15 188.44 224.28 188.44 0 0 0"/><path class="cls-1" d="m175.69,0C97.56,49.38,26.06,39,0,32.65v215.38c46.24,6.45,212.84,16.86,367.68-133.86v131.72s256.67,29.3,383.28-134.5v113.82l201.55-.93V0H175.69Z"/><path class="cls-1" d="m559.37,0c-98.3,62.12-186.11,29.64-186.11,29.64l-2.08,216.24s198.21,45.41,380.19-131.72v131.72s256.67,29.3,383.28-134.5v113.82l201.55-.93V0h-776.83Z"/><path class="cls-1" d="m939.77,0c-98.31,62.14-186.13,29.65-186.13,29.65l-2.08,216.24s198.21,45.41,380.19-131.72v131.72s256.67,29.3,383.28-134.5v113.82l201.55-.93V0h-776.81Z"/><path class="cls-1" d="m1323.45,0c-98.31,62.13-186.12,29.64-186.12,29.64l-2.08,216.24s198.21,45.41,380.19-131.72v131.72s256.67,29.3,383.28-134.5v113.82l154.96-.72V0h-730.23Z"/><path class="cls-1" d="m1704.04,0c-99.64,62.13-188.65,29.64-188.65,29.64l-2.11,216.24s200.91,45.41,385.36-131.72v131.72s69.87,7.86,155.05-7.36V0h-349.64Z"/><path class="cls-1" d="m188.44,349.29s-88.52-13.16-188.44,13.46v339.61l188.44-.81v-352.27Z"/><path class="cls-1" d="m193.73,481.91l-.58-134.44s-94.48-9.32-193.15,18.55v356.61c53.26,3.11,260.8,6.04,370.57-126.14v105.94l201.55-.87v-352.27s-243.16-36.17-378.4,132.63Z"/><path class="cls-1" d="m574.11,481.91l-.58-134.44s-217.05-21.44-336.77,97.72c-99.33,98.85-203.99,85.45-236.77,78.01v200.45c46.24,6.01,212.84,15.69,367.68-124.59v122.59s256.67,27.27,383.28-125.18v105.94l201.55-.87v-352.27s-243.16-36.17-378.4,132.63Z"/><path class="cls-1" d="m373.26,520.39l-2.08,201.26h0s198.21,42.27,380.19-122.59v122.59s256.67,27.27,383.28-125.18v105.94l201.55-.87v-352.27s-243.16-36.17-378.4,132.63l-.58-134.44s-217.05-21.44-336.77,97.72c-119.72,119.14-247.2,75.21-247.2,75.21Z"/><path class="cls-1" d="m753.64,520.4l-2.08,201.26h0s198.21,42.27,380.19-122.59v122.59s256.67,27.27,383.28-125.18v105.94l201.55-.87v-352.27s-243.16-36.17-378.4,132.63l-.58-134.44s-217.05-21.44-336.77,97.72c-119.72,119.14-247.2,75.21-247.2,75.21Z"/><path class="cls-1" d="m1721.87,481.92l-.58-134.44s-217.05-21.44-336.77,97.72c-119.72,119.14-247.2,75.21-247.2,75.21l-2.08,201.26s198.21,42.27,380.19-122.59v122.59s256.67,27.27,383.28-125.18v105.94l154.96-.67v-355.64c-77.28-1.38-233.22,12.74-331.81,135.8Z"/><path class="cls-1" d="m1764.91,445.19c-119.72,119.14-247.2,75.21-247.2,75.21l-2.08,201.26s198.21,42.27,380.19-122.59v122.59s71.62,7.6,157.85-7.69v-367.95c-70.84.95-204.13,14.92-288.77,99.16Z"/><path class="cls-1" d="m188.44,858.07s-88.52-13.16-188.44,13.46v339.61l188.44-.81v-352.27Z"/><path class="cls-1" d="m193.73,990.7l-.58-134.44s-94.48-9.32-193.15,18.55v356.61c53.26,3.11,260.8,6.04,370.57-126.14v105.94l201.55-.87v-352.27s-243.16-36.17-378.4,132.63Z"/><path class="cls-1" d="m574.11,990.7l-.58-134.44s-217.05-21.44-336.77,97.72c-99.33,98.85-203.99,85.45-236.77,78.01v200.45c46.24,6.01,212.84,15.69,367.68-124.59v122.59s256.67,27.27,383.28-125.18v105.94l201.55-.87v-352.27s-243.16-36.17-378.4,132.63Z"/><path class="cls-1" d="m373.26,1029.18l-2.08,201.26h0s198.21,42.27,380.19-122.59v122.59s256.67,27.27,383.28-125.18v105.94l201.55-.87v-352.27s-243.16-36.17-378.4,132.63l-.58-134.44s-217.05-21.44-336.77,97.72c-119.72,119.14-247.2,75.21-247.2,75.21Z"/><path class="cls-1" d="m753.64,1029.19l-2.08,201.26h0s198.21,42.27,380.19-122.59v122.59s256.67,27.27,383.28-125.18v105.94l201.55-.87v-352.27s-243.16-36.17-378.4,132.63l-.58-134.44s-217.05-21.44-336.77,97.72c-119.72,119.14-247.2,75.21-247.2,75.21Z"/><path class="cls-1" d="m1721.87,990.7l-.58-134.44s-217.05-21.44-336.77,97.72c-119.72,119.14-247.2,75.21-247.2,75.21l-2.08,201.26s198.21,42.27,380.19-122.59v122.59s256.67,27.27,383.28-125.18v105.94l154.96-.67v-355.64c-77.28-1.38-233.22,12.74-331.81,135.8Z"/><path class="cls-1" d="m1764.91,953.98c-119.72,119.14-247.2,75.21-247.2,75.21l-2.08,201.26s198.21,42.27,380.19-122.59v122.59s71.62,7.6,157.85-7.69v-367.95c-70.84.95-204.13,14.92-288.77,99.16Z"/><path class="cls-1" d="m188.44,1333.49s-88.52-13.16-188.44,13.46v339.61l188.44-.81v-352.27Z"/><path class="cls-1" d="m193.73,1466.11l-.58-134.44s-94.48-9.32-193.15,18.55v356.61c53.26,3.11,260.8,6.04,370.57-126.14v105.94l201.55-.87v-352.27s-243.16-36.17-378.4,132.63Z"/><path class="cls-1" d="m574.11,1466.11l-.58-134.44s-217.05-21.44-336.77,97.72c-99.33,98.85-203.99,85.45-236.77,78.01v200.45c46.24,6.01,212.84,15.69,367.68-124.59v122.59s256.67,27.27,383.28-125.18v105.94l201.55-.87v-352.27s-243.16-36.17-378.4,132.63Z"/><path class="cls-1" d="m373.26,1504.59l-2.08,201.26h0s198.21,42.27,380.19-122.59v122.59s256.67,27.27,383.28-125.18v105.94l201.55-.87v-352.27s-243.16-36.17-378.4,132.63l-.58-134.44s-217.05-21.44-336.77,97.72c-119.72,119.14-247.2,75.21-247.2,75.21Z"/><path class="cls-1" d="m753.64,1504.61l-2.08,201.26h0s198.21,42.27,380.19-122.59v122.59s256.67,27.27,383.28-125.18v105.94l201.55-.87v-352.27s-243.16-36.17-378.4,132.63l-.58-134.44s-217.05-21.44-336.77,97.72c-119.72,119.14-247.2,75.21-247.2,75.21Z"/><path class="cls-1" d="m1721.87,1466.12l-.58-134.44s-217.05-21.44-336.77,97.72c-119.72,119.14-247.2,75.21-247.2,75.21l-2.08,201.26s198.21,42.27,380.19-122.59v122.59s256.67,27.27,383.28-125.18v105.94l154.96-.67v-355.64c-77.28-1.38-233.22,12.74-331.81,135.8Z"/><path class="cls-1" d="m1764.91,1429.39c-119.72,119.14-247.2,75.21-247.2,75.21l-2.08,201.26s198.21,42.27,380.19-122.59v122.59s71.62,7.6,157.85-7.69v-367.95c-70.84.95-204.13,14.92-288.77,99.16Z"/><path class="cls-1" d="m188.44,1842.37s-88.52-13.53-188.44,13.84v236.42h188.44v-250.26Z"/><path class="cls-1" d="m572.12,1842.36s-243.16-37.17-378.4,136.31l-.58-138.17s-94.48-9.58-193.15,19.06v233.07h572.12v-250.26Z"/><path class="cls-1" d="m1336.2,1842.36s-243.16-37.17-378.4,136.31l-.58-138.17s-217.05-22.04-336.77,100.43c-119.72,122.44-247.2,77.3-247.2,77.3l-.75,74.4h963.69v-250.26Z"/><path class="cls-1" d="m1716.59,1842.37s-243.16-37.17-378.4,136.31l-.58-138.17s-217.05-22.04-336.77,100.43c-119.72,122.44-247.2,77.3-247.2,77.3l-.75,74.39h963.69v-250.25Z"/><path class="cls-1" d="m2053.68,1839.11c-77.28-1.42-233.22,13.1-331.81,139.56l-.58-138.17s-217.05-22.04-336.77,100.43c-119.72,122.44-247.2,77.3-247.2,77.3l-.75,74.4h917.1v-253.51Z"/><path class="cls-1" d="m2053.68,1839.02c-70.84.98-204.13,15.33-288.77,101.91-119.72,122.44-247.2,77.3-247.2,77.3l-.75,74.4h536.71v-253.61Z"/></g></svg>